<svg xmlns="http://www.w3.org/2000/svg" viewBox="0 0 128 128" width="256" height="256"><defs><style>.cls-1{fill:#131414;}.cls-2,.cls-3{fill:#4e71ff;}.cls-3{fill-rule:evenodd;}</style></defs><g id="Слой_2" data-name="Слой 2"><g id="Слой_1-2" data-name="Слой 1"><g id="decryptor_heth" data-name="decryptor heth"><polygon class="cls-1" points="64 127.02 25.09 120.9 7.25 85.77 1.04 46.85 28.92 19.02 64 1.09 99.08 19.02 126.96 46.85 120.75 85.77 102.91 120.9 64 127.02"/><path class="cls-2" d="M64,128l-39.55-6.22L6.31,86.07,0,46.52,28.35,18.23l.13-.07L64,0,99.65,18.23,128,46.52l-6.31,39.55-.07.14-18.07,35.57Zm-38.27-8L64,126l38.27-6,17.55-34.56,6.11-38.27L98.5,19.82,64,2.18,29.5,19.82,2.07,47.19,8.18,85.46Z"/><path class="cls-2" d="M93.46,26.23,64,11.17,34.54,26.23,11.11,49.61l5.22,32.68,15,29.51L64,116.94l32.69-5.14,15-29.51,5.22-32.68Zm10.72,53.19L91.55,104.29,64,108.63l-27.55-4.34L23.82,79.42,19.43,51.88l19.74-19.7L64,19.48l24.83,12.7,19.74,19.7Z"/><polygon class="cls-1" points="64 98.53 42.69 95.18 32.93 75.94 29.53 54.64 44.8 39.4 64 29.58 83.2 39.4 98.47 54.64 95.07 75.94 85.31 95.18 64 98.53"/><path class="cls-2" d="M64,100.17,41.63,96.65,31.37,76.45,27.8,54.07l16-16L64,27.76,84.17,38.07l16,16L96.63,76.45,86.37,96.65ZM43.76,93.71,64,96.89l20.24-3.18,9.28-18.27L96.75,55.2,82.24,40.72,64,31.4,45.76,40.72,31.25,55.2l3.23,20.24Z"/><line class="cls-1" x1="64" y1="16.87" x2="64" y2="29.58"/><rect class="cls-2" x="62.71" y="16.87" width="2.59" height="12.71"/><line class="cls-1" x1="111.19" y1="51.16" x2="98.47" y2="54.64"/><rect class="cls-2" x="98.24" y="51.6" width="13.18" height="2.59" transform="translate(-10.23 29.47) rotate(-15.27)"/><line class="cls-1" x1="93.16" y1="106.66" x2="85.31" y2="95.18"/><rect class="cls-2" x="87.94" y="93.96" width="2.59" height="13.91" transform="translate(-41.41 68.05) rotate(-34.39)"/><line class="cls-1" x1="64" y1="111.24" x2="64" y2="98.53"/><rect class="cls-2" x="62.71" y="98.53" width="2.59" height="12.72"/><line class="cls-1" x1="34.84" y1="106.66" x2="42.69" y2="95.18"/><rect class="cls-2" x="31.81" y="99.62" width="13.91" height="2.59" transform="translate(-66.4 75.87) rotate(-55.59)"/><line class="cls-1" x1="16.81" y1="51.16" x2="29.53" y2="54.64"/><rect class="cls-2" x="21.87" y="46.31" width="2.59" height="13.18" transform="translate(-33.97 61.31) rotate(-74.72)"/><line class="cls-1" x1="21.46" y1="80.33" x2="32.93" y2="75.94"/><rect class="cls-2" x="21.06" y="76.84" width="12.27" height="2.59" transform="translate(-26.11 14.86) rotate(-20.92)"/><line class="cls-1" x1="106.54" y1="80.33" x2="95.07" y2="75.94"/><rect class="cls-2" x="99.51" y="72" width="2.59" height="12.27" transform="translate(-8.19 144.37) rotate(-69.06)"/><line class="cls-1" x1="37.71" y1="30.3" x2="44.8" y2="39.4"/><rect class="cls-2" x="39.96" y="29.09" width="2.59" height="11.53" transform="translate(-12.71 32.71) rotate(-37.92)"/><line class="cls-1" x1="90.29" y1="30.3" x2="83.21" y2="39.4"/><rect class="cls-2" x="80.98" y="33.56" width="11.53" height="2.59" transform="translate(5.93 81.84) rotate(-52.07)"/><path class="cls-3" d="M68.27,85.71A.72.72,0,0,0,68,86a1.34,1.34,0,0,0,.66-.12c.26-.09.5-.2.5-.2A.85.85,0,0,0,68.27,85.71Z"/><path class="cls-3" d="M76.91,84.46a.39.39,0,0,0-.3,0A1,1,0,0,0,76.91,84.46Z"/><path class="cls-3" d="M78.71,81.92v0Z"/><path class="cls-3" d="M80.86,64.54l-.1-4.9q-.12-4.92-.29-9.87l0-1.76-1.68.05c-6.6.21-13.26.42-20,.47-2.68,0-5.6-.06-8.7-.18l-1.38-.06-.06,1.48c-.3,7.06-.87,14.91-1,22.33,0,1.56-.18,3.4-.21,5,0,2.12.15,6.08.26,5,.06-.53.11-1.07.15-1.6.08-1.43.16-2.87.23-4.32.14-4.66,0-9.49.23-14.2.18-4.3.37-8.25.51-12.25l0-1.35,1.28,0c3.67.12,7.37.2,11.38.17,5.81-.05,11.54-.36,17.34-.21h.11L80,48.32v.14h.17l0,1.31v.1l.19,3.58c.26,6.19-.71-2.63-.19-3.58v-.1L80,48.46l-1.12,0h-.11A215,215,0,0,1,50,48.73l-1,0,0,1.08c-.29,6.9-.68,13.79-.81,20.62q-.06,2.94-.2,5.83c-.05,1.46-.12,2.9-.23,4.32,0,.81-.1,1.62-.14,2.42L47.52,84,47.34,83c0-.24-.07-.19-.08,0l-.16,2.55.68,0-.06-.32,2.3.13,1.55.08-.62.07c-.46,0-.76.07-.93.1l-.36,0,.36,0c.54,0,2.16,0,2-.22.64,0,1.29.07,1.93.09l-.62.08c-3.12.26,1.38.23,1-.06l2,.08-.7.08c-3.13.28,1.45.23,1-.06h0l2,0-.16,0-.65.09-.27,0c-2,.35,2.42.14,2.07-.13h1.74l-.09,0c-.6.21-1.11.48-1.25.39.3.19.93,0,1.54-.21.23-.08.46-.16.67-.21q1.95,0,3.81-.09c-.77.08-1.56.18-1.61.19-2.79.4,3.74.11,3.07-.24h-.06q1.06-.06,2.1-.15c1.48-.12,6-.36,7-.57.79-.15-.17-.23-.17-.18a.64.64,0,0,1,.27-.25l-1.76-.15a16.87,16.87,0,0,0-2.07-.15,11.61,11.61,0,0,1,2.77-.32c1.23-.1,2.08-.21.58-.46-2.08-.36-.64-.49.73-.55s2.68-.06.44-.23c-.54,0-2.63-.43-3-.46-3-.25-5.78-.36-8.61-.43s-5.66-.12-8.5-.3c-1.72-.12-3.43-.2-5.14-.27h0q.12-3.93.16-7.84c0-1.85.08-3.7.15-5.56a15.32,15.32,0,0,1,2.6.23,21.6,21.6,0,0,0,4,.52c2.57.12,5.18,1.41,7.89,1.3,3.08-.12,6.1-.55,9.21-.68,0,.69.05,1.37.08,2.07a63.33,63.33,0,0,0,.66,6.31,18.52,18.52,0,0,0,1,4.29c.74,1.34,0-.66.44-.74.27-.06.55.72.56.89,0,0,0-.11,0-.21s0-.35.07-.54c.06-.39.14-.76.21-.67.24.31-.18,2.1.41,2.55.28.21.46-.27.58-1.17a31.23,31.23,0,0,0,.18-3.55c0-1.38,0-2.81-.09-4,0-1-.08-1.89-.08-2.41,0,0,0,0,0-.22,0,.07,0,.14,0,.22s.08-.65.16-1.18c.11-.7.24-1.23.29.26.07,2,.16,2.1.25,1.49a22,22,0,0,0,.18-2.75c0-.89,0-1.79,0-2.68Zm-8.39.63c0,.11,1-1,1.17-.5C73.59,64.47,72.63,65.77,72.47,65.17Zm2.18-.26c-.19,0-.8.57-.89.21.1.41,1.52-1.39,1.72-.63C75.42,64.25,74.85,64.86,74.65,64.91Zm-8.26.21c-2.08.07-4.75-1-7.22-1.22-.36,0-.79-.17-1.18-.2s-1.41.15-1.16.26.25.1.38.15c.32.07.63.15.95.21,1.1.15,2.25.05,3.36.24a26.22,26.22,0,0,0,5.48.66,27.07,27.07,0,0,1,4-.2c.29,0,.51-.13.83-.19,1.45-.26-.61.7-.83.19-3.81,1.57-7.67-.2-11.45-.49a11.43,11.43,0,0,1-1.41-.21,5.21,5.21,0,0,1-.95-.21l-.91-.23a.69.69,0,0,0,.13-.07c.67-.24-.28-.24-.22,0l-.41-.1.13-.07c.67-.25-.29-.25-.22,0l-.43-.09.14-.08c.68-.24-.3-.24-.22.06h0l-.41-.08a1.2,1.2,0,0,0,.23-.12c.44-.33-.5-.19-.44.09l-.37,0c.14-.21.28-.5.3-.4-.07-.28-.31.19-.49.38a7.36,7.36,0,0,0-.81,0,3,3,0,0,0,.36-.15c.61-.33-.77-.24-.67.15l0,0-.41.07c.18-3.44.41-6.91.59-10.41h0c2.43.07,4.87.11,7.32.09,5.1,0,10.16-.14,15.21-.24h0c.06,2.59.11,5.19.17,7.8l.06,3.5a1.67,1.67,0,0,0-.29,0C72.57,64.28,69.52,65,66.39,65.12Zm9.48-.48h0V65C75.71,64.87,75.51,64.72,75.87,64.64ZM80,56.1c-.12.13,1,4.45.51,5C80.67,60.87,79.35,56.77,80,56.1Zm.68,13.09c.24-.26-.37-3-.42-3.78S79.64,62,80,61.6c-.21.22.14,1.86.45,3.54.08.42.15.84.21,1.25s.11.86.14,1.24A2.65,2.65,0,0,1,80.64,69.19Z"/><polygon class="cls-3" points="47.84 85.94 49.66 85.66 47.78 85.55 47.84 85.94"/><path class="cls-3" d="M80.56,79.7c-.23.17-.18.79-.09,1.38s.24,1.15.24,1.15.05-.69,0-1.28S80.46,79.78,80.56,79.7Z"/><path class="cls-3" d="M52.57,63.26c.12.45.28-.29.28-.3S52.57,63.26,52.57,63.26Z"/></g></g></g></svg>
