<svg xmlns="http://www.w3.org/2000/svg" viewBox="0 0 128 128" width="256" height="256">
    <defs>
        <style>.cls-1{fill:#3fb147;}.cls-2{fill-rule:evenodd;}</style>
    </defs>
    <g id="Слой_2" data-name="Слой 2">
        <g id="Слой_1-2" data-name="Слой 1">
            <g id="symbol_samekh" data-name="symbol samekh">
                <polygon class="cls-1"
                         points="64 128 24.45 121.78 6.31 86.07 0 46.52 28.35 18.23 64 0 99.65 18.23 128 46.52 121.69 86.07 103.55 121.78 64 128"/>
                <path class="cls-2" d="M40.29,34.85c-.07-.27-.54.65-.54.65C40,36.46,40.29,34.88,40.29,34.85Z"/>
                <path class="cls-2" d="M36.18,37.94c0,.16.07.15.11.06S36.17,37.91,36.18,37.94Z"/>
                <path class="cls-2" d="M89.83,36.82c-.16-.65-.86,1.24-1,.75C89.11,38.68,89.82,36.81,89.83,36.82Z"/>
                <path class="cls-2" d="M40.29,56.49c-.07-.27-.54.65-.54.65C40,58.1,40.29,56.52,40.29,56.49Z"/>
                <path class="cls-2" d="M36.18,59.58c0,.16.07.15.11.06S36.17,59.55,36.18,59.58Z"/>
                <path class="cls-2"
                      d="M90.79,67c.31-2.15-.32,0-.56-1.4a2.37,2.37,0,0,1,.2-1.59s-.8-.43-.77-.84c0-.67,1,.49,1-1.27-.09-3.16-4-.76-4.94-.79,0,0,0,0-.09,0h.09c-.09-.09-1.49-.68-.43-1,1.66-.41.13-.9-.55-.88-5.65.11-11.36,1.56-17.2,1.89.59-3.8,1.3-7.77,1.63-11.6,5.55-.35,11-1.17,16.67-1.42,2.12-.09,4.7-.8,5-2.79.31-2.15-.32,0-.56-1.4a2.37,2.37,0,0,1,.2-1.59s-.8-.43-.77-.84c0-.67,1,.49,1-1.27-.09-3.16-4-.76-4.94-.79,0,0,0,0-.09,0h.09c-.09-.09-1.49-.68-.43-1,1.66-.41.13-.9-.55-.88-4.83.09-9.7,1.17-14.67,1.68.06-.38-.09-1.41-.47-1.29.08-.44.14-.88.21-1.32a4.1,4.1,0,0,0,.16.45c.53,2.09.53-.93-.11-.69h0c.06-.42.12-.84.17-1.26a7.67,7.67,0,0,0,.28.72c.7,1.36.4-1.55-.2-1.38,0-.39.08-.77.11-1.15.44.46,1.08.88.87,1,.6-.23-.41-1-.83-1.53.05-.86.07-1.7,0-2.52.12.52.31,1.07.32,1.11.71,1.9.52-2.39-.32-2.08a.1.1,0,0,0,0,0c0-.48-.09-.95-.17-1.42-.17-1-.32-4-.77-4.84-.33-.61-.64,0-.51,0a3.09,3.09,0,0,1-.65-.32c-.27.59-1.31,2.41-1.07,2.43-.78-.05-.47-4.54-2-2.74C63,25,63.72,18.1,62.79,21.11c-.11.36-1.16,1.65-1.24,1.93-1,4.09-.4,8.32-1.11,12.51-.16,1-.3,2-.43,2.93a60.38,60.38,0,0,0-7.38-1.59c-.71-.08-1.55-.37-2.29-.45-1-.1-2.77.34-2.29.57a6.15,6.15,0,0,0,.76.32c.62.17,1.23.33,1.86.47,2.15.33,4.38.1,6.56.51l2.74.55c0,.16,0,.33,0,.49a53.37,53.37,0,0,0-6.51-1.11,21.12,21.12,0,0,1-2.74-.44,10.14,10.14,0,0,1-1.86-.47L47,36.84c.11-.05.22-.13.26-.15,1.3-.53-.56-.53-.44.1l-.8-.22c.1,0,.22-.13.25-.14,1.31-.53-.56-.53-.43.09l-.84-.2c.11,0,.25-.15.29-.16,1.31-.54-.59-.53-.44.11h0l-.79-.17a2.71,2.71,0,0,0,.45-.27c.86-.71-1-.41-.87.2L43,35.93c.29-.45.55-1.08.6-.87-.14-.6-.62.41-1,.83a10.62,10.62,0,0,0-1.59,0,5.5,5.5,0,0,0,.7-.33c1.2-.7-1.5-.51-1.3.33,0,0,0,0,0,0a7,7,0,0,0-.91.17c-.64.16-2.55.32-3,.76s0,.65,0,.51a3.84,3.84,0,0,1-.21.66c.38.27,1.52,1.31,1.53,1.07,0,.77-2.85.46-1.72,2,1.57,2.09-2.74,1.34-.85,2.27.23.11,1,1.16,1.22,1.24,2.57,1.05,5.23.4,7.86,1.11a37.66,37.66,0,0,0,7.76,1.13,34.29,34.29,0,0,1,7.2,1.48,90.82,90.82,0,0,1-1.5,11.29,42.42,42.42,0,0,0-5.16-1c-.71-.08-1.55-.37-2.29-.45-1-.1-2.77.34-2.29.57a6.15,6.15,0,0,0,.76.32c.62.17,1.23.33,1.86.47,2.15.33,4.38.1,6.56.51l.47.09c0,.16-.05.32-.08.47a40.74,40.74,0,0,0-4.21-.63,21.12,21.12,0,0,1-2.74-.44A10.14,10.14,0,0,1,48.81,59L47,58.48c.11,0,.22-.13.26-.15,1.3-.53-.56-.53-.44.1l-.8-.22c.1,0,.22-.13.25-.14,1.31-.53-.56-.53-.43.09L45,58c.11,0,.25-.15.29-.16,1.31-.54-.59-.53-.44.11a0,0,0,0,0,0,0l-.79-.17a2.71,2.71,0,0,0,.45-.27c.86-.71-1-.41-.87.2L43,57.57c.29-.45.55-1.08.6-.87-.14-.6-.62.41-1,.83a10.62,10.62,0,0,0-1.59,0,5.5,5.5,0,0,0,.7-.33c1.2-.7-1.5-.51-1.3.33,0,0,0,0,0,0a7,7,0,0,0-.91.17c-.64.16-2.55.32-3,.76s0,.65,0,.51a3.84,3.84,0,0,1-.21.66c.38.27,1.52,1.31,1.53,1.07,0,.77-2.85.46-1.72,2,1.57,2.09-2.74,1.34-.85,2.27.23.11,1,1.16,1.22,1.24,2.57,1,5.23.4,7.86,1.11a37.66,37.66,0,0,0,7.76,1.13,24.07,24.07,0,0,1,4.45.75c-.06,1.06-.08,2.12,0,3.19.09,3.13.25,6.25.43,9.35a36.72,36.72,0,0,0-4.29-.81c-.71-.08-1.55-.37-2.29-.45-1-.1-2.77.33-2.29.57.25.12.51.22.76.32.62.16,1.23.32,1.86.46,2.06.32,4.2.12,6.29.47,0,.16,0,.33,0,.49a33.71,33.71,0,0,0-3.57-.51,21.43,21.43,0,0,1-2.74-.45,10.11,10.11,0,0,1-1.86-.46L47,80.85c.11,0,.22-.13.26-.14,1.3-.53-.56-.53-.44.09l-.8-.21a2.65,2.65,0,0,0,.25-.15c1.31-.53-.56-.53-.43.1L45,80.33a2.19,2.19,0,0,0,.29-.16c1.31-.53-.59-.53-.44.11,0,0,0,0,0,0l-.79-.17a2,2,0,0,0,.45-.28c.86-.7-1-.4-.87.2L43,79.94c.29-.44.55-1.08.6-.87-.14-.6-.62.41-1,.83a10.62,10.62,0,0,0-1.59,0,6.15,6.15,0,0,0,.7-.32c1.2-.71-1.5-.52-1.3.32,0,0,0,0,0,0a7,7,0,0,0-.91.17c-.64.17-2.55.33-3,.77s0,.64,0,.51a3.55,3.55,0,0,1-.21.65c.38.27,1.52,1.31,1.53,1.07,0,.78-2.85.47-1.72,2,1.57,2.09-2.74,1.34-.85,2.26.23.11,1,1.17,1.22,1.24,2.57,1,5.23.41,7.86,1.11a37,37,0,0,0,7.76,1.14,26.53,26.53,0,0,1,5.46,1c.19,3.2.36,6.41.45,9.66s.8,7.48,2.79,7.93c2.15.48,0-.51,1.4-.89.85-.24,1.71.25,1.59.31s.43-1.27.83-1.23c.68.08-.48,1.62,1.27,1.54,3.15-.13.79-6.27.79-7.84,0,0,0,0,0-.15a.76.76,0,0,0,0,.15c.07,0,.68-2.41,1-.68.42,2.62.9.2.89-.89,0-2-.13-4.09-.27-6.14,5.87-.31,11.63-1.2,17.57-1.46,2.12-.1,4.7-.8,5-2.79.31-2.15-.32,0-.56-1.41a2.41,2.41,0,0,1,.2-1.59s-.8-.42-.77-.83c0-.68,1,.48,1-1.27-.09-3.16-4-.77-4.94-.79,0,0,0,0-.09,0h.09c-.09-.09-1.49-.68-.43-1,1.66-.41.13-.9-.55-.89-5.69.11-11.43,1.59-17.32,1.9-.37-4-.71-8.12-.81-12.24.3,0,.61,0,.92,0C73.62,71,79.62,70,85.81,69.74,87.93,69.65,90.51,68.94,90.79,67Zm-23-10.9c-.22,1.76-.44,3.44-.64,5.09l-.42,0a.34.34,0,0,0-.1,0c.51-3.75,1-7.48,1.23-11.19,0-.13,0-.26,0-.39h.21C68.05,51.73,68,53.91,67.79,56.05Zm1.47-16.22c0,.17.13.35.14.41s.1.33.14.45h-.43ZM84.5,38.15c-.12-.51-1.23.81-1.63.93s-1.55,1.23-1.74.43C81.34,40.4,84.11,36.52,84.5,38.15Zm-3.6.39c-.1-.43-2,2.38-2.28,1.09C78.68,39.87,80.65,37.49,80.9,38.54Zm-5.12.77c.57-.11,1-.28,1.64-.41,2.82-.56-1.2,1.52-1.64.41a15.66,15.66,0,0,1-6,1.37,1.86,1.86,0,0,0-.27-1.06A27.4,27.4,0,0,1,75.78,39.31Zm-6.11-.64a3.72,3.72,0,0,0,.2.62l-.53.06c.06-.36.13-.72.19-1.08C69.57,38.43,69.66,38.62,69.67,38.67ZM66.6,61.38h.52c0,.29-.07.57-.11.86l-.52-.06C66.53,61.92,66.56,61.65,66.6,61.38Zm-.27,22.37h.54c0,.28,0,.56,0,.84l-.31,0C66.46,84.29,66.4,84,66.33,83.75Zm1.61,15.64c.52-.2-.81-2-.92-2.59s-1.23-2.47-.43-2.76C65.7,94.37,69.57,98.77,67.94,99.39Zm-.38-5.72a.05.05,0,0,0,0,0h0ZM84.5,82.17c-.12-.52-1.23.81-1.63.92s-1.55,1.23-1.74.44C81.34,84.41,84.11,80.54,84.5,82.17Zm-3.6.39c-.1-.44-2,2.37-2.28,1.08C78.68,83.89,80.65,81.51,80.9,82.56Zm-13,1.19c2.63-.09,5.22-.77,7.84-.43.57-.11,1-.28,1.64-.4,2.82-.57-1.2,1.51-1.64.4a16.62,16.62,0,0,1-8.28,1.33c0-.3-.06-.6-.08-.9C67.59,83.75,67.76,83.76,67.94,83.75Zm-1.07-.22h-.58a44.14,44.14,0,0,1-.77-12.33l.83,0c0,.6,0,1.2,0,1.81C66.44,76.57,66.92,80,66.87,83.53ZM75.78,61a16.64,16.64,0,0,1-8.44,1.31c0-.29.08-.58.13-.88h.47c2.63-.1,5.22-.77,7.84-.43.57-.11,1-.28,1.64-.41C80.24,60,76.22,62.06,75.78,61Zm2.84.32c.06.24,2-2.14,2.28-1.09C80.8,59.75,78.93,62.56,78.62,61.27Zm4.25-.55c-.36.09-1.55,1.23-1.74.43.21.89,3-3,3.37-1.36C84.38,59.28,83.27,60.6,82.87,60.72Z"/>
                <path class="cls-2" d="M88.85,59.21c.26,1.11,1-.76,1-.75C89.67,57.81,89,59.7,88.85,59.21Z"/>
                <path class="cls-2" d="M40.29,78.87c-.07-.27-.54.64-.54.65C40,80.48,40.29,78.89,40.29,78.87Z"/>
                <path class="cls-2" d="M36.18,82c0,.17.07.15.11.06S36.17,81.93,36.18,82Z"/>
                <path class="cls-2" d="M88.85,81.59c.26,1.1,1-.76,1-.76C89.67,80.18,89,82.08,88.85,81.59Z"/>
                <path class="cls-2" d="M71.24,29.11c.27-.1-.64-.86-.65-.85C69.63,28.62,71.22,29.12,71.24,29.11Z"/>
                <path class="cls-2" d="M68.16,22.58c-.17,0-.15.11-.06.19C68.16,22.65,68.18,22.57,68.16,22.58Z"/>
                <path class="cls-2" d="M68.52,106.31c-1.1.41.77,1.55.76,1.55C69.93,107.61,68,106.5,68.52,106.31Z"/>
            </g>
        </g>
    </g>
</svg>
