<svg xmlns="http://www.w3.org/2000/svg" viewBox="0 0 128 128" width="256" height="256">
    <defs>
        <style>.cls-1{fill:#a334b7;}</style>
    </defs>
    <g id="Слой_2" data-name="Слой 2">
        <g id="Слой_1-2" data-name="Слой 1">
            <g id="symbol_daleth" data-name="symbol daleth">
                <polygon class="cls-1"
                         points="64 128 24.45 121.78 6.31 86.07 0 46.52 28.35 18.23 64 0 99.65 18.23 128 46.52 121.69 86.07 103.55 121.78 64 128"/>
                <path d="M97.73,53.43a2.57,2.57,0,0,0-.24-1.22c-.17-.46-.36-.86-.36-.86A1.73,1.73,0,0,0,97.2,53,1,1,0,0,0,97.73,53.43Z"/>
                <path d="M94.78,37.36a.73.73,0,0,0,0,.55A3.47,3.47,0,0,0,94.78,37.36Z"/>
                <path d="M97.91,65.82c-.15-.43-.29-.85-.4-1.24-.05-2.48-.15-4.91-.29-7.26.17,1.44.38,2.91.4,3,.39,2.61.41.82.24-1.47s-.52-5-.79-4.33a1.3,1.3,0,0,0,0,.13c-.1-1.34-.21-2.66-.34-3.94s-.37-4.13-.61-6.82-.49-5.16-.67-6.08c-.27-1.39-.34.47-.27.43a.59.59,0,0,1-.37-.35c0,.73-.09,2.06-.16,3.39a36.45,36.45,0,0,0-.15,4c-.23.2-.39-2.73-.57-5s-.35-3.71-.68-.77c-.5,4.07-.7,1.51-.77-1s-.06-4.87-.31-.64c0,1-.63,5.1-.7,5.87-.42,5.52-.71,10.67-.9,15.78s-.33,10.21-.69,15.33c-.19,2.67-.34,5.32-.47,8l0,.05q-5.59-1-11.2-1.87C66.45,79.24,54.73,76.2,42.7,73.74h0c2.75-1.91,5.49-3.83,8.24-5.79L75.71,50.13c3-2.14,6.39-4.67,9.26-6.93a42.43,42.43,0,0,0,6.09-5.38c1.82-2.42-.93.61-1.07-.12-.08-.42,1-1.57,1.23-1.74-.14.07-.6.31-1,.5s-1,.41-.91.21c.42-.68,2.88-1.49,3.48-2.9s-2.68.46-6.36,2.75c-3.43,2.13-7.16,4.75-8.64,5.63,0,0,0,0-.29.16l.29-.16c-.24.07-4.51,2.09-1.1-.11,5.33-3.41.66-1.1-1.55.16-8.75,5-17.65,10.54-26.39,16.23C42.31,62.58,36,66.79,29.68,71L24.6,74.28l-2,1.3L16,79.84l7.38.92L25.6,81l5.64.77c13.17,2,29.14,6.22,44.1,8.83,2.4.42,5.2,1.11,7.72,1.54,3.26.56,9.41,1,7.79.52-.81-.23-1.63-.45-2.45-.66-2.19-.48-4.4-1-6.62-1.42C74.63,89.3,67.15,88.47,59.93,87c-10.1-2-19-3.9-28.64-5.43h-.08l-.12,0h0L26,80.82h0l-.27,0h-.09l-1.74-.23-.41-.05-6.67-.86,6-3.81c.54-.34,1.08-.7,1.62-1h0l.22-.14.39-.25h0l4.55-3h0Q32.06,69.7,34.6,68c4-2.6,8-5.15,12.08-7.44,1.76-1.19,3.13-2.2,5.1-3.51,4.46-2.95,3.51-2,1.3-.36s-5.65,4-6.4,3.87q-4.74,3.63-9.44,6.88L23.09,76.65l-3.73,2.26,4.17.65,1,.16,11.82,2.09c12.21,2.34,24.36,5.1,36.47,7.11,3,.5,6,1.08,8.94,1.69C84,91,86.24,91.49,88.4,92l3.73.84,1.69.37-1.74.15c-.41,0-.33.1,0,.17l5.14,1.12L97.29,93,96.7,93l.28-5.3c0-1,.09-1.92.14-2.89,0,.47.11,1,.12,1.17.07.85.13,1.4.17,1.72l.11.75,0-.75c0-1.06-.09-4-.4-3.67l.15-3.66c0,.47.12,1,.14,1.18.48,5.89.42-2.66-.11-2,0-1.3.09-2.6.12-3.89,0,.5.14,1.17.16,1.35.52,5.93.4-2.77-.12-1.95a.12.12,0,0,0,0,.07q0-1.87.06-3.75a3.11,3.11,0,0,0,0,.32c0,.47.11.91.16,1.23s.08.5.08.52c.67,3.82.22-4.69-.27-3.94,0-.35,0-.71,0-1.07,0-.75,0-1.5,0-2.25a.75.75,0,0,0,0,.16c.39,1.09.88,2,.72,2.32C98.65,68.11,98.28,66.94,97.91,65.82ZM68.67,46.74c2.53-2.06,5.19-4,5.62-3.61-.28-.27-4.06,3-5.32,3.9s-5,4.1-5.52,3.67C63.74,50.94,66.13,48.8,68.67,46.74ZM59,52.67c1.7-1.43,3.5-2.8,3.85-2.51-.15-.12-1.77,1.39-3.41,2.85s-3.33,2.87-3.81,2.51C55.69,55.59,57.27,54.1,59,52.67Z"/>
                <polygon points="98.16 92.89 97.52 88.46 97.29 92.96 98.16 92.89"/>
                <path d="M90.1,33.66c.79-.66,1.55-1.39,1.55-1.39-.24-.3-3.21,2.64-3.38,2.42C88.47,34.94,89.31,34.33,90.1,33.66Z"/>
            </g>
        </g>
    </g>
</svg>
