<svg xmlns="http://www.w3.org/2000/svg" viewBox="0 0 128 128" width="256" height="256">
    <defs>
        <style>.cls-1{fill:#4e71ff;}.cls-2{fill-rule:evenodd;}</style>
    </defs>
    <g id="Слой_2" data-name="Слой 2">
        <g id="Слой_1-2" data-name="Слой 1">
            <g id="symbol_heth" data-name="symbol heth">
                <polygon class="cls-1"
                         points="64 128 24.45 121.78 6.31 86.07 0 46.52 28.35 18.23 64 0 99.65 18.23 128 46.52 121.69 86.07 103.55 121.78 64 128"/>
                <path class="cls-2"
                      d="M72.3,106.08a1.47,1.47,0,0,0-.57.6,2.53,2.53,0,0,0,1.28-.24c.52-.18,1-.38,1-.38A1.64,1.64,0,0,0,72.3,106.08Z"/>
                <path class="cls-2" d="M89.08,103.65a.64.64,0,0,0-.57,0A2.17,2.17,0,0,0,89.08,103.65Z"/>
                <path class="cls-2" d="M92.58,98.72v0Z"/>
                <path class="cls-2"
                      d="M96.76,65c-.06-3.17-.13-6.35-.19-9.53-.16-6.37-.36-12.75-.56-19.17l-.11-3.41-3.25.1c-12.83.39-25.78.79-38.9.89-5.22,0-10.89-.11-16.91-.35l-2.68-.11L34,36.25c-.58,13.72-1.69,29-2,43.38-.08,3-.34,6.6-.41,9.78-.1,4.12.3,11.8.52,9.73.1-1,.19-2.07.28-3.12q.24-4.15.44-8.39c.28-9,.08-18.43.46-27.58.34-8.35.71-16,1-23.8l.08-2.63,2.49.09c7.12.23,14.32.37,22.1.31,11.3-.08,22.42-.68,33.71-.38h.2l2.15-.2,0,.26h.35l-.07,2.54v.2c.13,2.4.23,4.28.37,6.95.52,12-1.38-5.1-.37-6.95l0-.2L95,33.7l-2.17-.06-.2,0c-18.54,1.74-37.2,1.33-55.81.57l-2-.08-.08,2.1C34.23,49.66,33.47,63,33.22,76.32c-.07,3.79-.21,7.57-.39,11.31-.09,2.84-.23,5.64-.44,8.39-.09,1.58-.19,3.15-.28,4.71L32,102.84l-.35-2.11c-.08-.46-.13-.37-.15,0l-.31,5,1.31.08-.1-.62,4.46.25,3,.15c-.49,0-1,.12-1.19.14-.92.07-1.49.13-1.82.18l-.69.11.69,0c1.06.06,4.19-.08,3.82-.42l3.76.17c-.49,0-1,.13-1.21.14-6.05.51,2.69.46,2-.1l3.94.15c-.52,0-1.17.14-1.36.16-6.08.53,2.81.44,2-.12l-.07,0,3.79.1-.31,0-1.27.17-.53.08c-3.92.69,4.71.29,4-.24l1.07,0h2.3l-.17.06c-1.15.41-2.16.93-2.43.76.58.37,1.81,0,3-.41.45-.15.9-.3,1.3-.41,2.53,0,5-.07,7.41-.16-1.49.14-3,.35-3.13.36-5.42.78,7.27.2,6-.46a.4.4,0,0,0-.13,0c1.39-.07,2.75-.17,4.08-.28,2.87-.23,11.57-.71,13.58-1.1,1.54-.3-.33-.45-.32-.36a1.17,1.17,0,0,1,.53-.48c-.74,0-2.09-.18-3.43-.3a29.7,29.7,0,0,0-4-.28c-.12-.29,3-.44,5.37-.63s4.06-.41,1.13-.89c-4-.7-1.23-1,1.42-1.07s5.21-.11.86-.45c-1-.07-5.11-.82-5.91-.9-5.73-.47-11.22-.68-16.72-.83s-11-.23-16.52-.58c-3.34-.22-6.66-.39-10-.53h0Q40.94,89.55,41,82c0-3.59.15-7.2.29-10.81a32,32,0,0,1,5,.44,40,40,0,0,0,7.71,1c5,.23,10.08,2.74,15.33,2.53,6-.23,11.84-1.07,17.89-1.33,0,1.34.09,2.67.16,4a122.11,122.11,0,0,0,1.28,12.26c.6,3.86,1.24,7.14,1.91,8.35,1.44,2.6,0-1.29.85-1.45.53-.11,1.06,1.4,1.09,1.74,0-.08,0-.22,0-.42s.07-.67.13-1c.11-.75.27-1.47.42-1.29.47.6-.37,4.08.79,5,.54.41.89-.53,1.12-2.27a59.28,59.28,0,0,0,.35-6.91c0-2.67-.08-5.46-.17-7.79-.09-2-.16-3.67-.15-4.67a1.78,1.78,0,0,1,0-.43c0,.12,0,.27,0,.43,0,0,.16-1.27.31-2.3.21-1.37.47-2.38.57.51.12,3.84.3,4.07.48,2.9A48.17,48.17,0,0,0,96.82,75c0-1.74,0-3.48,0-5.21S96.78,66.58,96.76,65Zm-16.3,1.22c.06.22,2-1.92,2.27-1C82.62,64.8,80.76,67.33,80.46,66.17Zm4.23-.5c-.36.09-1.55,1.11-1.74.39.21.8,3-2.68,3.35-1.22C86.18,64.38,85.08,65.57,84.69,65.67Zm-16,.4c-4,.14-9.23-1.86-14-2.36-.7-.07-1.54-.34-2.28-.4-1-.1-2.75.3-2.27.51a7.61,7.61,0,0,0,.75.28c.61.15,1.23.3,1.85.42,2.14.3,4.36.09,6.53.46,3.72.65,6.88,1.41,10.64,1.28,2.62-.08,5.19-.69,7.81-.38.56-.1,1-.25,1.62-.37,2.81-.5-1.19,1.37-1.62.37-7.4,3-14.9-.39-22.25-1a22.73,22.73,0,0,1-2.73-.4,11,11,0,0,1-1.85-.42L49,63.66c.11,0,.22-.12.26-.13,1.3-.48-.55-.47-.44.09l-.8-.2c.11,0,.22-.12.26-.13,1.3-.48-.56-.47-.44.09l-.83-.19a2.71,2.71,0,0,0,.29-.14c1.31-.48-.58-.47-.43.1h0L46.13,63a2.77,2.77,0,0,0,.45-.25c.85-.63-1-.36-.87.18l-.72-.1c.29-.4.55-1,.6-.78-.14-.54-.61.37-1,.75a10.62,10.62,0,0,0-1.59,0,6.54,6.54,0,0,0,.7-.29c1.19-.64-1.49-.46-1.3.29l0,0a7,7,0,0,0-.8.13c.35-6.7.79-13.44,1.15-20.24h0c4.71.15,9.45.23,14.22.18,9.9-.09,19.73-.27,29.55-.47l0,0Q86.81,50,87,57.6l.12,6.79a3.07,3.07,0,0,0-.57-.06C80.64,64.44,74.72,65.87,68.64,66.07Zm18.42-.94h0v.66C86.74,65.58,86.36,65.29,87.06,65.13ZM95,48.54c-.22.25,2,8.65,1,9.71C96.39,57.81,93.82,49.84,95,48.54ZM96.32,74c.48-.5-.71-5.8-.81-7.35s-1.13-6.61-.4-7.41c-.41.45.27,3.62.87,6.89.15.82.29,1.64.41,2.43s.22,1.67.27,2.41C96.76,72.43,96.69,73.58,96.32,74Z"/>
                <polygon class="cls-2" points="32.61 106.53 36.15 105.98 32.48 105.77 32.61 106.53"/>
                <path class="cls-2"
                      d="M96.17,94.41c-.45.33-.35,1.53-.17,2.67s.46,2.24.46,2.24c.25-.17.1-1.35-.08-2.5S96,94.55,96.17,94.41Z"/>
                <path class="cls-2" d="M41.8,62.46c.23.86.54-.56.53-.58C42.27,61.64,41.8,62.46,41.8,62.46Z"/>
            </g>
        </g>
    </g>
</svg>
