<svg xmlns="http://www.w3.org/2000/svg" viewBox="0 0 128 128" width="256" height="256"><defs><style>.cls-1{fill:#131414;}.cls-2,.cls-3{fill:#c63946;}.cls-3{fill-rule:evenodd;}</style></defs><g id="Слой_2" data-name="Слой 2"><g id="Слой_1-2" data-name="Слой 1"><g id="decryptor_aleph" data-name="decryptor aleph"><polygon class="cls-1" points="64 127.02 25.09 120.9 7.25 85.77 1.04 46.85 28.92 19.02 64 1.09 99.08 19.02 126.96 46.85 120.75 85.77 102.91 120.9 64 127.02"/><path class="cls-2" d="M64,128l-39.55-6.22L6.31,86.07,0,46.52,28.35,18.23l.13-.07L64,0,99.65,18.23,128,46.52l-6.31,39.55-.07.14-18.07,35.57Zm-38.27-8L64,126l38.27-6,17.55-34.56,6.11-38.27L98.5,19.82,64,2.18,29.5,19.82,2.07,47.19,8.18,85.46Z"/><path class="cls-2" d="M93.46,26.23,64,11.17,34.54,26.23,11.11,49.61l5.22,32.68,15,29.51L64,116.94l32.69-5.14,15-29.51,5.22-32.68Zm10.72,53.19L91.55,104.29,64,108.63l-27.55-4.34L23.82,79.42,19.43,51.88l19.74-19.7L64,19.48l24.83,12.7,19.74,19.7Z"/><polygon class="cls-1" points="64 98.53 42.69 95.18 32.93 75.94 29.53 54.64 44.8 39.4 64 29.58 83.2 39.4 98.47 54.64 95.07 75.94 85.31 95.18 64 98.53"/><path class="cls-2" d="M64,100.17,41.63,96.65,31.37,76.45,27.8,54.07l16-16L64,27.76,84.17,38.07l16,16L96.63,76.45,86.37,96.65ZM43.76,93.71,64,96.89l20.24-3.18,9.28-18.27L96.75,55.2,82.24,40.72,64,31.4,45.76,40.72,31.25,55.2l3.23,20.24Z"/><line class="cls-1" x1="64" y1="16.87" x2="64" y2="29.58"/><rect class="cls-2" x="62.71" y="16.87" width="2.59" height="12.72"/><line class="cls-1" x1="111.19" y1="51.16" x2="98.47" y2="54.64"/><rect class="cls-2" x="98.24" y="51.6" width="13.18" height="2.59" transform="translate(-10.23 29.47) rotate(-15.27)"/><line class="cls-1" x1="93.16" y1="106.66" x2="85.31" y2="95.18"/><rect class="cls-2" x="87.94" y="93.96" width="2.59" height="13.91" transform="translate(-41.4 68.05) rotate(-34.39)"/><line class="cls-1" x1="64" y1="111.24" x2="64" y2="98.53"/><rect class="cls-2" x="62.71" y="98.53" width="2.59" height="12.71"/><line class="cls-1" x1="34.84" y1="106.66" x2="42.69" y2="95.18"/><rect class="cls-2" x="31.81" y="99.62" width="13.91" height="2.59" transform="translate(-66.4 75.87) rotate(-55.59)"/><line class="cls-1" x1="16.81" y1="51.16" x2="29.53" y2="54.64"/><rect class="cls-2" x="21.87" y="46.31" width="2.59" height="13.18" transform="translate(-33.97 61.31) rotate(-74.72)"/><line class="cls-1" x1="21.46" y1="80.33" x2="32.93" y2="75.94"/><rect class="cls-2" x="21.06" y="76.84" width="12.27" height="2.59" transform="translate(-26.11 14.86) rotate(-20.92)"/><line class="cls-1" x1="106.54" y1="80.33" x2="95.07" y2="75.94"/><rect class="cls-2" x="99.51" y="72" width="2.59" height="12.27" transform="translate(-8.19 144.37) rotate(-69.06)"/><line class="cls-1" x1="37.71" y1="30.3" x2="44.8" y2="39.4"/><rect class="cls-2" x="39.96" y="29.09" width="2.59" height="11.53" transform="translate(-12.71 32.71) rotate(-37.92)"/><line class="cls-1" x1="90.29" y1="30.3" x2="83.21" y2="39.4"/><rect class="cls-2" x="80.98" y="33.56" width="11.53" height="2.59" transform="translate(5.93 81.84) rotate(-52.06)"/><path class="cls-3" d="M71.07,52.71c.12,0-.28-.31-.28-.31C70.37,52.53,71.06,52.71,71.07,52.71Z"/><path class="cls-3" d="M69.73,50.33c-.08,0-.07.05,0,.07S69.74,50.33,69.73,50.33Z"/><path class="cls-3" d="M69.89,80.76c-.48.15.33.56.33.56C70.5,81.23,69.67,80.83,69.89,80.76Z"/><path class="cls-3" d="M75.08,57a1.21,1.21,0,0,0-.08.28.64.64,0,0,0,0,.14c.12.08.53-.6.53-.6C75.29,56.69,75.16,56.84,75.08,57Z"/><path class="cls-3" d="M79.3,53.74c-.06-.06-.11,0-.15,0S79.31,53.75,79.3,53.74Z"/><path class="cls-3" d="M77,75.61s0,0-.12,0l.12,0s-1.76-1-.4-.64c2.07.55.28-.36-.56-.66-2.2-.79-4.44-1.51-6.69-2.22-.15-1.35-.28-2.72-.32-4.11-.06-2.34.91-5.36,1.15-8.14,0-.15,0-.32.07-.49.33-.21.62-.45.53-.54l.87-.35c-.27.36-.47.79-.56.72.27.19.65-.53,1-.91.64-.28,1.27-.57,1.88-.87-.37.24-.75.52-.77.54-1.29,1,1.86-.62,1.48-.88h0c.35-.19.7-.38,1-.58a37.19,37.19,0,0,0,3.46-2c.39-.37-.1-.3-.1-.23a1.37,1.37,0,0,1,.13-.41,11.49,11.49,0,0,0-2,.38c-.09-.37,3.29-1.81,1.7-1.86-2.21-.06,3-2.14.61-1.49-.29.08-1.42.06-1.64.12a67.4,67.4,0,0,0-7.2,3,7.36,7.36,0,0,0,0-.81,2.47,2.47,0,0,0,.14.4c.31.69.23-.87-.14-.75a0,0,0,0,0,0,0,4.34,4.34,0,0,0-.08-.52,8.08,8.08,0,0,0-.33-1.76c-.15-.23-.28,0-.22,0a1,1,0,0,1-.29-.12c-.12.22-.57.88-.47.89-.33,0-.2-1.65-.86-1-.91.91-.58-1.58-1-.49,0,.13-.5.6-.53.7-.46,1.49-.18,3-.49,4.55,0,.19-.07.39-.1.59-2.44.94-4.85,2-7.23,3C55.11,60.47,51,61.78,46.8,63.34l-7.24,2.73L47,69.56c2.09,1,4.22,1.9,6.43,2.67,3.9,1.35,7.78,2.61,11.67,3.87.07,1,.12,1.93.15,2.9,0,1.23.35,2.72,1.22,2.88s0-.18.61-.32a.82.82,0,0,1,.7.11s.18-.46.36-.44-.21.58.55.56c1.38-.05.34-2.3.35-2.86,0,0,0,0,0-.05v.05c0-.05.3-.86.41-.24.18,1,.4.07.39-.32s0-.49,0-.74c2,.67,4.06,1.35,6.11,2.06,2.6.91,5.83,1.73,6.45.93s-.39-.16-.5-.9c-.06-.47.43-.72.46-.65L82.23,79l-.3-.21c-.22-.16-.43-.35-.39-.44.15-.29,1.17.68,1.35-.15C83.21,76.68,78.2,76.05,77,75.61ZM69.71,59.23l0,0c0,.08,0,.16,0,.23l-.06.06C69.68,59.41,69.7,59.32,69.71,59.23ZM69,72.93c0-.11-.07-.22-.1-.32h.23c0,.11,0,.23,0,.34Zm.52-10.43a34.72,34.72,0,0,0-.62,6.18c0,1.12.2,2.24.23,3.36l-.4-.13c-.8-3.87.57-7.78.82-11.62,0-.21,0-.42.07-.63l.06,0A27.6,27.6,0,0,1,69.56,62.5Zm-17.3,4.56-.75-.33.46-.17-.27-.1-.44.16-.18-.08-.14-.05h0l.43-.17h0l.07,0-.07,0,.33.14.13,0-.33-.14.73-.28h0c2.26-.86,4.5-1.74,6.7-2.71,1.1-.48,2.21-.92,3.32-1.34.75-.31,1.51-.59,2.26-.83l1.26-.45c-.31,2.53-1.22,5.11-1.13,7.77,0,.75.06,1.5.11,2.24-3.6-1.09-7.22-2.2-10.85-3.47l-1.8-.68-.13,0c1.09.44,2.2.86,3.37,1.27,3.15,1.11,6.33,1.94,9.43,3.23v0A60.67,60.67,0,0,1,52.26,67.06ZM69.63,78.24c.19,0-.18-.51-.34-.79l.37.12C69.83,77.89,69.9,78.16,69.63,78.24ZM69.45,73c0-.11,0-.23,0-.35.8,0,1.78.09,1.87.44C71.24,72.91,70.26,73,69.45,73Zm4.16,1.22c-.46-.12-2.06-.12-2.18-.58.13.51,4-.06,4.28.87C75.63,74.19,74.11,74.31,73.61,74.19Z"/><path class="cls-3" d="M60.08,63.45c.85-.36,1.89-.7,2.78-1.08,1.16-.5,3.21-1.71,2.6-1.54-.32.08-.63.18-.95.28l-2.26.83c-2.59,1.06-5.19,2.42-7.83,3.46l-2.59,1,.27.11C54.76,65.55,57.49,64.55,60.08,63.45Z"/><path class="cls-3" d="M82.38,76.24c-.1-.37-1.22.2-1.29-.08C81.26,76.79,82.38,76.24,82.38,76.24Z"/></g></g></g></svg>
