<svg xmlns="http://www.w3.org/2000/svg" viewBox="0 0 128 128" width="256" height="256"><defs><style>.cls-1{fill:#131414;}.cls-2,.cls-3{fill:#9d41ed;}.cls-3{fill-rule:evenodd;}</style></defs><g id="Слой_2" data-name="Слой 2"><g id="Слой_1-2" data-name="Слой 1"><g id="decryptor_he" data-name="decryptor he"><polygon class="cls-1" points="64 127.02 25.09 120.9 7.25 85.77 1.04 46.85 28.92 19.02 64 1.09 99.08 19.02 126.96 46.85 120.75 85.77 102.91 120.9 64 127.02"/><path class="cls-2" d="M64,128l-39.55-6.22L6.31,86.07l0-.15L0,46.52,28.35,18.23l.13-.07L64,0,99.65,18.23,128,46.52l-6.31,39.55-.07.14-18.07,35.57Zm-38.27-8L64,126l38.27-6,17.55-34.56,6.11-38.27L98.5,19.82,64,2.18,29.5,19.82,2.07,47.19,8.18,85.46Z"/><path class="cls-2" d="M93.46,26.23,64,11.17,34.54,26.23,11.11,49.61l5.22,32.68,15,29.51L64,116.94l32.69-5.14,15-29.51,5.22-32.68Zm10.72,53.19L91.55,104.29,64,108.63l-27.55-4.34L23.82,79.42,19.43,51.88l19.74-19.7L64,19.48l24.83,12.7,19.74,19.7Z"/><polygon class="cls-1" points="64 98.53 42.69 95.18 32.93 75.94 29.53 54.64 44.8 39.4 64 29.58 83.2 39.4 98.47 54.64 95.07 75.94 85.31 95.18 64 98.53"/><path class="cls-2" d="M64,100.17,41.63,96.65,31.37,76.45,27.8,54.07l16-16L64,27.76,84.17,38.07l16,16L96.63,76.45,86.37,96.65ZM43.76,93.71,64,96.89l20.24-3.18,9.28-18.27L96.75,55.2,82.24,40.72,64,31.4,45.76,40.72,31.25,55.2l3.23,20.24Z"/><line class="cls-1" x1="64" y1="16.87" x2="64" y2="29.58"/><rect class="cls-2" x="62.71" y="16.87" width="2.59" height="12.72"/><line class="cls-1" x1="111.19" y1="51.16" x2="98.47" y2="54.64"/><rect class="cls-2" x="98.24" y="51.6" width="13.18" height="2.59" transform="translate(-10.23 29.47) rotate(-15.27)"/><line class="cls-1" x1="93.16" y1="106.66" x2="85.31" y2="95.18"/><rect class="cls-2" x="87.94" y="93.96" width="2.59" height="13.91" transform="translate(-41.4 68.05) rotate(-34.39)"/><line class="cls-1" x1="64" y1="111.24" x2="64" y2="98.53"/><rect class="cls-2" x="62.71" y="98.53" width="2.59" height="12.71"/><line class="cls-1" x1="34.84" y1="106.66" x2="42.69" y2="95.18"/><rect class="cls-2" x="31.81" y="99.62" width="13.91" height="2.59" transform="translate(-66.39 75.85) rotate(-55.58)"/><line class="cls-1" x1="16.81" y1="51.16" x2="29.53" y2="54.64"/><rect class="cls-2" x="21.87" y="46.31" width="2.59" height="13.18" transform="translate(-33.97 61.31) rotate(-74.72)"/><line class="cls-1" x1="21.46" y1="80.33" x2="32.93" y2="75.94"/><rect class="cls-2" x="21.06" y="76.84" width="12.27" height="2.59" transform="translate(-26.1 14.86) rotate(-20.92)"/><line class="cls-1" x1="106.54" y1="80.33" x2="95.07" y2="75.94"/><rect class="cls-2" x="99.51" y="72" width="2.59" height="12.27" transform="translate(-8.19 144.37) rotate(-69.06)"/><line class="cls-1" x1="37.71" y1="30.3" x2="44.8" y2="39.4"/><rect class="cls-2" x="39.96" y="29.09" width="2.59" height="11.53" transform="translate(-12.71 32.71) rotate(-37.92)"/><line class="cls-1" x1="90.29" y1="30.3" x2="83.21" y2="39.4"/><rect class="cls-2" x="80.98" y="33.56" width="11.53" height="2.59" transform="translate(5.93 81.84) rotate(-52.06)"/><path class="cls-3" d="M64.45,46.78c.09-.11-.47-.24-.47-.24C63.65,46.92,64.45,46.78,64.45,46.78Z"/><path class="cls-3" d="M61.6,44.57c-.06.06,0,.08,0,.1S61.61,44.56,61.6,44.57Z"/><path class="cls-3" d="M79.52,79.8a.25.25,0,0,0,0,.07s-.28-1.22.24-.52c.79,1.07.43-.11.17-.59-2.27-4.14-5.18-8-7.57-12.25-1.59-2.84-2.61-7-4.18-10.55-.23-.53-.42-1.18-.67-1.73s-1.18-1.88-1.1-1.48c0,.2.09.41.15.61.16.47.33.94.5,1.41.67,1.59,1.6,3.12,2.25,4.75a59.11,59.11,0,0,0,3.41,7.88c1,1.84,2.28,3.51,3.13,5.45.26.37.49.64.78,1.06,1.3,1.86-1.09-.51-.78-1.06-4.24-4.49-5.44-10.68-8-16q-.47-1-.84-2a13.87,13.87,0,0,1-.5-1.41c-.16-.46-.31-.92-.46-1.37l.16.14c.72.81,0-.51-.2-.28-.07-.21-.15-.42-.22-.62l.16.15c.72.8,0-.52-.2-.29l-.23-.63a1.72,1.72,0,0,0,.18.16c.72.81,0-.53-.21-.28h0l-.22-.6a2.51,2.51,0,0,0,.29.26c.62.45-.2-.79-.42-.57-.07-.18-.14-.36-.22-.53.3.1.67.14.59.22.21-.23-.41-.34-.71-.49-.19-.4-.38-.78-.6-1.15.18.21.41.43.42.44.75.69-.34-1.18-.63-.84v0c-.13-.21-.26-.41-.4-.6a14.75,14.75,0,0,0-1.47-2c-.29-.19-.28.14-.22.12a1.19,1.19,0,0,1-.35,0c0,.32,0,1.37.12,1.32-.34.15-1.27-1.91-1.49-.77C60,46.8,58.66,43.59,59,45.13c0,.19-.1,1-.07,1.14s.12.43.19.64c-.14.21-.25.42-.35.47s0,0,0,0l0,0s-.59,0-.35-.32c.37-.45-.19-.39-.38-.27-1.65,1.05-2.95,2.72-4.63,3.84-1.12.75-3.15.72-4.66,1.3-.22.09-.53.11-.76.21s-.7.6-.51.62a1.5,1.5,0,0,0,.3,0c.21,0,.43-.07.64-.12.69-.23,1.27-.7,2-.9a10.72,10.72,0,0,0,3.39-1.22A11.14,11.14,0,0,1,55.9,49c.13-.14.21-.28.36-.44.67-.71,0,.83-.36.44-1.28,2.66-4.36,2.36-6.62,3.35a5.13,5.13,0,0,1-.89.28,2.27,2.27,0,0,1-.64.12l-.63.1s0-.09,0-.1c.24-.45-.29-.13-.11.11l-.28.05s0-.1,0-.11c.24-.44-.29-.12-.1.12l-.29,0a.37.37,0,0,0,0-.11c.25-.45-.29-.12-.09.12h0l-.27.07a1,1,0,0,0,.06-.2c.07-.43-.38,0-.2.24l-.23.07c0-.23-.11-.54-.05-.46-.19-.23-.07.28-.06.51a2.45,2.45,0,0,0-.48.26,1.39,1.39,0,0,0,.13-.27c.17-.49-.55,0-.29.36h0a1.2,1.2,0,0,0-.22.23c-.14.17-.65.56-.68.83s.16.27.13.21a2.57,2.57,0,0,1,.1.3c.17.05.76.29.7.19.18.32-.7.67,0,1.11,1,.6-.45,1,.31,1.08.09,0,.58.3.65.3,1,0,1.59-.71,2.51-.87A8.92,8.92,0,0,0,51,56.12c1.48-.74,3.62-.46,5.07-1.45,1.67-1.14,3.14-2.56,4.83-3.72h0c.17.37.32.75.46,1.13.43,1.27.93,2.5,1.48,3.72l0,0c-1.65,1-3,2.72-4.63,3.85-1.12.75-3.15.71-4.66,1.3-.22.08-.53.1-.76.2s-.71.6-.51.62h.29c.22,0,.43-.07.64-.12.7-.23,1.28-.7,2-.9a10.48,10.48,0,0,0,3.39-1.22A10.5,10.5,0,0,1,60.71,58c.13-.15.21-.29.36-.45.66-.71,0,.83-.36.45-1.29,2.66-4.37,2.35-6.63,3.34a5.13,5.13,0,0,1-.89.28,2.2,2.2,0,0,1-.64.12l-.63.1a.34.34,0,0,0,0-.1c.24-.44-.29-.13-.1.11l-.28,0s0-.09,0-.11c.24-.44-.29-.12-.1.12l-.29,0s0-.1,0-.11c.24-.44-.3-.12-.1.12h0l-.27.06a1,1,0,0,0,.06-.19c.07-.44-.38,0-.19.23l-.24.08c0-.24-.11-.55,0-.47-.19-.22-.07.28-.07.51a2.37,2.37,0,0,0-.47.26,1.16,1.16,0,0,0,.13-.26c.17-.5-.56,0-.29.35l0,0a2.39,2.39,0,0,0-.23.22c-.13.18-.64.56-.67.83s.15.27.13.21.08.22.1.31c.17,0,.75.28.7.18.18.33-.7.68,0,1.11,1,.6-.45,1,.32,1.08.09,0,.58.31.65.31,1,0,1.59-.72,2.51-.88a8.74,8.74,0,0,0,2.48-.84c1.49-.74,3.63-.45,5.08-1.44s2.68-2.14,4.07-3.17c.58,1.59,1.09,3.25,1.69,4.88-1.25,1-2.36,2.26-3.72,3.18-1.11.74-3.14.71-4.65,1.29-.22.09-.53.11-.76.21s-.71.6-.51.62a1.4,1.4,0,0,0,.29,0c.22,0,.43-.07.64-.12.69-.23,1.27-.7,2-.9a10.69,10.69,0,0,0,3.4-1.22A10.77,10.77,0,0,1,65.45,67c.14-.14.22-.28.37-.44.66-.71,0,.83-.37.44-1.28,2.66-4.36,2.36-6.62,3.35a5.13,5.13,0,0,1-.89.28,2.2,2.2,0,0,1-.64.12l-.63.1s0-.09,0-.1c.24-.45-.29-.13-.1.11l-.28.05a.36.36,0,0,0,0-.11c.25-.44-.29-.12-.09.12l-.29.05s0-.1,0-.11c.24-.45-.3-.12-.1.12h0l-.27.07a.86.86,0,0,0,.06-.2c.07-.43-.38,0-.2.24l-.23.07c0-.23-.11-.54,0-.46-.19-.23-.07.28-.07.51a2.37,2.37,0,0,0-.47.26c.07-.11.12-.26.13-.26.16-.5-.56,0-.29.35,0,0,0,0,0,0a1.52,1.52,0,0,0-.22.22c-.14.17-.64.56-.68.83s.16.27.13.21a2.26,2.26,0,0,1,.11.3c.17.05.75.29.69.19.19.32-.69.67,0,1.11,1,.6-.45,1,.32,1.08.09,0,.58.3.65.3,1,0,1.58-.71,2.51-.87a8.74,8.74,0,0,0,2.48-.84c1.49-.74,3.63-.46,5.07-1.44,1.13-.77,2.16-1.66,3.22-2.52,2.29,4,4.78,7.76,7.06,11.8C76.75,83.39,78,85.05,79,84.8s-.11-.23.39-.71c.3-.3.78-.27.75-.22s-.12-.66.06-.73.18.82.9.39c1.31-.77-1.14-3-1.51-3.66C79.55,79.88,79.54,79.86,79.52,79.8Zm.13-1.06c.17-.2-.81-.69-1-.94s-1.11-.82-.84-1.13C77.51,77,80.19,78.1,79.65,78.74Zm-2.83-3.82c-.09.1,1.67,1,1.31,1.37C78.28,76.12,76.38,75.43,76.82,74.92ZM58.09,47.06c-.16-.19-.15.54-.23.66s-.14.77-.39.47C57.75,48.52,57.58,46.45,58.09,47.06Zm-.93.77c-.13-.16,0,1.32-.38.83C56.86,48.76,56.84,47.44,57.16,47.83Zm5.74,8.25c-.16-.19-.15.55-.24.66s-.14.77-.39.48C62.55,57.55,62.39,55.48,62.9,56.08Zm-.93.77c-.14-.16,0,1.32-.38.84C61.67,57.78,61.64,56.46,62,56.85Zm4.75,8.93c-.14-.16,0,1.32-.38.83C66.42,66.71,66.39,65.39,66.72,65.78Z"/><path class="cls-3" d="M81.53,81.68c-.37.43.69.52.69.52C82.43,81.94,81.36,81.87,81.53,81.68Z"/><path class="cls-3" d="M54.27,71.13c-.09-.1,0,.36,0,.36C54.57,71.85,54.27,71.14,54.27,71.13Z"/><path class="cls-3" d="M53.86,73.1c0,.07,0,.05,0,0Z"/><path class="cls-3" d="M49.52,62.2c-.09-.1,0,.36,0,.36C49.83,62.92,49.53,62.21,49.52,62.2Z"/><path class="cls-3" d="M49.11,64.17c0,.07.06,0,0,0Z"/><path class="cls-3" d="M44.71,53.18c-.08-.1,0,.36,0,.36C45,53.9,44.72,53.19,44.71,53.18Z"/><path class="cls-3" d="M44.3,55.15c.05.06.06.05.05,0Z"/></g></g></g></svg>
