<svg xmlns="http://www.w3.org/2000/svg" viewBox="0 0 128 128" width="256" height="256">
    <defs>
        <style>.cls-1{fill:#5088f4;}.cls-2{fill-rule:evenodd;}</style>
    </defs>
    <g id="Слой_2" data-name="Слой 2">
        <g id="Слой_1-2" data-name="Слой 1">
            <g id="symbol_teth" data-name="symbol teth">
                <polygon class="cls-1"
                         points="64 128 24.45 121.78 6.31 86.07 0 46.52 28.35 18.23 64 0 99.65 18.23 128 46.52 121.69 86.07 103.55 121.78 64 128"/>
                <path class="cls-2"
                      d="M39.44,103.06a3.68,3.68,0,0,0-.8,0,1.06,1.06,0,0,0-.35,0c.06.2.7.49,1.35.67s1.28.31,1.28.31A1.57,1.57,0,0,0,39.44,103.06Z"/>
                <path class="cls-2"
                      d="M56.45,108.26a3.75,3.75,0,0,1,1.07-.47c-.68-.23-1.9-.69-3.09-1.22a31.44,31.44,0,0,0-3.6-1.63c.11-.18.94,0,2.08.24.57.1,1.21.25,1.88.37s1.34.22,2,.3,1.25.11,1.76.13a4.89,4.89,0,0,0,1.17-.1c.5-.13.36-.41-.83-.95-1.63-.81-1.64-1.17-1-1.28a28.24,28.24,0,0,1,3.48,0,23.18,23.18,0,0,0,3.17-.1c.49-.08.11-.21-1.85-.5a15.83,15.83,0,0,1-2.51-.87c-1-.39-1.93-.87-2.28-1A44.14,44.14,0,0,1,44,94.43c-.53-.39-1.05-.79-1.55-1.21.93-1.2,1.69-2.81,2.17-3.29,0,0,0,0,.1-.08l-.1.08c.07,0,2-1,1.09.26-1.3,1.89.51.76,1.16.09,5.19-5.34,9.54-11.61,14.7-17.32a32.56,32.56,0,0,0,2.48,2.65c6.1,5.72,12.58,10.83,18.75,16.63l.35.31c-.32.23-.64.46-1,.67a46.08,46.08,0,0,1-10.5,5c-3.33,1.16-6.06,1.82-6.61,2.84s-.29,1.08.32,1,1.45-.31,2,.32-.37,1.6-.68,1.65l.46,0c.32,0,.75,0,1.19.1.86.09,1.73.17,1.69.38s-1.18.4-2.24.47-2.06.27-1.94,1.14c.06.41.41.72,1,.94a8.15,8.15,0,0,0,2.37.32,23.41,23.41,0,0,0,7.07-1.3,36.28,36.28,0,0,0,7.06-3.3c1-.59,1.87-1.19,2.6-1.67l1.32-.9a1.83,1.83,0,0,1,.38-.23l-.38.23.37-.17,1.79-1c1.26-.71,2.29-1.15.05.75-1.51,1.24-2.35,1.82-2.6,2.13s0,.23.58,0a24.93,24.93,0,0,0,4.65-3,41.5,41.5,0,0,0,14.37-38.05,41.85,41.85,0,0,0-8.1-19.22,42.6,42.6,0,0,0-16.23-13,46.19,46.19,0,0,0-14.29-4,43.45,43.45,0,0,0-16.32,1.22A42.25,42.25,0,0,0,36.1,33.81a41,41,0,0,0-11,13.83,53,53,0,0,0-2.22,5.11,37.52,37.52,0,0,0-1.55,5.51,33.93,33.93,0,0,0-.49,8.28c.05.63.09,1.2.15,1.68s.14.88.2,1.16c.11.56.19.66.21.06q0-1.66.15-3.33A44.69,44.69,0,0,1,22,61.36a47.55,47.55,0,0,1,1-4.68A46.22,46.22,0,0,1,26,48.34,42.46,42.46,0,0,1,31.86,39,38.52,38.52,0,0,1,40,31.61a41.86,41.86,0,0,1,23.6-6.95,43.78,43.78,0,0,1,23.26,6.89A42.44,42.44,0,0,1,99.7,44a36.58,36.58,0,0,1,6,16.93,40.88,40.88,0,0,1,.62,7.54c-.09,3.3-.44,4.58-.53,4.62s-.08-.26-.06-.75,0-1.21,0-2c0-1.64,0-3.73-.11-5.53,0-.9-.07-1.73-.08-2.4a5.38,5.38,0,0,1,.13-1.45A46.6,46.6,0,0,0,94.07,38.78,43.27,43.27,0,0,0,72.66,26.35a41.57,41.57,0,0,0-25.14,1.86,40.51,40.51,0,0,0-11.09,6.72,40,40,0,0,0-8.42,10,46.69,46.69,0,0,0-5,11.76,54.54,54.54,0,0,0-1.48,9.43,43.72,43.72,0,0,0,.37,8.33c-.14-.5-.33-1.06-.38-1.24A11.68,11.68,0,0,0,20.92,71c-.07,0,0,.5.07,1.22a15.72,15.72,0,0,0,.52,2.25c.2.63.42,1,.53.85.19,1.14.41,2.28.69,3.4,0,.18.1.35.15.53L22.79,79l-.43-1a13.82,13.82,0,0,0-.87-2.17,3.12,3.12,0,0,0,.2,1.21,20.32,20.32,0,0,0,.77,2.2c.29.61.54,1,.64.78a40.89,40.89,0,0,0,1.33,4c-.26-.49-.65-1.1-.73-1.28a15.29,15.29,0,0,0-1.1-2.07c-.07,0,0,.51.34,1.19.52,1.38,1.6,3.29,1.73,2.81v0c.51,1.24,1.07,2.44,1.69,3.61l-.18-.27c-.3-.42-.62-.83-.82-1.13L25,86.31c-1.31-1.79-.83-.61,0,.91a17,17,0,0,0,1.47,2.12c.46.53.8.83.85.64.63,1,1.29,2,2,3l-.21-.14C28,92,26.83,91.34,26.88,91c-.05.34.23.74.66,1.17a11,11,0,0,0,1.6,1.29l1.32.94a37.89,37.89,0,0,0,5.74,5.79l-.45-.33C34.47,99,33.27,98,33.18,97.93,32,97,31.72,96.85,32,97.2a8.72,8.72,0,0,0,.7.82c.35.35.78.76,1.26,1.19,1.91,1.7,4.62,3.37,4.47,2.72a.57.57,0,0,0-.14-.17,34.82,34.82,0,0,0,3.88,2.38,45.07,45.07,0,0,0,7.15,3.12,27.88,27.88,0,0,0,7.11,1.51C58.29,108.77,56.55,108.14,56.45,108.26ZM46.7,89.67c.48.25.61-1.76.92-2.22s.63-2.37,1.37-2C48.16,85,48.22,90.45,46.7,89.67Zm3.2-3.75c.4.21.22-3.58,1.43-3C51.1,82.84,50.88,86.43,49.9,85.92Zm4.4-5.49c-.46.63-.77,1.18-1.29,1.87-2.33,3.13.09-2.23,1.29-1.87A29.81,29.81,0,0,1,60.82,72c.19.24.38.49.58.73C59,75.3,57,78.19,54.3,80.43ZM67.92,66.29l.55-.4.34.39-.56.42Zm11.43,10a33.31,33.31,0,0,1-10.9-9.39l.58-.41c.76.85,1.56,1.68,2.44,2.51,2.61,2.48,5.58,4.51,7.88,7.29.63.46,1.17.77,1.87,1.29C84.34,80,79,77.53,79.35,76.33Zm2.52,3c-.12.23,3.47.45,3,1.43C85.05,80.33,81.25,80.51,81.87,79.3ZM86.37,83c-.42-.28-2.37-.63-2-1.37-.43.83,5,.77,4.21,2.29C88.83,83.45,86.83,83.32,86.37,83Zm11.55,8.62A24.08,24.08,0,0,1,95.08,96a10.68,10.68,0,0,1-1.41,1.39,2,2,0,0,1-1.13.5c.19,0,.54-.27.95-.72a20.31,20.31,0,0,0,1.34-1.74c.93-1.35,1.81-2.91,2.33-3.68a30.59,30.59,0,0,0,2.06-3.82c.39-.75.73-1.49,1.06-2.06s.62-1,.9-1.08C100.58,85,99.67,88.38,97.92,91.63Zm6.52-12.7a20.42,20.42,0,0,1-.8,3.51c-.37,1-.73,1.7-1.11,1.84.31-.12.79-2.49,1.1-4.9.18-1.21.29-2.44.48-3.42a3.34,3.34,0,0,1,.79-2C104.75,74,104.82,76.42,104.44,78.93ZM95,57.16a32.56,32.56,0,0,1,1,3.89,33.64,33.64,0,0,1,.46,4,30.56,30.56,0,0,1-.6,8.09,31.09,31.09,0,0,1-6.29,13.35,3.73,3.73,0,0,1-.71-.52s0,0-.09-.1a.28.28,0,0,0,.09.1c0-.07-1-1.95.25-1.09,1.89,1.31.77-.51.09-1.16-5.78-5.63-12.67-10.25-18.74-16-.42-.4-.84-.85-1.26-1.31,3-2.13,6.36-4.27,9.19-6.66.74-.63,1.76-1.23,2.53-1.9,1-.86,2.44-2.91,1.81-2.61q-.5.24-1,.51c-.71.48-1.42,1-2.12,1.47-2.31,1.84-4.31,4.17-6.71,6l-4,3-.33-.4c2.76-2,5.53-4,8-6.2a36.76,36.76,0,0,1,3-2.34,16.34,16.34,0,0,1,2.12-1.47l2.07-1.37c-.07.13-.12.3-.15.35-.88,1.64.91-.16.36-.49l.93-.62c-.07.13-.12.3-.15.35-.88,1.64.92-.17.36-.49l.95-.66c-.08.13-.14.33-.17.38-.89,1.65,1-.19.35-.5h0l.89-.64a4.6,4.6,0,0,0-.25.63c-.33,1.33,1.23-.66.7-1l.77-.62c0,.59.24,1.29,0,1.19.56.29.31-.88.34-1.51.56-.49,1.08-1,1.57-1.51a8.14,8.14,0,0,0-.45.91c-.55,1.38,1.08-.3,1.18-1.13l.59.87A31.5,31.5,0,0,1,95,57.16ZM67.4,34.71a35.39,35.39,0,0,1,12.85,4.34,31.43,31.43,0,0,1,4.21,2.85,34.72,34.72,0,0,1-4.26,3.65,69,69,0,0,0-8.3,6.69,66.52,66.52,0,0,1-8.56,6.29c-1.48-2.16-3-4.34-4.65-6.29-.63-.74-1.23-1.76-1.9-2.54-.86-1-2.91-2.44-2.61-1.8q.24.49.51,1c.47.71,1,1.42,1.46,2.12,1.85,2.31,4.17,4.31,6,6.71l.82,1.1-.4.27c-1.3-1.76-2.63-3.49-4.06-5.11-.83-1-1.6-2-2.34-3a18.12,18.12,0,0,1-1.46-2.12c-.47-.7-.92-1.39-1.37-2.07a2.74,2.74,0,0,0,.35.14c1.63.89-.17-.91-.49-.35l-.63-.93c.14.07.31.12.35.14,1.64.89-.16-.91-.49-.35-.21-.32-.43-.64-.66-.95.14.08.34.13.39.16,1.65.9-.19-.94-.5-.34v0c-.21-.3-.43-.6-.65-.89a3.26,3.26,0,0,0,.64.24c1.32.33-.66-1.22-1-.7L50,42.21c.59,0,1.29-.23,1.19,0,.29-.56-.88-.3-1.51-.34-.49-.55-1-1.08-1.51-1.56a9.34,9.34,0,0,0,.91.44c1.65.66-1.09-1.81-1.5-1a.15.15,0,0,0,0,.07,11.57,11.57,0,0,0-1-.75l-.3-.22a31.91,31.91,0,0,1,7.42-3.17A33.92,33.92,0,0,1,67.4,34.71ZM30.74,68.08a35.62,35.62,0,0,1,2.55-14.42,30.28,30.28,0,0,1,6-9.29c1.66,2.06,3.71,3.8,5.22,6.05a69,69,0,0,0,6.69,8.3,48,48,0,0,1,4.45,5.82l-.6.6C49.3,71.25,44.19,77.73,38.4,83.91a17.38,17.38,0,0,0-2,2.57,27.71,27.71,0,0,1-2.24-3.92A37.11,37.11,0,0,1,30.74,68.08Z"/>
                <path class="cls-2" d="M58.07,108c-.09-.19-.31-.21-.55-.16A2.59,2.59,0,0,0,58.07,108Z"/>
                <path class="cls-2" d="M66.73,104.05h-.06A.06.06,0,0,0,66.73,104.05Z"/>
                <path class="cls-2"
                      d="M72.27,108.62c1-.49,1.83-1.05,2.15-.88-.73-.38-1.81,0-2.76.51-.47.26-.91.49-1.23.7l-.53.34C70.31,109.56,71.33,109.15,72.27,108.62Z"/>
                <path class="cls-2" d="M48.2,38.86c.13-.25-1-.06-1-.06C46.76,39.7,48.19,38.89,48.2,38.86Z"/>
            </g>
        </g>
    </g>
</svg>
