<svg xmlns="http://www.w3.org/2000/svg" viewBox="0 0 128 128" width="256" height="256"><defs><style>.cls-1{fill:#131414;}.cls-2,.cls-3{fill:#6e49ff;}.cls-3{fill-rule:evenodd;}</style></defs><g id="Слой_2" data-name="Слой 2"><g id="Слой_1-2" data-name="Слой 1"><g id="decryptor_zayin" data-name="decryptor zayin"><polygon class="cls-1" points="64 127.02 25.09 120.9 7.25 85.77 1.04 46.85 28.92 19.02 64 1.09 99.08 19.02 126.96 46.85 120.75 85.77 102.91 120.9 64 127.02"/><path class="cls-2" d="M64,128l-39.55-6.22L6.31,86.07,0,46.52,28.35,18.23l.13-.07L64,0,99.65,18.23,128,46.52l-6.31,39.55-.07.14-18.07,35.57Zm-38.27-8L64,126l38.27-6,17.55-34.56,6.11-38.27L98.5,19.82,64,2.18,29.5,19.82,2.07,47.19,8.18,85.46Z"/><path class="cls-2" d="M93.46,26.23,64,11.17,34.54,26.23,11.11,49.61l5.22,32.68,15,29.51L64,116.94l32.69-5.14,15-29.51,5.22-32.68Zm10.72,53.19L91.55,104.29,64,108.63l-27.55-4.34L23.82,79.42,19.43,51.88l19.74-19.7L64,19.48l24.83,12.7,19.74,19.7Z"/><polygon class="cls-1" points="64 98.53 42.69 95.18 32.93 75.94 29.53 54.64 44.8 39.4 64 29.58 83.2 39.4 98.47 54.64 95.07 75.94 85.31 95.18 64 98.53"/><path class="cls-2" d="M64,100.17,41.63,96.65,31.37,76.45,27.8,54.07l16-16L64,27.76,84.17,38.07l16,16L96.63,76.45,86.37,96.65ZM43.76,93.71,64,96.89l20.24-3.18,9.28-18.27L96.75,55.2,82.24,40.72,64,31.4,45.76,40.72,31.25,55.2l3.23,20.24Z"/><line class="cls-1" x1="64" y1="16.87" x2="64" y2="29.58"/><rect class="cls-2" x="62.71" y="16.87" width="2.59" height="12.72"/><line class="cls-1" x1="111.19" y1="51.16" x2="98.47" y2="54.64"/><rect class="cls-2" x="98.24" y="51.6" width="13.18" height="2.59" transform="translate(-10.23 29.47) rotate(-15.27)"/><line class="cls-1" x1="93.16" y1="106.66" x2="85.31" y2="95.18"/><rect class="cls-2" x="87.94" y="93.96" width="2.59" height="13.91" transform="translate(-41.4 68.05) rotate(-34.39)"/><line class="cls-1" x1="64" y1="111.24" x2="64" y2="98.53"/><rect class="cls-2" x="62.71" y="98.53" width="2.59" height="12.71"/><line class="cls-1" x1="34.84" y1="106.66" x2="42.69" y2="95.18"/><rect class="cls-2" x="31.81" y="99.62" width="13.91" height="2.59" transform="translate(-66.4 75.87) rotate(-55.59)"/><line class="cls-1" x1="16.81" y1="51.16" x2="29.53" y2="54.64"/><rect class="cls-2" x="21.87" y="46.31" width="2.59" height="13.18" transform="translate(-33.97 61.31) rotate(-74.72)"/><line class="cls-1" x1="21.46" y1="80.33" x2="32.93" y2="75.94"/><rect class="cls-2" x="21.06" y="76.84" width="12.27" height="2.59" transform="translate(-26.11 14.86) rotate(-20.92)"/><line class="cls-1" x1="106.54" y1="80.33" x2="95.07" y2="75.94"/><rect class="cls-2" x="99.51" y="72" width="2.59" height="12.27" transform="translate(-8.19 144.37) rotate(-69.06)"/><line class="cls-1" x1="37.71" y1="30.3" x2="44.79" y2="39.4"/><rect class="cls-2" x="39.96" y="29.09" width="2.59" height="11.53" transform="translate(-12.71 32.71) rotate(-37.92)"/><line class="cls-1" x1="90.29" y1="30.3" x2="83.2" y2="39.4"/><rect class="cls-2" x="80.98" y="33.56" width="11.53" height="2.59" transform="translate(5.93 81.84) rotate(-52.06)"/><path class="cls-3" d="M53.76,78.38c0-.15-.23.37-.23.37C53.65,79.29,53.77,78.39,53.76,78.38Z"/><path class="cls-3" d="M52,80.19c0,.1,0,.08,0,0S52,80.18,52,80.19Z"/><path class="cls-3" d="M76.78,82.7a1.56,1.56,0,0,1,.06-.91s-.38-.23-.37-.46.47.26.41-.73c-.1-1.79-1.83-.37-2.27-.37h0s-.69-.36-.21-.53c.74-.26,0-.51-.27-.49-2.45.14-4.9,1-7.41,1.3-.16-.59-.45-1.19-.46-1.44,0,0,0,0,0,0v0c0-.06.36-.88.53-.27.27,1,.51.06.49-.34C67.09,75,66.07,71.56,65.81,68c-.17-2.37,1-5.47,1.2-8.3,0-.42.18-.91.21-1.35S67,56.72,66.85,57a3.34,3.34,0,0,0-.17.44c-.08.37-.16.73-.22,1.1-.14,1.26,0,2.57-.16,3.85a27.35,27.35,0,0,0-.58,6.29,28.34,28.34,0,0,1,.4,4.58c.08.33.18.58.27,1,.37,1.64-.89-.67-.27-1-2.07-4.28-.07-8.77.14-13.11a12.64,12.64,0,0,1,.2-1.61,6.12,6.12,0,0,1,.22-1.1l.24-1.05c0,.06.08.13.09.15.33.75.29-.33-.06-.25,0-.16.07-.32.11-.48a.94.94,0,0,0,.08.15c.33.75.29-.34-.06-.25,0-.17.07-.33.1-.5a1.22,1.22,0,0,0,.09.17c.33.76.29-.36-.07-.26h0c0-.16.06-.31.08-.47a1.54,1.54,0,0,0,.17.26c.42.49.21-.58-.13-.5,0-.15,0-.29,0-.43.26.16.63.3.51.34.34-.1-.25-.36-.49-.55a5.76,5.76,0,0,0,0-.93,3.34,3.34,0,0,0,.2.4c.29.48.31-.13.13-.5.29.05.58.1.86.13s.72.19,1.06.22,1.26-.24,1-.36a2.81,2.81,0,0,0-.35-.17l-.86-.23a12.47,12.47,0,0,0-1.62-.08,2.15,2.15,0,0,0-.28-.15c-.18.05-.2.1-.14.14h-.12L67.21,52c.32,0,.64.09,1,.11a7.89,7.89,0,0,1,1.26.21,3.32,3.32,0,0,1,.86.23l.82.25-.11.09c-.59.32.26.29.2-.06l.37.11a.81.81,0,0,0-.12.08c-.58.32.27.29.2-.06l.39.1-.13.1c-.59.32.28.29.2-.07h0l.37.08a1.11,1.11,0,0,0-.2.17c-.38.41.45.21.39-.13l.33.05c-.12.26-.23.62-.26.5.08.34.28-.24.43-.48a3.56,3.56,0,0,0,.73,0,2.9,2.9,0,0,0-.32.2c-.53.42.7.27.59-.21a0,0,0,0,0,0,0l.41-.11c.29-.11,1.16-.23,1.38-.49s0-.36,0-.29A2.3,2.3,0,0,1,76,52c-.18-.15-.72-.72-.72-.58,0-.44,1.29-.31.74-1.15-.76-1.16,1.23-.8.35-1.29-.11-.06-.5-.65-.58-.69-1.2-.55-2.4-.14-3.62-.5a14.74,14.74,0,0,0-3.57-.52c-2.3-.06-4.69-1.56-7.1-1.34-2.79.25-5.51.9-8.34,1.15-1,.09-2.13.53-2.22,1.66s.14,0,.28.79a1.52,1.52,0,0,1-.06.9s.38.23.37.46-.47-.26-.41.74c.1,1.78,1.83.36,2.27.36,0,0,0,0,0,0h0s.69.37.21.53c-.74.26,0,.52.27.5,2.7-.16,5.39-1.17,8.18-1.39h0a27.44,27.44,0,0,1-.2,3.37,22.17,22.17,0,0,0-.49,4.56c0,2.94-1.51,6-1.27,9.07.28,3.58,1,7.07,1.23,10.68,0,.14,0,.27,0,.41a14,14,0,0,0-1.95-.39c-.33,0-.72-.18-1.06-.21s-1.26.23-1,.36l.35.16c.29.09.57.17.86.24.94.14,1.92,0,2.88.16l.06.28a13.87,13.87,0,0,0-1.68-.24,7.86,7.86,0,0,1-1.26-.2,3.8,3.8,0,0,1-.86-.24l-.82-.25.11-.08c.59-.33-.26-.29-.2.06l-.37-.11.12-.09c.58-.32-.27-.29-.2.06l-.39-.1a.92.92,0,0,0,.13-.09c.59-.33-.28-.29-.2.06h0L55.53,79a1.34,1.34,0,0,0,.2-.16c.38-.42-.45-.22-.39.12l-.33,0c.12-.25.23-.62.26-.5-.08-.34-.28.24-.43.49a3.56,3.56,0,0,0-.73,0,2.9,2.9,0,0,0,.32-.2c.53-.42-.7-.26-.59.21,0,0,0,0,0,0a1.91,1.91,0,0,0-.41.11c-.29.1-1.16.22-1.38.48s0,.37,0,.29a2.09,2.09,0,0,1-.08.37c.18.15.72.72.72.58,0,.44-1.29.31-.74,1.15.76,1.16-1.23.8-.35,1.3.11.06.5.64.58.68,1.2.55,2.4.14,3.62.5A13.82,13.82,0,0,0,59.4,85c2.3.06,4.69,1.56,7.1,1.34,2.79-.25,5.51-.89,8.34-1.15,1-.08,2.13-.53,2.22-1.66S76.92,83.47,76.78,82.7ZM67,78.35c.28-.08-.49-.7-.56-.94s-.73-.88-.28-1C65.62,76.55,67.87,78.09,67,78.35Zm-1-3.41c-.14,0,1.25,1.15.66,1.31C66.91,76.18,65.27,75.14,66,74.94ZM54,52.69c.07.29.54-.48.72-.55s.69-.72.79-.27C55.36,51.37,54.17,53.61,54,52.69Zm1.64-.28c0,.25.85-1.37,1-.65C56.58,51.62,55.73,53,55.6,52.41Zm5.9-.88a18.05,18.05,0,0,1-3.58.37c-.26.07-.45.17-.74.25-1.28.37.52-.87.74-.25a6.55,6.55,0,0,1,4.24-.85c0,.15,0,.3-.07.45Zm8.58,28.8a6.1,6.1,0,0,1-2.42.84c-.2-.12-.43-.25-.29-.29-.28.08-.2.21,0,.32l-.52,0a2.13,2.13,0,0,0,0-.55,13.82,13.82,0,0,1,3.32-.34c.26-.08.45-.18.74-.26C72.1,79.7,70.3,81,70.08,80.33Zm1.3.13c0,.14.89-1.24,1-.65C72.35,79.56,71.55,81.19,71.38,80.46Zm1.94-.38c-.17.06-.69.72-.79.27.11.5,1.3-1.74,1.51-.82C74,79.24,73.5,80,73.32,80.08Z"/><path class="cls-3" d="M76,79.13c.14.62.43-.45.43-.44C76.37,78.32,76.08,79.41,76,79.13Z"/><path class="cls-3" d="M74.24,53.85c0,.15.23-.38.23-.38C74.35,52.93,74.23,53.83,74.24,53.85Z"/><path class="cls-3" d="M76.05,52c0-.09,0-.08,0,0S76.05,52.05,76.05,52Z"/><path class="cls-3" d="M52,53.09c-.14-.62-.43.45-.43.45C51.63,53.9,51.92,52.82,52,53.09Z"/></g></g></g></svg>
