<svg xmlns="http://www.w3.org/2000/svg" viewBox="0 0 128 128" width="256" height="256">
    <defs>
        <style>.cls-1{fill:#d64b3d;}.cls-2{fill-rule:evenodd;}</style>
    </defs>
    <g id="Слой_2" data-name="Слой 2">
        <g id="Слой_1-2" data-name="Слой 1">
            <g id="symbol_taw" data-name="symbol taw">
                <polygon class="cls-1"
                         points="64 128 24.45 121.78 6.31 86.07 0 46.52 28.35 18.23 64 0 99.65 18.23 128 46.52 121.69 86.07 103.55 121.78 64 128"/>
                <path class="cls-2" d="M92.29,44.82c.29.11,0-1.1,0-1.11C91.29,43.32,92.27,44.81,92.29,44.82Z"/>
                <path class="cls-2" d="M94,37.67c-.17-.09-.2,0-.18.1C94,37.72,94,37.68,94,37.67Z"/>
                <path class="cls-2" d="M39.35,103.68c.69.27-.14-1.92.38-1.72C38.56,101.51,39.36,103.68,39.35,103.68Z"/>
                <path class="cls-2" d="M45.2,36.55c.15-.27-1.1-.21-1.1-.21C43.55,37.3,45.18,36.57,45.2,36.55Z"/>
                <path class="cls-2"
                      d="M89.26,95.34s0,0-.09-.12a.47.47,0,0,0,.09.12c0-.08-1-2.34.32-1.2,2.08,1.73.88-.48.15-1.31-6.32-7.14-13.89-13.3-20.51-20.63a36.33,36.33,0,0,1-2.91-3.75c3.69-3.23,8-6.49,11.51-10,.8-.81,1.91-1.63,2.75-2.48,1.08-1.1,2.6-3.6,1.9-3.18-.36.22-.71.46-1,.7-.77.63-1.54,1.27-2.3,1.93-2.5,2.39-4.63,5.27-7.23,7.62-2,1.83-3.92,3.49-5.76,5.2l-.33-.5c3.44-3.06,7-6,10.11-9.29,1-1.06,2.1-2.06,3.21-3a23.5,23.5,0,0,1,2.3-1.93l2.25-1.82c-.07.16-.12.36-.15.42-.91,2,1-.31.38-.6l1-.83c-.07.16-.12.36-.15.42-.92,2,1-.31.38-.6l1-.87c-.08.16-.14.4-.17.46-.92,2,1-.35.36-.61h0l1-.85a4.74,4.74,0,0,0-.25.75c-.31,1.54,1.34-.9.74-1.2l.83-.8c.07.66.32,1.43.1,1.34.64.25.3-1,.31-1.75A24.58,24.58,0,0,0,90.72,45c-.24.49-.44,1-.46,1.08-.66,1.95,2-1.47,1.09-1.82a.09.09,0,0,0-.07,0c.28-.4.55-.8.79-1.21.52-.88,2.37-3.32,2.53-4.24.12-.7-.52-.46-.43-.35a3.32,3.32,0,0,1-.33-.7c-.61.26-2.65.93-2.46,1.11-.6-.58,2.57-3.8.16-3.48-3.34.45,1.74-4.27-1-2.61-.32.19-2,.44-2.27.6-3.53,2.39-5.75,6.08-9.06,8.79a85.17,85.17,0,0,0-9,8.63,89.16,89.16,0,0,1-9.64,8.51c-1.31-2.14-2.66-4.26-4.1-6.22-.68-.93-1.32-2.16-2-3.13-.94-1.26-3.19-3.16-2.88-2.39.17.39.35.77.54,1.15.51.86,1,1.73,1.58,2.59,2,2.85,4.51,5.42,6.46,8.36l-.41.33c-1.13-1.71-2.29-3.4-3.53-5-.9-1.19-1.73-2.42-2.52-3.68a22.12,22.12,0,0,1-1.58-2.59c-.49-.85-1-1.7-1.47-2.53a4.41,4.41,0,0,0,.39.21c1.81,1.23-.15-1-.54-.47-.22-.38-.44-.76-.67-1.13.15.09.34.17.39.21,1.81,1.22-.15-1.06-.54-.47L49,43.39a4.08,4.08,0,0,0,.42.23c1.83,1.24-.18-1.09-.54-.45v0l-.69-1.09a4,4,0,0,0,.7.36c1.48.55-.7-1.48-1.08-.93-.22-.32-.44-.64-.67-1,.67,0,1.46-.09,1.34.12.35-.6-1-.47-1.69-.59a22.74,22.74,0,0,0-1.63-2c.45.31,1,.6,1,.62,1.84,1-1.16-2.2-1.64-1.36a.07.07,0,0,0,0,.06c-.35-.34-.71-.67-1.08-1-.8-.65-2.94-2.88-3.83-3.18-.68-.24-.54.44-.41.36a2.87,2.87,0,0,1-.75.22c.17.65.53,2.78.74,2.62-.67.51-3.39-3.16-3.43-.72-.06,3.4-4-2.41-2.75.56.15.36.14,2.09.27,2.36,1.85,3.88,5.17,6.68,7.37,10.41A88.81,88.81,0,0,0,47.86,59.4a63.33,63.33,0,0,1,4.87,7.29c-.26.29-.51.59-.75.89-6.12,7.62-11.54,15.6-17.73,23.31-2.13,2.65-4.22,6.28-2.88,8s.35-.38,1.73.3c.86.41,1.24,1.39,1.1,1.36s1.18-.68,1.49-.36c.5.53-1.45.9,0,2.07,2.67,2.09,4.73-4.25,5.75-5.45,0,0,0,0,.11-.11l-.11.11c.09,0,2.14-1.37,1.23.14-1.37,2.3.61.79,1.31,0,5.27-6.36,9.66-13.57,14.8-20.36a40,40,0,0,0,3,3.68c6.66,7.3,13.77,14,20.51,21.34,2.31,2.54,5.6,5.2,7.53,4.14s-.32-.41.55-1.67c.54-.79,1.57-1,1.51-.88s-.49-1.28-.13-1.53c.61-.42.68,1.58,2.06.29C96.29,99.61,90.3,96.55,89.26,95.34ZM65.61,67.87c.11.17.23.33.34.49l-.48.46-.35-.51ZM43.77,96.26c.55.22.61-2.06.93-2.62s.6-2.75,1.45-2.42C45.2,90.85,45.51,96.94,43.77,96.26Zm3.41-4.64c.46.18.09-4.06,1.47-3.53C48.39,88,48.3,92.05,47.18,91.62Zm4.67-6.76c-.49.77-.81,1.42-1.35,2.27-2.47,3.83,0-2.52,1.35-2.27A36.63,36.63,0,0,1,58,75.36l.65.93C56.42,79.2,54.47,82.28,51.85,84.86Zm27.07-1.73c-5.67-3.6-9.68-8.68-13.3-14.08l.51-.44a58.5,58.5,0,0,0,4.18,5.21c2.85,3.15,6.12,5.85,8.61,9.31.69.61,1.29,1,2,1.71C84.41,87.9,78.47,84.44,78.92,83.13Zm2.73,3.69c-.14.25,3.88,1,3.29,2C85.18,88.42,80.91,88.11,81.65,86.82Zm2.73,3C83.88,90.69,90,91.36,89,93c.29-.51-2-.93-2.47-1.35S83.93,90.6,84.38,89.81Z"/>
                <path class="cls-2" d="M38.42,33.88c0-.14-.06-.21-.07-.19S38.3,33.88,38.42,33.88Z"/>
                <path class="cls-2" d="M94.1,97.9c-.63,1.09,1.65.65,1.64.66C96.11,97.91,93.82,98.39,94.1,97.9Z"/>
            </g>
        </g>
    </g>
</svg>
