<svg xmlns="http://www.w3.org/2000/svg" viewBox="0 0 128 128" width="256" height="256">
    <defs>
        <style>.cls-1{fill:#8441ed;}.cls-2{fill-rule:evenodd;}</style>
    </defs>
    <g id="Слой_2" data-name="Слой 2">
        <g id="Слой_1-2" data-name="Слой 1">
            <g id="symbol_waw" data-name="symbol waw">
                <polygon class="cls-1"
                         points="64 128 24.45 121.78 6.31 86.07 0 46.52 28.35 18.23 64 0 99.65 18.23 128 46.52 121.69 86.07 103.55 121.78 64 128"/>
                <path class="cls-2" d="M40.15,44.73c.24-.12-.65-.95-.65-.95C38.59,44.23,40.12,44.75,40.15,44.73Z"/>
                <path class="cls-2" d="M37.37,37.23c.07-.14.1-.23.08-.22S37.3,37.13,37.37,37.23Z"/>
                <path class="cls-2"
                      d="M96.91,37.16c-.58-2.09-1.47-3.62-2.46-3.8s-1,0-.9.33.38.76-.23,1.1c-.77.42-1.65-.13-1.56-.22a1,1,0,0,1,0,.26c0,.16-.06.37-.11.59-.11.42-.26.84-.46.83-.64,0,.2-2.12-1.44-1.77s-1.36,2.3-1,4.52a44.8,44.8,0,0,1,.76,5.26s0,0,0,.18c0,0,0-.11,0-.18-.09.14-.84,2.87-1,.79-.25-3.2-.81-.28-.91,1-.44,5.52-1.45,11-4.26,15.56a19.29,19.29,0,0,1-5.48,5.84,22.14,22.14,0,0,1-7.78,3.32,29,29,0,0,1-12.93-.62c-.56-.11-1.08-.34-1.62-.5s-1.09-.33-1.59-.57l-1.52-.66c-.51-.2-1-.51-1.44-.75a22.89,22.89,0,0,1-4.91-3.6,16.88,16.88,0,0,1-1.19-1.39c-.35-.53-.7-1.05-1.05-1.53a10.58,10.58,0,0,0-.8-1.07c-.29-.38-.57-.79-.85-1.11-.53-.66-.9-1.11-.82-.68a10.33,10.33,0,0,0,.39,1.31q.28.7.63,1.38a17,17,0,0,0,1,1.69,12.71,12.71,0,0,0,2,2.13,26,26,0,0,0,6.94,4.11l1.18.47a9.93,9.93,0,0,0,1.19.43l1.21.36a10.32,10.32,0,0,0,1.21.33c.83.17,1.65.36,2.47.51l2.52.31a27.43,27.43,0,0,0,10.29-.9,20.2,20.2,0,0,0,6.49-3.35,31.6,31.6,0,0,0,5.09-5l.37-.65c.1-.22.2-.44.29-.66.18-.45.42-.87.62-1.42a13,13,0,0,1,.55-1.27c.12-.27.2-.39.25-.38s.07.52-.11,1.17c-.09.32-.2.69-.33,1.06a9.14,9.14,0,0,1-.51,1c-.35.66-.8,1.11-1.13,1.11A14.44,14.44,0,0,1,81,66.49a15.52,15.52,0,0,1-2,1.77c-.37.26-.73.54-1.11.78l-1.2.65A23,23,0,0,1,66,72.07a37.84,37.84,0,0,1-10.81-1.61,26.88,26.88,0,0,1-8.91-4.6,13.29,13.29,0,0,1-2.93-3.2,11.63,11.63,0,0,1-1.63-3.07,22.12,22.12,0,0,1-1-3c.1.15.25.29.28.34.7.9.72.59.48.18s-.62-1-.85-.83q-.15-.6-.27-1.2l0-.16c.1.15.24.31.27.36.63,1,.68.65.47.22s-.55-1.08-.8-.9c-.09-.48-.17-1-.25-1.43.09.17.25.37.28.43.57,1,.64.7.45.25s-.5-1.15-.76-.95h0c-.07-.46-.14-.92-.19-1.38a4.94,4.94,0,0,0,.43.71c.54.63.48.2.3-.36s-.56-1.21-.82-1.08c-.05-.43-.09-.85-.13-1.27l.07.06c.5.4,1.1.7.93.82.37-.25-.09-.64-.57-1.05a4.64,4.64,0,0,1-.5-.47c-.09-.95-.18-1.9-.28-2.83l0,.09c.17.55.38,1.08.39,1.12.47,1,.49.35.35-.53s-.45-2-.85-1.8l0,0C39.1,44.49,39,44,39,43.41s-.17-1.76-.24-2.92a15.5,15.5,0,0,0-.27-2.79c-.25-.74-.61-.08-.49,0a2.4,2.4,0,0,1-.58-.44c-.13.27-.4.76-.65,1.28-.38.78-.71,1.58-.58,1.6-.36,0-.41-1.46-.5-2.6s-.26-2-1.1-1c-1.15,1.49-1.35.07-1.35-1.3s.2-2.65-.57-.72c-.18.45-1.37,2-1.47,2.44a27.67,27.67,0,0,0-.83,8.44c.1,2.88.46,5.76.83,8.72a28.72,28.72,0,0,0,2.45,8.61,25.42,25.42,0,0,0,5.45,7.64,36.74,36.74,0,0,0,7.49,5.55,41.34,41.34,0,0,0,8.68,3.45c1,.25,2.05.47,3.08.67.43,3.2,1.51,6.43,1.7,9.73.15,2.65-2,6-2.46,9.2-.08.46-.35,1-.43,1.49s.33,1.81.55,1.49a4.41,4.41,0,0,0,.3-.5c.16-.4.31-.8.44-1.21.31-1.4.08-2.85.47-4.27.67-2.45,1.47-4.52,1.33-7-.1-1.71-.75-3.4-.43-5.11-.11-.37-.27-.65-.39-1.06-.54-1.84,1.44.77.39,1.06,3.24,4.83-.37,9.76-1,14.57a9.45,9.45,0,0,1-.41,1.79,4.64,4.64,0,0,1-.44,1.21c-.15.39-.31.78-.46,1.16,0-.06-.13-.14-.14-.16-.51-.85-.5.36.09.28-.07.18-.14.35-.2.53l-.14-.17c-.51-.85-.5.37.09.28-.07.19-.13.37-.19.55,0-.07-.14-.16-.15-.19-.51-.85-.5.39.1.29h0c-.06.17-.11.35-.16.52a1.86,1.86,0,0,0-.27-.3c-.67-.55-.38.64.2.57a3.94,3.94,0,0,0-.1.47c-.43-.19-1-.35-.83-.39-.57.1.39.4.79.62a4.57,4.57,0,0,0,0,1,4,4,0,0,0-.31-.46c-.67-.77-.48,1,.32.85,0,0,0,0,0,0a4.08,4.08,0,0,0,.16.6c.16.41.32,1.65.74,2s.61,0,.48,0a5.85,5.85,0,0,1,.62.13c.26-.24,1.24-1,1-1,.73,0,.45,1.86,1.88,1.12,2-1,1.28,1.78,2.15.54.11-.15,1.1-.68,1.17-.79,1-1.68.37-3.41,1-5.13a17.6,17.6,0,0,0,1.06-5.06c.23-3.26,2.86-6.6,2.63-10-.19-2.88-.73-5.72-1.12-8.6a32.77,32.77,0,0,0,5.44-.93,31.29,31.29,0,0,0,10.7-5.14,29.57,29.57,0,0,0,7.89-9,37.12,37.12,0,0,0,4-10.57A55.06,55.06,0,0,0,97.7,44.36,25.71,25.71,0,0,0,96.91,37.16ZM60.12,80.35l-.17.06c.07,0,.1,0,.11-.07Zm0,1.69c.23,0-2-1.32-1-1.48C58.62,80.63,61.29,81.84,60.07,82ZM87.45,56.91c-.11.41-.3.7-.64.71a6.6,6.6,0,0,0,0-2.16c0-.27,0-.54,0-.78a5.14,5.14,0,0,1,0-.7c0-.41.19-.7.46-.75-.24,0,.09,1.08.19,2.16A5.89,5.89,0,0,1,87.45,56.91Zm.82-3.86c.45-.09.14-1.67-.23-3.21a12.42,12.42,0,0,1-.4-2.15c0-.61,0-1.06.46-1.2-.26.09-.12.68.07,1.36a10.19,10.19,0,0,1,.4,1.84c0,.34.13,1.13.17,1.87S88.68,53,88.27,53.05Z"/>
                <path class="cls-2"
                      d="M87.62,38.17c.5-.29.28-.74-.07-1.11a4.07,4.07,0,0,0-.82-.65C86.15,36.74,88.07,37.9,87.62,38.17Z"/>
                <path class="cls-2" d="M55.63,107c-.26,0,.62.34.62.34C57.16,107.22,55.65,107,55.63,107Z"/>
                <path class="cls-2" d="M58.57,109.69c.16,0,.14,0,0-.08S58.55,109.69,58.57,109.69Z"/>
            </g>
        </g>
    </g>
</svg>
