<svg xmlns="http://www.w3.org/2000/svg" viewBox="0 0 128 128" width="256" height="256"><defs><style>.cls-1{fill:#131414;}.cls-2,.cls-3{fill:#5088f4;}.cls-3{fill-rule:evenodd;}</style></defs><g id="Слой_2" data-name="Слой 2"><g id="Слой_1-2" data-name="Слой 1"><g id="decryptor_teth" data-name="decryptor teth"><polygon class="cls-1" points="64 127.02 25.09 120.9 7.25 85.77 1.04 46.85 28.92 19.02 64 1.09 99.08 19.02 126.96 46.85 120.75 85.77 102.91 120.9 64 127.02"/><path class="cls-2" d="M64,128l-39.55-6.22L6.31,86.07l0-.15L0,46.52,28.35,18.23l.13-.07L64,0,99.65,18.23,128,46.52l-6.31,39.55-.07.14-18.07,35.57Zm-38.27-8L64,126l38.27-6,17.55-34.56,6.11-38.27L98.5,19.82,64,2.18,29.5,19.82,2.07,47.19,8.18,85.46Z"/><path class="cls-2" d="M93.46,26.23,64,11.17,34.54,26.23,11.11,49.61l5.22,32.68,15,29.51L64,116.94l32.69-5.14,15-29.51,5.22-32.68Zm10.72,53.19L91.55,104.29,64,108.63l-27.55-4.34L23.82,79.42,19.43,51.88l19.74-19.7L64,19.48l24.83,12.7,19.74,19.7Z"/><polygon class="cls-1" points="64 98.53 42.69 95.18 32.93 75.94 29.53 54.64 44.8 39.4 64 29.58 83.2 39.4 98.47 54.64 95.07 75.94 85.31 95.18 64 98.53"/><path class="cls-2" d="M64,100.17,41.63,96.65,31.37,76.45,27.8,54.07l16-16L64,27.76,84.17,38.07l16,16L96.63,76.45,86.37,96.65ZM43.76,93.71,64,96.89l20.24-3.18,9.28-18.27L96.75,55.2,82.24,40.72,64,31.4,45.76,40.72,31.25,55.2l3.23,20.24Z"/><line class="cls-1" x1="64" y1="16.87" x2="64" y2="29.58"/><rect class="cls-2" x="62.71" y="16.87" width="2.59" height="12.71"/><line class="cls-1" x1="111.19" y1="51.16" x2="98.47" y2="54.64"/><rect class="cls-2" x="98.24" y="51.6" width="13.18" height="2.59" transform="translate(-10.23 29.47) rotate(-15.27)"/><line class="cls-1" x1="93.16" y1="106.66" x2="85.31" y2="95.18"/><rect class="cls-2" x="87.94" y="93.96" width="2.59" height="13.91" transform="translate(-41.41 68.05) rotate(-34.39)"/><line class="cls-1" x1="64" y1="111.24" x2="64" y2="98.53"/><rect class="cls-2" x="62.71" y="98.53" width="2.59" height="12.72"/><line class="cls-1" x1="34.84" y1="106.66" x2="42.69" y2="95.18"/><rect class="cls-2" x="31.81" y="99.62" width="13.91" height="2.59" transform="translate(-66.4 75.87) rotate(-55.59)"/><line class="cls-1" x1="16.81" y1="51.16" x2="29.53" y2="54.64"/><rect class="cls-2" x="21.87" y="46.31" width="2.59" height="13.18" transform="translate(-33.97 61.31) rotate(-74.72)"/><line class="cls-1" x1="21.46" y1="80.33" x2="32.93" y2="75.94"/><rect class="cls-2" x="21.06" y="76.84" width="12.27" height="2.59" transform="translate(-26.11 14.86) rotate(-20.92)"/><line class="cls-1" x1="106.54" y1="80.33" x2="95.07" y2="75.94"/><rect class="cls-2" x="99.51" y="72" width="2.59" height="12.27" transform="translate(-8.19 144.37) rotate(-69.06)"/><line class="cls-1" x1="37.71" y1="30.3" x2="44.79" y2="39.4"/><rect class="cls-2" x="39.96" y="29.09" width="2.59" height="11.53" transform="translate(-12.71 32.71) rotate(-37.92)"/><line class="cls-1" x1="90.29" y1="30.3" x2="83.2" y2="39.4"/><rect class="cls-2" x="80.98" y="33.56" width="11.53" height="2.59" transform="translate(5.93 81.84) rotate(-52.07)"/><path class="cls-3" d="M51.29,84.16a1.93,1.93,0,0,0-.41,0l-.18,0c0,.11.36.25.7.35l.65.16A.81.81,0,0,0,51.29,84.16Z"/><path class="cls-3" d="M60.05,86.84a1.67,1.67,0,0,1,.55-.25c-.35-.12-1-.35-1.59-.62a15.15,15.15,0,0,0-1.85-.84c.05-.1.48,0,1.07.12l1,.19c.35,0,.7.12,1,.15s.64.06.9.07a2.77,2.77,0,0,0,.6,0c.26-.07.19-.21-.42-.49-.84-.41-.85-.6-.49-.66a17.41,17.41,0,0,1,1.79,0,11.38,11.38,0,0,0,1.63,0c.25,0,.06-.11-1-.26A7.84,7.84,0,0,1,62,83.71c-.52-.21-1-.45-1.17-.5a22.75,22.75,0,0,1-7.17-3.49c-.27-.2-.54-.41-.8-.63.48-.62.87-1.44,1.12-1.69l.05,0-.05,0s1-.51.56.13c-.67,1,.26.4.6,0,2.67-2.75,4.91-6,7.56-8.91A16.36,16.36,0,0,0,64,70c3.14,2.94,6.48,5.58,9.65,8.56l.18.16-.5.35a23.83,23.83,0,0,1-5.4,2.59c-1.71.59-3.12.93-3.4,1.46s-.15.56.16.5.75-.16,1,.17-.19.82-.35.85h.24l.61,0c.44,0,.89.09.87.2s-.61.21-1.15.24-1.07.14-1,.59c0,.21.21.37.51.48a4.22,4.22,0,0,0,1.21.17,12.12,12.12,0,0,0,3.64-.67A18.85,18.85,0,0,0,73.91,84c.52-.3,1-.61,1.34-.86l.68-.46s0,0,.19-.12l-.19.12.19-.09.92-.49c.64-.37,1.18-.59,0,.39-.77.63-1.21.93-1.33,1.09s0,.12.3,0a12.84,12.84,0,0,0,2.39-1.55,21.38,21.38,0,0,0,7.4-19.58,21.9,21.9,0,0,0-12.53-16.6,23.52,23.52,0,0,0-7.35-2.07,22.45,22.45,0,0,0-8.41.63,21.43,21.43,0,0,0-8,4.08,20.94,20.94,0,0,0-5.67,7.11,28.07,28.07,0,0,0-1.14,2.63A18.87,18.87,0,0,0,42,61.1a17.18,17.18,0,0,0-.25,4.26c0,.33.05.62.08.87s.07.45.1.59c.06.29.1.34.11,0,0-.57,0-1.14.07-1.71a22.28,22.28,0,0,1,.77-4.85A23.12,23.12,0,0,1,44.36,56a22,22,0,0,1,3-4.82,19.92,19.92,0,0,1,4.21-3.79A21.56,21.56,0,0,1,63.74,43.8a22.64,22.64,0,0,1,12,3.55,21.93,21.93,0,0,1,6.59,6.42,18.84,18.84,0,0,1,3.09,8.71,20.84,20.84,0,0,1,.32,3.89,7.36,7.36,0,0,1-.27,2.37s0-.13,0-.39,0-.61,0-1c0-.84,0-1.92-.05-2.84,0-.47,0-.89,0-1.24a2.73,2.73,0,0,1,.06-.75,24,24,0,0,0-6-11.41,22.28,22.28,0,0,0-11-6.4,21.45,21.45,0,0,0-12.94,1,21,21,0,0,0-5.71,3.46,20.73,20.73,0,0,0-4.33,5.14,23.94,23.94,0,0,0-2.56,6.06,27.82,27.82,0,0,0-.77,4.85,23.67,23.67,0,0,0,.19,4.29c-.07-.26-.17-.55-.19-.64a6.16,6.16,0,0,0-.32-1.15,1.9,1.9,0,0,0,0,.63,8.52,8.52,0,0,0,.26,1.16c.1.32.22.52.28.44.09.58.21,1.17.35,1.74,0,.1.05.19.08.28a.93.93,0,0,0-.05-.1l-.22-.53a6.15,6.15,0,0,0-.45-1.12,1.72,1.72,0,0,0,.11.63,9.37,9.37,0,0,0,.39,1.13c.15.31.28.51.33.4q.3,1,.69,2c-.14-.26-.34-.57-.38-.66a6.93,6.93,0,0,0-.57-1.07,1.47,1.47,0,0,0,.18.61c.27.71.83,1.7.89,1.45v0c.26.63.55,1.25.87,1.85l-.09-.13L44,75.78l-.17-.24c-.67-.92-.42-.32,0,.47a9.84,9.84,0,0,0,.75,1.09c.24.27.42.42.44.32a16.67,16.67,0,0,0,1,1.55L46,78.9c-.59-.42-1.2-.77-1.17-.94,0,.18.12.38.34.6a5.78,5.78,0,0,0,.82.67l.68.48a19,19,0,0,0,3,3l-.24-.17c-.65-.47-1.27-1-1.32-1-.61-.49-.75-.56-.63-.38a5,5,0,0,0,.36.43c.18.17.4.39.65.6,1,.88,2.37,1.74,2.3,1.41l-.07-.09a18.71,18.71,0,0,0,2,1.23,24.59,24.59,0,0,0,3.68,1.6A14.59,14.59,0,0,0,60,87.1C61,87.1,60.1,86.77,60.05,86.84Zm-5-9.57c.25.12.31-.91.47-1.15s.33-1.22.71-1C55.78,74.88,55.81,77.67,55,77.27Zm1.65-1.93c.2.11.11-1.85.73-1.53C57.29,73.75,57.18,75.6,56.68,75.34Zm2.26-2.83c-.24.32-.4.61-.66,1-1.2,1.61,0-1.14.66-1a15.45,15.45,0,0,1,3.36-4.34l.3.38A40.39,40.39,0,0,1,58.94,72.51Zm7-7.28.28-.2.18.2-.29.22A1.84,1.84,0,0,0,66,65.23Zm5.89,5.17a17.16,17.16,0,0,1-5.62-4.83l.3-.21q.58.65,1.26,1.29a46.47,46.47,0,0,1,4.06,3.75c.32.24.6.4,1,.66C74.4,72.26,71.65,71,71.84,70.4Zm1.29,1.53c-.06.12,1.79.23,1.53.74C74.77,72.46,72.81,72.55,73.13,71.93Zm2.32,1.91c-.22-.14-1.22-.32-1-.71-.22.43,2.57.4,2.17,1.18C76.72,74.07,75.68,74,75.45,73.84Zm6,4.43a12.79,12.79,0,0,1-1.47,2.26,5.91,5.91,0,0,1-.72.71,1,1,0,0,1-.59.25c.1,0,.28-.13.49-.36a8.37,8.37,0,0,0,.69-.9c.48-.7.93-1.5,1.2-1.89a15.89,15.89,0,0,0,1.06-2c.2-.39.38-.77.55-1.06s.32-.5.46-.55C82.76,74.87,82.29,76.6,81.4,78.27Zm3.35-6.53a10.63,10.63,0,0,1-.41,1.8c-.19.51-.38.88-.57.95A8.07,8.07,0,0,0,84.33,72c.09-.62.15-1.26.25-1.76a1.73,1.73,0,0,1,.4-1C84.91,69.22,84.94,70.45,84.75,71.74ZM79.9,60.53a16.86,16.86,0,0,1,.5,2,15.83,15.83,0,0,1,.23,2.06,16.19,16.19,0,0,1,0,2.09,18,18,0,0,1-.29,2.08,16.1,16.1,0,0,1-3.24,6.87,2.23,2.23,0,0,1-.37-.27s0,0,0-.05l0,.05s-.5-1,.13-.56c1,.67.4-.26.05-.6-3-2.89-6.52-5.27-9.64-8.24a8.3,8.3,0,0,1-.65-.67c1.56-1.1,3.27-2.2,4.72-3.43.39-.32.91-.63,1.31-1s1.26-1.5.93-1.35c-.17.08-.33.17-.49.26-.37.25-.74.5-1.1.76-1.19,1-2.21,2.14-3.45,3.08l-2,1.52-.17-.2c1.42-1,2.84-2.06,4.14-3.2.48-.43,1-.82,1.52-1.2a9.34,9.34,0,0,1,1.1-.76l1.06-.7a.89.89,0,0,0-.07.18c-.46.84.46-.09.18-.25l.48-.33a1.73,1.73,0,0,0-.08.18c-.45.85.47-.08.18-.25l.49-.34a1.6,1.6,0,0,0-.08.2c-.46.85.48-.1.18-.25h0l.45-.33a2.48,2.48,0,0,0-.12.33c-.17.68.63-.34.36-.51l.4-.32c0,.31.12.67,0,.62.29.15.16-.46.18-.78a8.46,8.46,0,0,0,.8-.78c-.12.21-.22.45-.23.47-.28.71.56-.16.61-.58.1.15.21.3.3.45A15.94,15.94,0,0,1,79.9,60.53ZM65.68,49a18.34,18.34,0,0,1,6.62,2.23,16.55,16.55,0,0,1,2.17,1.47,19,19,0,0,1-2.2,1.88A34.55,34.55,0,0,0,68,58a35.07,35.07,0,0,1-4.41,3.24A37.64,37.64,0,0,0,61.2,58c-.32-.38-.63-.9-1-1.3s-1.5-1.26-1.34-.93c.08.17.17.33.26.49.25.37.5.73.76,1.09C60.84,58.54,62,59.57,63,60.8c.15.2.29.38.42.57l-.2.14c-.67-.91-1.36-1.8-2.09-2.63a17.54,17.54,0,0,1-1.2-1.53,8.18,8.18,0,0,1-.76-1.09l-.7-1.07a.83.83,0,0,0,.18.08c.84.46-.09-.47-.26-.18L58,54.61l.18.07c.85.46-.08-.47-.25-.18-.11-.17-.23-.33-.34-.49a1.6,1.6,0,0,0,.2.08c.85.47-.1-.48-.26-.17h0l-.33-.46a1.89,1.89,0,0,0,.33.13c.68.17-.34-.64-.51-.36l-.32-.4c.31,0,.67-.12.62,0,.14-.29-.46-.16-.78-.17a10,10,0,0,0-.78-.81c.21.12.45.22.47.23.85.34-.56-.94-.77-.53a0,0,0,0,0,0,0,6.12,6.12,0,0,0-.5-.39l-.16-.11a17.1,17.1,0,0,1,3.82-1.63A17.41,17.41,0,0,1,65.68,49ZM46.81,66.15a18.35,18.35,0,0,1,1.32-7.42A15.58,15.58,0,0,1,51.2,54c.86,1.06,1.91,1.95,2.69,3.11a34.65,34.65,0,0,0,3.44,4.28,23.62,23.62,0,0,1,2.29,3l-.31.31c-2.94,3.14-5.57,6.48-8.55,9.66a9,9,0,0,0-1,1.33,16.15,16.15,0,0,1-1.15-2A19.21,19.21,0,0,1,46.81,66.15Z"/><path class="cls-3" d="M60.88,86.67c0-.09-.16-.1-.28-.08C60.78,86.66,60.89,86.69,60.88,86.67Z"/><path class="cls-3" d="M65.34,84.67h0Z"/><path class="cls-3" d="M68.19,87c.49-.25.94-.54,1.11-.45a1.71,1.71,0,0,0-1.42.26c-.25.13-.47.25-.64.36l-.27.18C67.18,87.5,67.71,87.29,68.19,87Z"/><path class="cls-3" d="M55.8,51.12c.07-.13-.5,0-.5,0C55.06,51.55,55.8,51.13,55.8,51.12Z"/></g></g></g></svg>
