<svg xmlns="http://www.w3.org/2000/svg" viewBox="0 0 128 128" width="256" height="256"><defs><style>.cls-1{fill:#131414;}.cls-2,.cls-3{fill:#33b75d;}.cls-3{fill-rule:evenodd;}</style></defs><g id="Слой_2" data-name="Слой 2"><g id="Слой_1-2" data-name="Слой 1"><g id="decryptor_nun" data-name="decryptor nun"><polygon class="cls-1" points="64 127.02 25.09 120.9 7.25 85.77 1.04 46.85 28.92 19.02 64 1.09 99.08 19.02 126.96 46.85 120.75 85.77 102.91 120.9 64 127.02"/><path class="cls-2" d="M64,128l-39.55-6.22L6.31,86.07,0,46.52,28.35,18.23l.13-.07L64,0,99.65,18.23,128,46.52l-6.31,39.55-.07.14-18.07,35.57Zm-38.27-8L64,126l38.27-6,17.55-34.56,6.11-38.27L98.5,19.82,64,2.18,29.5,19.82,2.07,47.19,8.18,85.46Z"/><path class="cls-2" d="M93.46,26.23,64,11.17,34.54,26.23,11.11,49.61l5.22,32.68,15,29.51L64,116.94l32.69-5.14,15-29.51,5.22-32.68Zm10.72,53.19L91.55,104.29,64,108.63l-27.55-4.34L23.82,79.42,19.43,51.88l19.74-19.7L64,19.48l24.83,12.7,19.74,19.7Z"/><polygon class="cls-1" points="64 98.53 42.69 95.18 32.93 75.94 29.53 54.64 44.8 39.4 64 29.58 83.2 39.4 98.47 54.64 95.07 75.94 85.31 95.18 64 98.53"/><path class="cls-2" d="M64,100.17,41.63,96.65,31.37,76.45,27.8,54.07l16-16L64,27.76,84.17,38.07l16,16L96.63,76.45,86.37,96.65ZM43.76,93.71,64,96.89l20.24-3.18,9.28-18.27L96.75,55.2,82.24,40.72,64,31.4,45.76,40.72,31.25,55.2l3.23,20.24Z"/><line class="cls-1" x1="64" y1="16.87" x2="64" y2="29.58"/><rect class="cls-2" x="62.71" y="16.87" width="2.59" height="12.71"/><line class="cls-1" x1="111.19" y1="51.16" x2="98.47" y2="54.64"/><rect class="cls-2" x="98.24" y="51.6" width="13.18" height="2.59" transform="translate(-10.23 29.47) rotate(-15.27)"/><line class="cls-1" x1="93.16" y1="106.66" x2="85.31" y2="95.18"/><rect class="cls-2" x="87.94" y="93.96" width="2.59" height="13.91" transform="translate(-41.41 68.05) rotate(-34.39)"/><line class="cls-1" x1="64" y1="111.24" x2="64" y2="98.53"/><rect class="cls-2" x="62.71" y="98.53" width="2.59" height="12.72"/><line class="cls-1" x1="34.84" y1="106.66" x2="42.69" y2="95.18"/><rect class="cls-2" x="31.81" y="99.62" width="13.91" height="2.59" transform="translate(-66.4 75.87) rotate(-55.59)"/><line class="cls-1" x1="16.81" y1="51.16" x2="29.53" y2="54.64"/><rect class="cls-2" x="21.87" y="46.31" width="2.59" height="13.18" transform="translate(-33.97 61.31) rotate(-74.72)"/><line class="cls-1" x1="21.46" y1="80.33" x2="32.93" y2="75.94"/><rect class="cls-2" x="21.06" y="76.84" width="12.27" height="2.59" transform="translate(-26.11 14.86) rotate(-20.92)"/><line class="cls-1" x1="106.54" y1="80.33" x2="95.07" y2="75.94"/><rect class="cls-2" x="99.51" y="72" width="2.59" height="12.27" transform="translate(-8.19 144.37) rotate(-69.06)"/><line class="cls-1" x1="37.71" y1="30.3" x2="44.79" y2="39.4"/><rect class="cls-2" x="39.96" y="29.09" width="2.59" height="11.53" transform="translate(-12.71 32.71) rotate(-37.92)"/><line class="cls-1" x1="90.29" y1="30.3" x2="83.2" y2="39.4"/><rect class="cls-2" x="80.98" y="33.56" width="11.53" height="2.59" transform="translate(5.93 81.84) rotate(-52.07)"/><path class="cls-3" d="M62.25,52.44a1.63,1.63,0,0,0,.1.29l.08.12c.17,0,.11-.92.11-.92A.37.37,0,0,0,62.25,52.44Z"/><path class="cls-3" d="M64,46.36c.09-.1.14-.16.12-.16S64,46.27,64,46.36Z"/><path class="cls-3" d="M81.1,55.25l-.53.16c-6.54,2-15.18,3.44-23.13,5.39,0-.06,0-.1,0-.11l0-.11.67-1.07c-.07.17-.13.39-.15.45-.76,2,.7-.75.28-.66h0l.69-1.13,0,.09c-.11.33-.19.64-.19.63-.33,1.4.94-1.35.58-1.32l.6-1c0,.51.08,1-.06,1.06.39-.09.28-1,.35-1.58.44-.77.85-1.55,1.24-2.31-.2.51-.37,1.05-.38,1.08-.6,1.9,1.39-2.1.84-2l0,0c.21-.45.42-.9.61-1.35.41-1,1.8-3.79,2-4.61.14-.63-.29-.15-.24-.1a1.24,1.24,0,0,1-.15-.43,17.54,17.54,0,0,0-1.67,2c-.33-.21,2-4.28.41-2.93-2.18,1.88,1.48-4.29-.4-1.7-.23.31-1.34,1.28-1.51,1.53-2.46,3.55-4.2,7.58-6.55,11.3-1.55,2.46-3,5-4.46,7.49l-2.36,4.17,5.07-1.31,2.8-.74h0c.48-.13,1-.25,1.45-.39C63.48,64,69.51,63,76.1,61.38v0c-.2.63-.41,1.24-.6,1.77a71,71,0,0,1-2.71,6.64,48.12,48.12,0,0,1-3.47,6.25c-.34.49-.67,1-1,1.45-.18.24-.35.48-.53.71l-.57.69-.28.34-.29.33-.6.65c-.2.22-.42.41-.62.62s-.42.42-.64.6-.61.54-.92.81l-1,.77c-.32.23-.64.47-.94.71s-.62.42-.9.63l-.21.16-.21.13-.39.27-.66.5a1.47,1.47,0,0,0-.67.84c-.07.56,0,.52.27.41a.68.68,0,0,1,.83-.06.5.5,0,0,1-.05.8H60l.15,0c.14,0,.32,0,.5-.06.35-.07.72-.11.74,0s-.09.15-.25.22a4.73,4.73,0,0,1-.58.22c-.42.14-.79.33-.61.71s.76.4,1.56.21a10.87,10.87,0,0,0,1.3-.46c.46-.22.92-.49,1.39-.77s.89-.63,1.32-.94.78-.67,1.12-1c.18-.14.33-.3.48-.44l.4-.39c.17-.18.33-.32.45-.43l.14-.11-.14.11s.06,0,.14-.08l.66-.45c.48-.31.89-.51.12.32-.49.55-.77.84-.85,1s0,.09.26,0l.38-.25.44-.36a9.37,9.37,0,0,0,.84-.75,35,35,0,0,0,4.72-6.12,52,52,0,0,0,3.44-6.67c1-2.27,1.85-4.59,2.63-6.94q.59-1.75,1.11-3.54c.35-1.2.68-2.38,1-3.63l.54-2.18ZM72,80.74a11.06,11.06,0,0,1-1,1.69c-.34.46-.68.76-.95.76.17,0,.48-.47.79-1s.57-1.14.77-1.43.47-.87.77-1.43.6-1.06.87-1.09C72.94,78.27,72.53,79.51,72,80.74Zm3.34-5.58c-.09.33-.22.76-.36,1.2-.28.88-.7,1.75-1,1.8a5.77,5.77,0,0,0,.63-1.73,6.43,6.43,0,0,1,.43-1.2c.16-.34.33-.58.54-.62A1.65,1.65,0,0,0,75.29,75.16Zm7.46-18.44c-.11.45-.25.94-.39,1.44a60.86,60.86,0,0,1-4.47,12.28c-.18.44-.33.83-.5,1.23s-.33.83-.56,1.31A5.44,5.44,0,0,1,76,74.46c-.06,0,.09-.4.3-1,.45-1.11,1.17-2.83,1.58-3l2.25-6.91c.28-.84.55-1.68.82-2.52h0l.06-.19c.27-.82.53-1.64.79-2.48v0h0c.17-.56.34-1.12.5-1.68l.37-1.27-1.42.38c-7.8,2-15.78,3.56-23.49,5.58l-.55.14a.54.54,0,0,1,.05-.11c2.31-.65,4.65-1.31,7-1.86C70.2,58.11,75.33,57,81.14,55.36l2.11-.61Z"/><path class="cls-3" d="M63.17,88.41a3.21,3.21,0,0,0-.52.39,6.45,6.45,0,0,0-.56.65c.21.08.56-.23.87-.54l.23-.22.2-.21c.13-.11.23-.18.32-.16A.69.69,0,0,0,63.17,88.41Z"/></g></g></g></svg>
