<svg xmlns="http://www.w3.org/2000/svg" viewBox="0 0 128 128" width="256" height="256"><defs><style>.cls-1{fill:#131414;}.cls-2,.cls-3{fill:#3fb147;}.cls-3{fill-rule:evenodd;}</style></defs><g id="Слой_2" data-name="Слой 2"><g id="Слой_1-2" data-name="Слой 1"><g id="decryptor_samekh" data-name="decryptor samekh"><polygon class="cls-1" points="64 127.02 25.09 120.9 7.25 85.77 1.04 46.85 28.92 19.02 64 1.09 99.08 19.02 126.96 46.85 120.75 85.77 102.91 120.9 64 127.02"/><path class="cls-2" d="M64,128l-39.55-6.22L6.31,86.07,0,46.52,28.35,18.23l.13-.07L64,0,99.65,18.23,128,46.52l-6.31,39.55-.07.14-18.07,35.57Zm-38.27-8L64,126l38.27-6,17.55-34.56,6.11-38.27L98.5,19.82,64,2.18,29.5,19.82,2.07,47.19,8.18,85.46Z"/><path class="cls-2" d="M93.46,26.23,64,11.17,34.54,26.23,11.11,49.61l5.22,32.68,15,29.51L64,116.94l32.69-5.14,15-29.51,5.22-32.68Zm10.72,53.19L91.55,104.29,64,108.63l-27.55-4.34L23.82,79.42,19.43,51.88l19.74-19.7L64,19.48l24.83,12.7,19.74,19.7Z"/><polygon class="cls-1" points="64 98.53 42.69 95.18 32.93 75.94 29.53 54.64 44.8 39.4 64 29.58 83.2 39.4 98.47 54.64 95.07 75.94 85.31 95.18 64 98.53"/><path class="cls-2" d="M64,100.17,41.63,96.65,31.37,76.45,27.8,54.07l16-16L64,27.76,84.17,38.07l16,16L96.63,76.45,86.37,96.65ZM43.76,93.71,64,96.89l20.24-3.18,9.28-18.27L96.75,55.2,82.24,40.72,64,31.4,45.76,40.72,31.25,55.2l3.23,20.24Z"/><line class="cls-1" x1="64" y1="16.87" x2="64" y2="29.58"/><rect class="cls-2" x="62.71" y="16.87" width="2.59" height="12.71"/><line class="cls-1" x1="111.19" y1="51.16" x2="98.47" y2="54.64"/><rect class="cls-2" x="98.24" y="51.6" width="13.18" height="2.59" transform="translate(-10.23 29.47) rotate(-15.27)"/><line class="cls-1" x1="93.16" y1="106.66" x2="85.31" y2="95.18"/><rect class="cls-2" x="87.94" y="93.96" width="2.59" height="13.91" transform="translate(-41.4 68.05) rotate(-34.39)"/><line class="cls-1" x1="64" y1="111.24" x2="64" y2="98.53"/><rect class="cls-2" x="62.71" y="98.53" width="2.59" height="12.72"/><line class="cls-1" x1="34.84" y1="106.66" x2="42.69" y2="95.18"/><rect class="cls-2" x="31.81" y="99.62" width="13.91" height="2.59" transform="translate(-66.4 75.87) rotate(-55.59)"/><line class="cls-1" x1="16.81" y1="51.16" x2="29.53" y2="54.64"/><rect class="cls-2" x="21.87" y="46.31" width="2.59" height="13.18" transform="translate(-33.97 61.31) rotate(-74.72)"/><line class="cls-1" x1="21.46" y1="80.33" x2="32.93" y2="75.94"/><rect class="cls-2" x="21.06" y="76.84" width="12.27" height="2.59" transform="translate(-26.11 14.86) rotate(-20.92)"/><line class="cls-1" x1="106.54" y1="80.33" x2="95.07" y2="75.94"/><rect class="cls-2" x="99.51" y="72" width="2.59" height="12.27" transform="translate(-8.19 144.37) rotate(-69.06)"/><line class="cls-1" x1="37.71" y1="30.3" x2="44.8" y2="39.4"/><rect class="cls-2" x="39.96" y="29.09" width="2.59" height="11.53" transform="translate(-12.71 32.71) rotate(-37.92)"/><line class="cls-1" x1="90.29" y1="30.3" x2="83.21" y2="39.4"/><rect class="cls-2" x="80.98" y="33.56" width="11.53" height="2.59" transform="translate(5.93 81.84) rotate(-52.06)"/><path class="cls-3" d="M51.79,49.05c0-.14-.27.33-.27.34C51.63,49.88,51.8,49.06,51.79,49.05Z"/><path class="cls-3" d="M49.68,50.64c0,.09,0,.08.06,0S49.68,50.63,49.68,50.64Z"/><path class="cls-3" d="M77.29,50.06c-.08-.33-.44.64-.5.39C76.93,51,77.29,50.06,77.29,50.06Z"/><path class="cls-3" d="M51.79,60.19c0-.14-.27.33-.27.33C51.63,61,51.8,60.2,51.79,60.19Z"/><path class="cls-3" d="M49.68,61.78c0,.08,0,.07.06,0S49.68,61.77,49.68,61.78Z"/><path class="cls-3" d="M77.79,65.57c.16-1.1-.16,0-.29-.72a1.23,1.23,0,0,1,.11-.82s-.42-.22-.4-.43.52.25.5-.65c0-1.63-2-.4-2.55-.41h0s-.76-.35-.22-.49c.86-.21.07-.46-.28-.45-2.91,0-5.84.8-8.85,1,.3-2,.66-4,.83-6,2.86-.18,5.68-.6,8.59-.73,1.09,0,2.42-.41,2.56-1.44s-.16,0-.29-.72a1.23,1.23,0,0,1,.11-.82s-.42-.21-.4-.43.52.25.5-.65c0-1.63-2-.39-2.55-.41h0s-.76-.35-.22-.48c.86-.22.07-.47-.28-.46-2.49,0-5,.6-7.55.87,0-.2,0-.73-.24-.67,0-.23.07-.45.1-.68a1.57,1.57,0,0,0,.09.23c.27,1.08.27-.48-.06-.35h0l.09-.65a2.54,2.54,0,0,0,.14.38c.36.7.21-.8-.1-.72,0-.19,0-.39,0-.59.23.24.56.45.45.49.31-.11-.21-.5-.43-.78,0-.44,0-.87,0-1.3.06.27.16.55.16.57.37,1,.27-1.23-.17-1.07l0,0c0-.25,0-.5-.09-.74A12.84,12.84,0,0,0,66.71,43c-.17-.31-.33,0-.26,0a1.49,1.49,0,0,1-.34-.17c-.14.31-.67,1.24-.55,1.25-.4,0-.24-2.33-1-1.41-1.07,1.29-.69-2.24-1.16-.69-.06.19-.6.84-.64,1-.54,2.11-.21,4.28-.57,6.44-.08.5-.16,1-.22,1.51a32.24,32.24,0,0,0-3.8-.82c-.37,0-.8-.19-1.18-.23s-1.43.17-1.18.29a3.29,3.29,0,0,0,.39.17l1,.24c1.1.17,2.26,0,3.38.26l1.41.28a2.3,2.3,0,0,0,0,.26,26.35,26.35,0,0,0-3.35-.57,13.36,13.36,0,0,1-1.41-.23,5.39,5.39,0,0,1-1-.24l-.91-.26L55.4,50c.67-.27-.29-.27-.23,0l-.41-.11.13-.08c.67-.27-.29-.27-.22,0l-.43-.11.14-.08c.68-.27-.3-.27-.22.06h0l-.4-.09c.11-.05.23-.15.23-.14.44-.36-.5-.21-.45.1l-.37,0c.15-.23.28-.56.31-.45-.07-.31-.32.21-.49.43a5.72,5.72,0,0,0-.82,0c.17-.06.35-.16.36-.16.62-.37-.78-.27-.67.16,0,0,0,0,0,0a3.55,3.55,0,0,0-.47.09,5.4,5.4,0,0,0-1.57.39c-.2.17,0,.33,0,.26a1.45,1.45,0,0,1-.1.34c.19.14.78.67.79.55,0,.4-1.47.24-.89,1,.81,1.07-1.41.69-.44,1.16.12.06.54.6.63.64,1.32.54,2.69.21,4.05.57a18.86,18.86,0,0,0,4,.59,17,17,0,0,1,3.7.76,45.39,45.39,0,0,1-.77,5.81,21.06,21.06,0,0,0-2.65-.53c-.37,0-.8-.19-1.18-.23s-1.43.17-1.18.29a3.29,3.29,0,0,0,.39.17l1,.23c1.1.17,2.26.06,3.38.27l.24.05a2,2,0,0,0,0,.24c-.73-.14-1.45-.26-2.17-.33a9.64,9.64,0,0,1-1.41-.23,4.63,4.63,0,0,1-1-.23l-.91-.26s.11-.07.13-.07c.67-.28-.29-.27-.23,0l-.41-.12.13-.07c.67-.27-.29-.27-.22,0l-.43-.11.14-.08c.68-.27-.3-.27-.22.06h0c-.13,0-.27-.06-.4-.09.11-.05.23-.15.23-.14.44-.37-.5-.21-.45.1l-.37-.06c.15-.23.28-.55.31-.44-.07-.31-.32.21-.49.42a7.6,7.6,0,0,0-.82,0,2.07,2.07,0,0,0,.36-.17c.62-.36-.78-.26-.67.17,0,0,0,0,0,0a3.55,3.55,0,0,0-.47.08,5.75,5.75,0,0,0-1.57.4c-.2.17,0,.33,0,.26a1.45,1.45,0,0,1-.1.34c.19.14.78.67.79.55,0,.4-1.47.24-.89,1,.81,1.08-1.41.7-.44,1.17.12.06.54.6.63.64,1.32.54,2.69.21,4.05.57a19.53,19.53,0,0,0,4,.59,11.53,11.53,0,0,1,2.29.38c0,.54,0,1.09,0,1.64,0,1.61.13,3.22.23,4.82a17.86,17.86,0,0,0-2.21-.42c-.37,0-.8-.2-1.18-.24s-1.43.18-1.18.3l.39.16q.48.13,1,.24c1.06.16,2.16.06,3.23.24,0,.09,0,.17,0,.25-.62-.11-1.23-.21-1.84-.26a9.86,9.86,0,0,1-1.41-.23,4.65,4.65,0,0,1-1-.24l-.91-.25a1.05,1.05,0,0,0,.13-.08c.67-.27-.29-.27-.23,0l-.41-.11c.05,0,.11-.07.13-.07.67-.28-.29-.28-.22,0l-.43-.11.14-.08c.68-.28-.3-.27-.22.06h0l-.4-.08a2.26,2.26,0,0,0,.23-.15c.44-.36-.5-.2-.45.11-.12,0-.25,0-.37-.06.15-.23.28-.56.31-.45-.07-.31-.32.21-.49.43a4.54,4.54,0,0,0-.82,0,2.07,2.07,0,0,0,.36-.17c.62-.36-.78-.26-.67.17a0,0,0,0,0,0,0,3.55,3.55,0,0,0-.47.09,6.12,6.12,0,0,0-1.57.39c-.2.18,0,.34,0,.27a1.4,1.4,0,0,1-.1.33c.19.15.78.68.79.55,0,.4-1.47.25-.89,1,.81,1.08-1.41.69-.44,1.17.12.06.54.6.63.64,1.32.54,2.69.2,4.05.57a18.84,18.84,0,0,0,4,.58,14,14,0,0,1,2.81.52c.1,1.65.19,3.3.23,5s.41,3.85,1.44,4.08,0-.26.72-.46c.44-.12.88.13.82.16s.22-.65.43-.63-.25.83.65.79c1.62-.07.4-3.22.4-4a.6.6,0,0,1,0-.08s0,0,0,.08.35-1.24.49-.35c.22,1.35.47.1.46-.46,0-1-.06-2.1-.14-3.16,3-.16,6-.62,9-.75,1.09,0,2.42-.42,2.56-1.44s-.16,0-.29-.72a1.23,1.23,0,0,1,.11-.82s-.42-.22-.4-.43.52.25.5-.65c0-1.63-2-.4-2.55-.41h0s-.76-.35-.22-.49c.86-.21.07-.46-.28-.46-2.93.06-5.88.82-8.91,1-.2-2.08-.37-4.18-.42-6.3h.47C69,67.65,72,67.15,75.23,67,76.32,67,77.65,66.6,77.79,65.57ZM66,60c-.11.91-.22,1.77-.33,2.62h-.27c.26-1.92.53-3.84.63-5.75a1.5,1.5,0,0,0,0-.2h.11C66.09,57.74,66.08,58.86,66,60Zm.76-8.34a1.38,1.38,0,0,0,.07.2c0,.1,0,.18.07.23h-.22C66.66,51.91,66.68,51.76,66.71,51.62Zm7.84-.87c-.06-.26-.63.42-.84.47s-.8.64-.89.23C72.93,51.91,74.35,49.91,74.55,50.75ZM72.7,51c0-.22-1,1.22-1.17.56C71.56,51.64,72.57,50.41,72.7,51Zm-2.63.4c.29-.06.51-.15.84-.21,1.45-.29-.62.78-.84.21a8.24,8.24,0,0,1-3.09.7,1,1,0,0,0-.14-.55A14.58,14.58,0,0,1,70.07,51.35ZM66.92,51a1.76,1.76,0,0,0,.1.32l-.27,0,.09-.56ZM65.34,62.71h.26c0,.14,0,.29,0,.44l-.27,0ZM65.2,74.22h.28c0,.15,0,.29,0,.43H65.3C65.27,74.5,65.23,74.36,65.2,74.22Zm.83,8c.26-.1-.42-1-.47-1.33s-.64-1.27-.23-1.43C64.87,79.69,66.87,82,66,82.27Zm-.2-2.94s0,0,0,0h0Zm8.72-5.92c-.06-.27-.63.41-.84.47s-.8.63-.89.22C72.93,74.56,74.35,72.57,74.55,73.41Zm-1.85.19c0-.22-1,1.23-1.17.56C71.56,74.29,72.57,73.06,72.7,73.6ZM66,74.22a23.75,23.75,0,0,1,4-.22c.29-.06.51-.15.84-.21,1.45-.29-.62.78-.84.21a8.55,8.55,0,0,1-4.27.68c0-.15,0-.3,0-.46Zm-.55-.11h-.3a22.62,22.62,0,0,1-.4-6.35l.43,0v.93C65.26,70.52,65.5,72.31,65.48,74.11Zm4.59-11.63a8.63,8.63,0,0,1-4.35.68c0-.15,0-.3.07-.45H66a24.82,24.82,0,0,1,4-.22c.29-.06.51-.14.84-.21C72.36,62,70.29,63.05,70.07,62.48Zm1.46.17c0,.12,1-1.1,1.17-.56C72.65,61.86,71.68,63.31,71.53,62.65Zm2.18-.29c-.18,0-.8.64-.89.23.11.45,1.53-1.54,1.73-.7C74.49,61.62,73.92,62.31,73.71,62.36Z"/><path class="cls-3" d="M76.79,61.59c.14.57.5-.39.5-.39C77.21,60.87,76.85,61.84,76.79,61.59Z"/><path class="cls-3" d="M51.79,71.71c0-.14-.27.33-.27.33C51.63,72.54,51.8,71.72,51.79,71.71Z"/><path class="cls-3" d="M49.68,73.29c0,.09,0,.08.06,0S49.68,73.28,49.68,73.29Z"/><path class="cls-3" d="M76.79,73.11c.14.56.5-.4.5-.39C77.21,72.38,76.85,73.36,76.79,73.11Z"/><path class="cls-3" d="M67.73,46.1c.14-.06-.33-.44-.34-.44C66.9,45.84,67.72,46.1,67.73,46.1Z"/><path class="cls-3" d="M66.14,42.73c-.08,0-.08.06,0,.1S66.15,42.73,66.14,42.73Z"/><path class="cls-3" d="M66.33,85.83c-.57.21.39.8.39.8C67.05,86.5,66.08,85.93,66.33,85.83Z"/></g></g></g></svg>
