<svg xmlns="http://www.w3.org/2000/svg" viewBox="0 0 128 128" width="256" height="256"><defs><style>.cls-1{fill:#131414;}.cls-2,.cls-3{fill:#69a239;}.cls-3{fill-rule:evenodd;}</style></defs><g id="Слой_2" data-name="Слой 2"><g id="Слой_1-2" data-name="Слой 1"><g id="decryptor_ayin" data-name="decryptor ayin"><polygon class="cls-1" points="64 127.02 25.09 120.9 7.25 85.77 1.04 46.85 28.92 19.02 64 1.09 99.08 19.02 126.96 46.85 120.75 85.77 102.91 120.9 64 127.02"/><path class="cls-2" d="M64,128l-39.55-6.22L6.31,86.07l0-.15L0,46.52,28.35,18.23l.13-.07L64,0,99.65,18.23,128,46.52l-6.31,39.55-.07.14-18.07,35.57Zm-38.27-8L64,126l38.27-6,17.55-34.56,6.11-38.27L98.5,19.82,64,2.18,29.5,19.82,2.07,47.19,8.18,85.46Z"/><path class="cls-2" d="M93.46,26.23,64,11.17,34.54,26.23,11.11,49.61l5.22,32.68,15,29.51L64,116.94l32.69-5.14,15-29.51,5.22-32.68Zm10.72,53.19L91.55,104.29,64,108.63l-27.55-4.34L23.82,79.42,19.43,51.88l19.74-19.7L64,19.48l24.83,12.7,19.74,19.7Z"/><polygon class="cls-1" points="64 98.53 42.69 95.18 32.93 75.94 29.53 54.64 44.8 39.4 64 29.58 83.2 39.4 98.47 54.64 95.07 75.94 85.31 95.18 64 98.53"/><path class="cls-2" d="M64,100.17,41.63,96.65,31.37,76.45,27.8,54.07l16-16L64,27.76,84.17,38.07l16,16L96.63,76.45,86.37,96.65ZM43.76,93.71,64,96.89l20.24-3.18,9.28-18.27L96.75,55.2,82.24,40.72,64,31.4,45.76,40.72,31.25,55.2l3.23,20.24Z"/><line class="cls-1" x1="64" y1="16.87" x2="64" y2="29.58"/><rect class="cls-2" x="62.71" y="16.87" width="2.59" height="12.71"/><line class="cls-1" x1="111.19" y1="51.16" x2="98.47" y2="54.64"/><rect class="cls-2" x="98.24" y="51.6" width="13.18" height="2.59" transform="translate(-10.23 29.47) rotate(-15.27)"/><line class="cls-1" x1="93.16" y1="106.66" x2="85.31" y2="95.18"/><rect class="cls-2" x="87.94" y="93.96" width="2.59" height="13.91" transform="translate(-41.4 68.05) rotate(-34.39)"/><line class="cls-1" x1="64" y1="111.24" x2="64" y2="98.53"/><rect class="cls-2" x="62.71" y="98.53" width="2.59" height="12.72"/><line class="cls-1" x1="34.84" y1="106.66" x2="42.69" y2="95.18"/><rect class="cls-2" x="31.81" y="99.62" width="13.91" height="2.59" transform="translate(-66.4 75.87) rotate(-55.59)"/><line class="cls-1" x1="16.81" y1="51.16" x2="29.53" y2="54.64"/><rect class="cls-2" x="21.87" y="46.31" width="2.59" height="13.18" transform="translate(-33.97 61.31) rotate(-74.72)"/><line class="cls-1" x1="21.46" y1="80.33" x2="32.93" y2="75.94"/><rect class="cls-2" x="21.06" y="76.84" width="12.27" height="2.59" transform="translate(-26.11 14.86) rotate(-20.92)"/><line class="cls-1" x1="106.54" y1="80.33" x2="95.07" y2="75.94"/><rect class="cls-2" x="99.51" y="72" width="2.59" height="12.27" transform="translate(-8.19 144.37) rotate(-69.06)"/><line class="cls-1" x1="37.71" y1="30.3" x2="44.79" y2="39.4"/><rect class="cls-2" x="39.96" y="29.09" width="2.59" height="11.53" transform="translate(-12.71 32.71) rotate(-37.92)"/><line class="cls-1" x1="90.29" y1="30.3" x2="83.2" y2="39.4"/><rect class="cls-2" x="80.98" y="33.56" width="11.53" height="2.59" transform="translate(5.93 81.84) rotate(-52.06)"/><path class="cls-3" d="M75.35,48.55a1.76,1.76,0,0,0,.39,0,.59.59,0,0,0,.17,0c0-.1-.34-.24-.66-.33s-.63-.15-.63-.15A.76.76,0,0,0,75.35,48.55Z"/><path class="cls-3" d="M84.46,66.44c0-.3,0-.58-.08-.82s-.06-.43-.09-.57-.1-.32-.1,0c0,.54,0,1.09-.08,1.64A22.77,22.77,0,0,1,83.88,69,26.16,26.16,0,0,1,82,75.36,20.88,20.88,0,0,1,79.06,80a18.44,18.44,0,0,1-4,3.6A20.45,20.45,0,0,1,63.5,87a21.49,21.49,0,0,1-11.4-3.37,20.76,20.76,0,0,1-6.27-6.11,18,18,0,0,1-2.95-8.3,20.5,20.5,0,0,1-.3-3.69,7,7,0,0,1,.26-2.27s0,.13,0,.37,0,.59,0,1c0,.81,0,1.83.06,2.72,0,.44,0,.84,0,1.17a2.75,2.75,0,0,1-.07.71A22.85,22.85,0,0,0,48.58,80a21.18,21.18,0,0,0,10.5,6.09,20.33,20.33,0,0,0,12.31-.91A19.72,19.72,0,0,0,81,77a23.28,23.28,0,0,0,2.44-5.77,26.94,26.94,0,0,0,.72-4.61,21.48,21.48,0,0,0-.18-4.09c.07.25.16.52.19.61a5.52,5.52,0,0,0,.3,1.09,1.84,1.84,0,0,0,0-.6,7.67,7.67,0,0,0-.26-1.1c-.09-.3-.21-.5-.26-.41-.09-.56-.2-1.12-.34-1.67,0-.09,0-.17-.07-.26a.3.3,0,0,1,0,.1l.22.5a8,8,0,0,0,.42,1.06s0-.25-.1-.59a8.56,8.56,0,0,0-.37-1.08c-.14-.29-.27-.48-.32-.38a18.4,18.4,0,0,0-.65-1.94c.13.24.32.54.36.63a6.18,6.18,0,0,0,.54,1,1.47,1.47,0,0,0-.17-.58c-.25-.68-.78-1.61-.85-1.38a0,0,0,0,0,0,0,18.91,18.91,0,0,0-.84-1.76l.09.13c.15.21.31.4.41.56l.16.23c.64.87.41.3,0-.45a9.92,9.92,0,0,0-.72-1c-.23-.26-.4-.4-.42-.31-.31-.51-.63-1-1-1.47l.1.07c.57.4,1.15.73,1.12.89,0-.17-.11-.36-.32-.57a5.32,5.32,0,0,0-.79-.63c-.22-.17-.45-.32-.64-.46A18,18,0,0,0,76.93,50l.23.16c.62.45,1.21.93,1.25,1,.59.47.72.54.61.36s-.18-.22-.35-.4l-.61-.58c-.94-.83-2.27-1.65-2.19-1.33,0,0,0,0,.07.08A19.06,19.06,0,0,0,74,48a23.06,23.06,0,0,0-3.51-1.53,13.46,13.46,0,0,0-3.48-.73c-.93,0-.09.3,0,.24a1.42,1.42,0,0,1-.52.23c.34.12.93.34,1.51.6a15.7,15.7,0,0,0,1.77.8c-.06.09-.46,0-1-.11l-.92-.19c-.33,0-.66-.11-1-.14s-.61-.06-.86-.07a2.58,2.58,0,0,0-.57.05c-.25.07-.18.2.4.46.8.4.81.58.47.64a15.9,15.9,0,0,1-1.71,0,10.74,10.74,0,0,0-1.55,0c-.24,0-.05.1.91.25a7.77,7.77,0,0,1,1.23.42c.49.2.94.43,1.11.48a21.87,21.87,0,0,1,6.83,3.32A15.41,15.41,0,0,1,78,58.6a18.25,18.25,0,0,1,1.66,7.09,17.43,17.43,0,0,1-1.25,7.06,14.8,14.8,0,0,1-4,5.61,15.78,15.78,0,0,1-6,3.24,16.62,16.62,0,0,1-6.69.44,17.49,17.49,0,0,1-6.3-2.13,15.77,15.77,0,0,1-5.59-5.33A15.2,15.2,0,0,1,48.12,71a17.21,17.21,0,0,1-.48-1.91,16.1,16.1,0,0,1-.22-2,19.06,19.06,0,0,1,0-2,18.68,18.68,0,0,1,.28-2A15.21,15.21,0,0,1,49,59.41a15.61,15.61,0,0,1,5.38-6,22.62,22.62,0,0,1,5.14-2.47c1.63-.56,3-.89,3.24-1.39s.14-.53-.16-.48-.71.16-1-.15.18-.79.33-.81l-.23,0c-.15,0-.37,0-.58,0-.42,0-.85-.08-.83-.18s.58-.2,1.1-.23,1-.13,1-.56c0-.2-.2-.35-.49-.46a3.87,3.87,0,0,0-1.15-.16,11.51,11.51,0,0,0-3.47.64,17.57,17.57,0,0,0-3.46,1.62c-.49.28-.91.58-1.27.81l-.65.45-.18.11.18-.11-.18.08-.87.46c-.62.35-1.13.56,0-.37.74-.6,1.15-.89,1.27-1s0-.11-.28,0a12.28,12.28,0,0,0-2.28,1.47,20.49,20.49,0,0,0-3.07,28.06A21.08,21.08,0,0,0,50,82.29,21.87,21.87,0,0,0,54.41,85a22.79,22.79,0,0,0,7,2,21.3,21.3,0,0,0,8-.6A20.67,20.67,0,0,0,77,82.48a20.05,20.05,0,0,0,5.39-6.78,26.44,26.44,0,0,0,1.09-2.5,18.19,18.19,0,0,0,.76-2.7A16.56,16.56,0,0,0,84.46,66.44ZM46.7,54.15A11.63,11.63,0,0,1,48.09,52a5.44,5.44,0,0,1,.69-.68,1,1,0,0,1,.55-.24c-.09,0-.26.13-.46.35a10.7,10.7,0,0,0-.66.85c-.45.66-.88,1.43-1.14,1.8a15.83,15.83,0,0,0-1,1.87c-.19.37-.36.74-.52,1s-.3.47-.44.52C45.39,57.39,45.84,55.74,46.7,54.15Zm-3.2,6.22a10.51,10.51,0,0,1,.4-1.71c.18-.48.36-.84.54-.91a7.65,7.65,0,0,0-.54,2.4c-.09.6-.14,1.2-.24,1.68a1.56,1.56,0,0,1-.38,1C43.35,62.77,43.32,61.6,43.5,60.37Z"/><path class="cls-3" d="M62,48.07h0Z"/><path class="cls-3" d="M66.22,46.16c0,.09.15.1.27.07Z"/><path class="cls-3" d="M59.56,46c.23-.13.45-.24.61-.34l.26-.17c-.2-.13-.7.07-1.16.33s-.9.51-1.06.43A1.62,1.62,0,0,0,59.56,46Z"/></g></g></g></svg>
