<svg xmlns="http://www.w3.org/2000/svg" viewBox="0 0 128 128" width="256" height="256">
    <defs>
        <style>.cls-1{fill:#69a239;}.cls-2{fill-rule:evenodd;}</style>
    </defs>
    <g id="Слой_2" data-name="Слой 2">
        <g id="Слой_1-2" data-name="Слой 1">
            <g id="symbol_ayin" data-name="symbol ayin">
                <polygon class="cls-1"
                         points="64 128 24.45 121.78 6.31 86.07 0 46.52 28.35 18.23 64 0 99.65 18.23 128 46.52 121.69 86.07 103.55 121.78 64 128"/>
                <path class="cls-2"
                      d="M86.09,33.68a3.4,3.4,0,0,0,.77,0,1,1,0,0,0,.33-.05c-.06-.19-.67-.46-1.29-.64s-1.21-.29-1.21-.29A1.49,1.49,0,0,0,86.09,33.68Z"/>
                <path class="cls-2"
                      d="M103.79,68.44c0-.6-.08-1.14-.14-1.6s-.13-.84-.19-1.1c-.11-.54-.18-.63-.19-.06,0,1-.07,2.11-.15,3.17a40.47,40.47,0,0,1-.46,4.52,40,40,0,0,1-1,4.45,44.43,44.43,0,0,1-2.79,8,40.56,40.56,0,0,1-5.62,8.91,36.1,36.1,0,0,1-7.77,7,39.82,39.82,0,0,1-22.46,6.62,41.69,41.69,0,0,1-22.14-6.55A40.47,40.47,0,0,1,28.74,89.88,35,35,0,0,1,23,73.76a39.71,39.71,0,0,1-.58-7.18c.08-3.14.42-4.36.51-4.4s.06.25,0,.72,0,1.15,0,1.93c0,1.56,0,3.55.1,5.26,0,.86.08,1.65.08,2.29A4.89,4.89,0,0,1,23,73.76,44.36,44.36,0,0,0,34.1,94.86,41.29,41.29,0,0,0,54.48,106.7a39.68,39.68,0,0,0,23.92-1.78A38.35,38.35,0,0,0,89,98.52,37.89,37.89,0,0,0,97,89a44,44,0,0,0,4.74-11.2,52.13,52.13,0,0,0,1.41-9,42,42,0,0,0-.35-7.93c.13.48.32,1,.36,1.18a11.74,11.74,0,0,0,.59,2.12,3,3,0,0,0-.07-1.16,15.9,15.9,0,0,0-.49-2.14c-.19-.6-.4-1-.51-.81-.18-1.09-.39-2.17-.65-3.23,0-.17-.1-.34-.14-.51a1.42,1.42,0,0,0,.08.18l.41,1a13.7,13.7,0,0,0,.83,2.06c.07,0,0-.49-.19-1.16a18.17,18.17,0,0,0-.73-2.08c-.28-.58-.52-1-.61-.75-.36-1.28-.79-2.54-1.27-3.77.25.47.62,1,.69,1.22a16.27,16.27,0,0,0,1.05,2c.07,0-.05-.49-.32-1.13-.49-1.31-1.53-3.14-1.65-2.68v.05a37,37,0,0,0-1.61-3.43l.17.25c.29.4.59.79.79,1.08l.32.45c1.25,1.7.78.58,0-.87a18,18,0,0,0-1.4-2c-.43-.51-.76-.79-.81-.61-.59-1-1.23-1.94-1.9-2.86l.19.13c1.1.78,2.23,1.44,2.18,1.74,0-.33-.22-.71-.63-1.11A10.41,10.41,0,0,0,95.9,42.8l-1.26-.9a36.09,36.09,0,0,0-5.47-5.51l.44.32c1.21.86,2.35,1.79,2.44,1.85,1.13.9,1.39,1,1.17.7a6.87,6.87,0,0,0-.67-.79c-.33-.33-.74-.72-1.19-1.12-1.82-1.63-4.4-3.22-4.26-2.59l.13.16a33,33,0,0,0-3.69-2.27,43.47,43.47,0,0,0-6.8-3A26.71,26.71,0,0,0,70,28.24c-1.81,0-.16.6-.07.49a3.65,3.65,0,0,1-1,.45c.66.22,1.82.65,3,1.16a31.26,31.26,0,0,0,3.42,1.55c-.1.17-.9,0-2-.22-.54-.1-1.15-.25-1.78-.36s-1.29-.21-1.9-.28-1.2-.11-1.68-.13A5.11,5.11,0,0,0,66.8,31c-.47.13-.34.4.79.91,1.55.77,1.56,1.11.91,1.22a30,30,0,0,1-3.32,0,23.32,23.32,0,0,0-3,.09c-.46.08-.1.2,1.77.48a15,15,0,0,1,2.39.83c1,.37,1.83.83,2.16.92a42.31,42.31,0,0,1,13.26,6.45,30.09,30.09,0,0,1,9.41,11.3A35.49,35.49,0,0,1,94.38,67,33.84,33.84,0,0,1,91.94,80.7a28.61,28.61,0,0,1-7.8,10.89,30.46,30.46,0,0,1-11.66,6.29,32.45,32.45,0,0,1-13,.86A33.91,33.91,0,0,1,47.25,94.6,30.45,30.45,0,0,1,36.38,84.25a29.67,29.67,0,0,1-3.18-6.88,29.17,29.17,0,0,1-.93-3.71,32.36,32.36,0,0,1-.44-3.82,29.26,29.26,0,0,1,.57-7.7,30,30,0,0,1,13-19.1,44.25,44.25,0,0,1,10-4.79c3.18-1.1,5.78-1.73,6.3-2.7s.28-1-.3-.93-1.39.29-1.9-.31.35-1.52.65-1.58l-.44,0c-.31,0-.72-.05-1.13-.1-.82-.08-1.64-.15-1.61-.36s1.12-.38,2.13-.45,2-.25,1.85-1.08c-.06-.39-.39-.68-1-.9a7.79,7.79,0,0,0-2.25-.3A22.25,22.25,0,0,0,51,30.76a34.51,34.51,0,0,0-6.72,3.14c-1,.56-1.78,1.13-2.48,1.59-.49.34-.91.64-1.25.86a2.65,2.65,0,0,1-.36.22l.36-.22-.35.15-1.7.91c-1.2.68-2.18,1.09-.05-.72,1.44-1.17,2.23-1.73,2.47-2s0-.22-.55,0a23.21,23.21,0,0,0-4.43,2.86A39.54,39.54,0,0,0,22.25,73.77,39.87,39.87,0,0,0,30,92.07a40.91,40.91,0,0,0,6.95,7.15,41.51,41.51,0,0,0,8.5,5.25A44.06,44.06,0,0,0,59,108.29a41.37,41.37,0,0,0,15.54-1.16,40.13,40.13,0,0,0,14.72-7.54A39,39,0,0,0,99.74,86.43c.75-1.48,1.45-3.15,2.11-4.86a34.4,34.4,0,0,0,1.48-5.25A32.19,32.19,0,0,0,103.79,68.44ZM30.43,44.56a23,23,0,0,1,2.71-4.16,9.65,9.65,0,0,1,1.34-1.32,1.86,1.86,0,0,1,1.07-.47c-.18,0-.51.25-.9.68a19.25,19.25,0,0,0-1.28,1.65c-.88,1.29-1.72,2.77-2.22,3.5a31.56,31.56,0,0,0-2,3.64c-.36.72-.69,1.42-1,2a2.48,2.48,0,0,1-.86,1C27.9,50.85,28.77,47.65,30.43,44.56ZM24.22,56.65A20.33,20.33,0,0,1,25,53.31c.35-.93.7-1.62,1.05-1.76-.29.12-.74,2.37-1,4.67-.17,1.15-.28,2.32-.46,3.25a3.19,3.19,0,0,1-.75,1.93C23.93,61.3,23.87,59,24.22,56.65Z"/>
                <path class="cls-2" d="M60.12,32.73h0Z"/>
                <path class="cls-2" d="M68.36,29c.08.17.29.19.52.15C68.55,29.06,68.35,29,68.36,29Z"/>
                <path class="cls-2"
                      d="M55.43,28.74c.44-.25.87-.47,1.17-.67l.5-.32c-.39-.25-1.36.13-2.25.64s-1.74,1-2.05.84C53.49,29.59,54.52,29.21,55.43,28.74Z"/>
            </g>
        </g>
    </g>
</svg>
