<svg xmlns="http://www.w3.org/2000/svg" viewBox="0 0 128 128" width="256" height="256"><defs><style>.cls-1{fill:#131414;}.cls-2,.cls-3{fill:#7ea232;}.cls-3{fill-rule:evenodd;}</style></defs><g id="Слой_2" data-name="Слой 2"><g id="Слой_1-2" data-name="Слой 1"><g id="decryptor_pe" data-name="decryptor pe"><polygon class="cls-1" points="64 127.02 25.09 120.9 7.25 85.77 1.04 46.85 28.92 19.02 64 1.09 99.08 19.02 126.96 46.85 120.75 85.77 102.91 120.9 64 127.02"/><path class="cls-2" d="M64,128l-39.55-6.22L6.31,86.07,0,46.52,28.35,18.23l.13-.07L64,0,99.65,18.23,128,46.52l-6.31,39.55-.07.14-18.07,35.57Zm-38.27-8L64,126l38.27-6,17.55-34.56,6.11-38.27L98.5,19.82,64,2.18,29.5,19.82,2.07,47.19,8.18,85.46Z"/><path class="cls-2" d="M93.46,26.23,64,11.17,34.54,26.23,11.11,49.61l5.22,32.68,15,29.51L64,116.94l32.69-5.14,15-29.51,5.22-32.68Zm10.72,53.19L91.55,104.29,64,108.63l-27.55-4.34L23.82,79.42,19.43,51.88l19.74-19.7L64,19.48l24.83,12.7,19.74,19.7Z"/><polygon class="cls-1" points="64 98.53 42.69 95.18 32.93 75.94 29.53 54.64 44.8 39.4 64 29.58 83.2 39.4 98.47 54.64 95.07 75.94 85.31 95.18 64 98.53"/><path class="cls-2" d="M64,100.17,41.63,96.65,31.37,76.45,27.8,54.07l16-16L64,27.76,84.17,38.07l16,16L96.63,76.45,86.37,96.65ZM43.76,93.71,64,96.89l20.24-3.18,9.28-18.27L96.75,55.2,82.24,40.72,64,31.4,45.76,40.72,31.25,55.2l3.23,20.24Z"/><line class="cls-1" x1="64" y1="16.87" x2="64" y2="29.58"/><rect class="cls-2" x="62.71" y="16.87" width="2.59" height="12.71"/><line class="cls-1" x1="111.19" y1="51.16" x2="98.47" y2="54.64"/><rect class="cls-2" x="98.24" y="51.6" width="13.18" height="2.59" transform="translate(-10.23 29.47) rotate(-15.27)"/><line class="cls-1" x1="93.16" y1="106.66" x2="85.31" y2="95.18"/><rect class="cls-2" x="87.94" y="93.96" width="2.59" height="13.91" transform="translate(-41.41 68.05) rotate(-34.39)"/><line class="cls-1" x1="64" y1="111.24" x2="64" y2="98.53"/><rect class="cls-2" x="62.71" y="98.53" width="2.59" height="12.72"/><line class="cls-1" x1="34.84" y1="106.66" x2="42.69" y2="95.18"/><rect class="cls-2" x="31.81" y="99.62" width="13.91" height="2.59" transform="translate(-66.39 75.85) rotate(-55.58)"/><line class="cls-1" x1="16.81" y1="51.16" x2="29.53" y2="54.64"/><rect class="cls-2" x="21.87" y="46.31" width="2.59" height="13.18" transform="translate(-33.97 61.31) rotate(-74.72)"/><line class="cls-1" x1="21.46" y1="80.33" x2="32.93" y2="75.94"/><rect class="cls-2" x="21.06" y="76.84" width="12.27" height="2.59" transform="translate(-26.1 14.86) rotate(-20.92)"/><line class="cls-1" x1="106.54" y1="80.33" x2="95.07" y2="75.94"/><rect class="cls-2" x="99.51" y="72" width="2.59" height="12.27" transform="matrix(0.36, -0.93, 0.93, 0.36, -8.19, 144.37)"/><line class="cls-1" x1="37.71" y1="30.3" x2="44.8" y2="39.4"/><rect class="cls-2" x="39.96" y="29.09" width="2.59" height="11.53" transform="translate(-12.71 32.71) rotate(-37.92)"/><line class="cls-1" x1="90.29" y1="30.3" x2="83.2" y2="39.4"/><rect class="cls-2" x="80.98" y="33.56" width="11.53" height="2.59" transform="translate(5.93 81.84) rotate(-52.06)"/><path class="cls-3" d="M60.3,52.17a1.42,1.42,0,0,0,0-.28.94.94,0,0,0,0-.14c-.13-.08-.38.59-.38.59C60.16,52.5,60.26,52.35,60.3,52.17Z"/><path class="cls-3" d="M57,55.44c.07.06.11,0,.13,0S56.94,55.43,57,55.44Z"/><path class="cls-3" d="M72,46.33c-.38.16-.78.33-1.14.51-1,.5-2.7,1.7-2.15,1.54l.82-.28c.66-.27,1.33-.54,2-.83l.78-.38,3.33-1.67v.21l0,0-.07,2v1.8l0,.45c0,.3,0,.59,0,.88,0,.59-.06,1.17-.1,1.76s-.1,1.16-.18,1.74l-.13.87c0,.28-.1.57-.16.85a57.14,57.14,0,0,1-1.72,6.15c-.68,2-1.42,3.88-2.28,6-.33.71-.62,1.44-1,2.15l-.53,1.06c-.17.35-.34.71-.54,1l-.59,1c-.2.34-.4.67-.63,1s-.45.63-.68.95l-.35.46L66.3,76c-.37.55-.61,1-1,1.64-1,1.38-.89,1-.47.23S65.91,76,66.3,76c.26-.5.5-1,.75-1.5s.53-1,.77-1.48.51-1,.77-1.45.49-1,.75-1.48c1-2,2-4,2.75-6A43.93,43.93,0,0,0,75.36,51.2l.09-1.2c0-.42.06-.8.08-1.27l0-1.32,0-2-3.32,1.49-.79.35c-.66.31-1.33.59-2,.83l-1.89.77.22-.21c1.18-1-.69.07-.42.29l-.86.35.22-.21c1.18-1-.69.08-.41.29l-.89.37a2.88,2.88,0,0,0,.24-.23c1.19-1-.72.09-.41.3h0l-.84.36.05,0a4.28,4.28,0,0,0,.33-.33c.69-.8-1.08.36-.82.58-.26.11-.51.23-.75.35.17-.36.28-.8.38-.73-.29-.19-.52.53-.75.91-.56.28-1.1.57-1.61.87.3-.24.6-.52.62-.53,1-1-1.64.6-1.23.87h0c-.3.19-.58.38-.86.58a26.79,26.79,0,0,0-2.87,2c-.3.37.15.3.13.23a1.11,1.11,0,0,1,0,.41A8.33,8.33,0,0,0,58.89,55c.16.37-2.75,1.81-1.24,1.86,2.1.06-2.42,2.13-.28,1.49.25-.08,1.33-.06,1.53-.12,2.84-1,5.35-2.75,8.18-3.9,1.21-.5,2.4-1,3.58-1.59h0l-.18.94c-.13.68-.32,1.35-.49,2s-.38,1.34-.6,2c-.87,2.65-1.93,5.18-2.93,7.7-.12.37-.3.72-.45,1.08s-.31.71-.48,1.06l-.52,1-.26.52c-.09.17-.2.34-.3.52l-.6,1c-.2.35-.44.68-.65,1s-.43.69-.66,1l-.71,1c-.22.34-.48.66-.73,1s-.49.65-.75,1c-.53.63-1,1.27-1.61,1.88a41,41,0,0,1-3.57,3.53,34.14,34.14,0,0,0-2.5,2.43c-.69.8-1.13,1.5-1,2s.23.51.34.38.25-.34.56-.12.35.83.28.81L53,86.5l.32-.09c.23-.06.48-.11.52,0,.16.32-1.1.47-.56,1.18s1.63,0,2.64-.9,1.8-1.94,2.23-2.3c0,0,0,0,.08-.07l-.08.07s1.58-.91.7,0c-1.36,1.43.19.46.8-.1a41.74,41.74,0,0,0,3.71-3.81c.56-.69,1.14-1.36,1.67-2.09.27-.35.54-.71.8-1.07l.76-1.11.38-.56.35-.57L68.06,74c.23-.39.44-.79.66-1.18s.46-.77.66-1.19.4-.82.61-1.23c.1-.2.21-.4.3-.61l.27-.63c.18-.42.36-.84.55-1.26l.48-1.28c.86-2.26,1.9-4.83,2.75-7.61a37.59,37.59,0,0,0,1.74-8.71c0-.23,0-.48.06-.73l0-.39c0-.14,0-.27,0-.45l.13-4.22Zm-10.89,36c-.42.88-.94,1.72-1.39,1.57.29.1.8-1.29,1.1-1.66.13-.17.36-.6.59-1s.49-.7.71-.64C61.82,80.6,61.49,81.51,61.06,82.37Zm2.45-2.67a4.59,4.59,0,0,1-.43.83c-.15.21-.31.34-.46.3.12,0,.32-.6.54-1.22s.52-1.22.88-1.14A9.15,9.15,0,0,0,63.51,79.7Z"/><path class="cls-3" d="M55.24,87.87a2.88,2.88,0,0,0-.15.61c.35.16.48-1.14.73-1C55.52,87.33,55.35,87.58,55.24,87.87Z"/></g></g></g></svg>
