<svg xmlns="http://www.w3.org/2000/svg" viewBox="0 0 128 128" width="256" height="256">
    <defs>
        <style>.cls-1{fill:#d88942;}.cls-2{fill-rule:evenodd;}</style>
    </defs>
    <g id="Слой_2" data-name="Слой 2">
        <g id="Слой_1-2" data-name="Слой 1">
            <g id="symbol_res" data-name="symbol res">
                <polygon class="cls-1"
                         points="64 128 24.45 121.78 6.31 86.07 0 46.52 28.35 18.23 64 0 99.65 18.23 128 46.52 121.69 86.07 103.55 121.78 64 128"/>
                <path class="cls-2"
                      d="M71.41,95.19c-.12-.1-.21-.16-.22-.15-.24.19.59,1.64.59,1.64.44-.35.29-.76,0-1.09A2.55,2.55,0,0,0,71.41,95.19Z"/>
                <path class="cls-2" d="M71.72,79h0Z"/>
                <path class="cls-2"
                      d="M73.74,32.59c-6,5.52-12.1,11.15-17.73,17.34C48.45,58.24,41.14,66.6,33.73,75L25.12,84.8l13-.32c7.83-.19,15.74-.36,23.74-.43,6.72-.06,8-.75,8.89-2.49s-1,0-1.77-1.24c-.42-.66,2.14-1.25,2.79-1.31-.51,0-2.2-.08-2.26-.09l-.28,0c-.24,0-.55-.1-.86-.18-.63-.14-1.25-.33-1.2-.51.15-.59,3.21.44,3.07-1.1-.26-2.74-6-.64-8.71-.64h0c-.13-.06-4.79-.61-1.37-.83,5.23-.35.42-.79-1.75-.79-3.68,0-7.37.07-11.07.16h0l-1.17,0c6-7,12-14,18.3-20.93,2.75-3,5.92-6.14,9.32-9.37h0c-.3,4.21-.57,8.44-.71,12.57-.07,2.17-.34,4.73-.41,7-.09,3,.31,8.47.52,7,.11-.77.21-1.54.29-2.32q.23-2.82.42-5.67c.28-6.25.11-12.73.42-19.08h0l.46-.43-.09,1.52h0q-.27,4.81-.41,9.61c-.07,2.81-.22,5.61-.4,8.39-.09,1.92-.22,3.81-.42,5.67s-.3,3.65-.45,5.44c0-.32-.12-.67-.13-.78-.39-3.22-.46-.14-.18,1-.55.24-1.05.44-1.2.26a1.32,1.32,0,0,0,1.46.17c-.07.8-.13,1.59-.19,2.38,0-.31-.12-.67-.13-.78-.48-4-.48,1.71.09,1.34-.07.85-.13,1.7-.19,2.54,0-.33-.13-.75-.14-.87-.49-4-.48,1.79.1,1.33a0,0,0,0,1,0,0c-.06.82-.11,1.62-.15,2.42l0-.17a11.58,11.58,0,0,0-.23-1.2c-.63-2.63-.36,3,.19,2.67,0,.73-.08,1.46-.1,2.19-.41-.88-1-1.68-.79-1.83-.55.43.37,1.88.75,2.93,0,1.64-.06,3.27,0,4.85-.11-1-.28-2.06-.29-2.13-.64-3.67-.47,4.6.3,4a.29.29,0,0,0,0-.08c0,.92.08,1.84.15,2.74.15,1.93.3,7.77.7,9.31.3,1.17.58,0,.46,0a2.18,2.18,0,0,1,.59.62c.25-1.15,1.19-4.65,1-4.68.71.1.43,8.72,1.79,5.27,1.9-4.8,1.22,8.37,2.06,2.59.1-.7,1-3.16,1.12-3.71,1-7.86.37-16,1-24,.62-7.86.91-15.83,1-23.72.11-7.5.78-15.08,1.4-22.76l1.1-13.47Zm-16,42.74c-.39-.46-3.89.69-5.15.79s-4.92,1.06-5.51.36C47.69,77.26,56.47,73.89,57.69,75.33ZM74.3,43.84h0l0-.61v-.1l-.5.48-.06.74h0c-4,3.92-8,7.87-12,12.34C56.23,62.73,51.2,69,45.4,74.78l-.21.26h0l.19-.25h0c8.18-11.45,18.21-21.43,28.43-31.17h0l.5-.48h0l.47-.44,0,.71Z"/>
                <path class="cls-2" d="M74,107.6c.15-.08.13-.22.05-.36C74,107.47,74,107.61,74,107.6Z"/>
            </g>
        </g>
    </g>
</svg>
