<svg xmlns="http://www.w3.org/2000/svg" viewBox="0 0 128 128" width="256" height="256"><defs><style>.cls-1{fill:#131414;}.cls-2,.cls-3{fill:#9fa23b;}.cls-3{fill-rule:evenodd;}</style></defs><g id="Слой_2" data-name="Слой 2"><g id="Слой_1-2" data-name="Слой 1"><g id="decryptor_tsade" data-name="decryptor tsade"><polygon class="cls-1" points="64 127.02 25.09 120.9 7.25 85.77 1.04 46.85 28.92 19.02 64 1.09 99.08 19.02 126.96 46.85 120.75 85.77 102.91 120.9 64 127.02"/><path class="cls-2" d="M64,128l-39.55-6.22L6.31,86.07,0,46.52,28.35,18.23l.13-.07L64,0,99.65,18.23,128,46.52l-6.31,39.55-.07.14-18.07,35.57Zm-38.27-8L64,126l38.27-6,17.55-34.56,6.11-38.27L98.5,19.82,64,2.18,29.5,19.82,2.07,47.19,8.18,85.46Z"/><path class="cls-2" d="M93.46,26.23,64,11.17,34.54,26.23,11.11,49.61l5.22,32.68,15,29.51L64,116.94l32.69-5.14,15-29.51,5.22-32.68Zm10.72,53.19L91.55,104.29,64,108.63l-27.55-4.34L23.82,79.42,19.43,51.88l19.74-19.7L64,19.48l24.83,12.7,19.74,19.7Z"/><polygon class="cls-1" points="64 98.53 42.69 95.18 32.93 75.94 29.53 54.64 44.8 39.4 64 29.58 83.2 39.4 98.47 54.64 95.07 75.94 85.31 95.18 64 98.53"/><path class="cls-2" d="M64,100.17,41.63,96.65,31.37,76.45,27.8,54.07l16-16L64,27.76,84.17,38.07l16,16L96.63,76.45,86.37,96.65ZM43.76,93.71,64,96.89l20.24-3.18,9.28-18.27L96.75,55.2,82.24,40.72,64,31.4,45.76,40.72,31.25,55.2l3.23,20.24Z"/><line class="cls-1" x1="64" y1="16.87" x2="64" y2="29.58"/><rect class="cls-2" x="62.71" y="16.87" width="2.59" height="12.71"/><line class="cls-1" x1="111.19" y1="51.16" x2="98.47" y2="54.64"/><rect class="cls-2" x="98.24" y="51.6" width="13.18" height="2.59" transform="translate(-10.23 29.47) rotate(-15.27)"/><line class="cls-1" x1="93.16" y1="106.66" x2="85.31" y2="95.18"/><rect class="cls-2" x="87.94" y="93.96" width="2.59" height="13.91" transform="translate(-41.4 68.05) rotate(-34.39)"/><line class="cls-1" x1="64" y1="111.24" x2="64" y2="98.53"/><rect class="cls-2" x="62.71" y="98.53" width="2.59" height="12.72"/><line class="cls-1" x1="34.84" y1="106.66" x2="42.69" y2="95.18"/><rect class="cls-2" x="31.81" y="99.62" width="13.91" height="2.59" transform="translate(-66.4 75.87) rotate(-55.59)"/><line class="cls-1" x1="16.81" y1="51.16" x2="29.53" y2="54.64"/><rect class="cls-2" x="21.87" y="46.31" width="2.59" height="13.18" transform="translate(-33.97 61.31) rotate(-74.72)"/><line class="cls-1" x1="21.46" y1="80.33" x2="32.93" y2="75.94"/><rect class="cls-2" x="21.06" y="76.84" width="12.27" height="2.59" transform="translate(-26.11 14.86) rotate(-20.92)"/><line class="cls-1" x1="106.54" y1="80.33" x2="95.07" y2="75.94"/><rect class="cls-2" x="99.51" y="72" width="2.59" height="12.27" transform="translate(-8.19 144.37) rotate(-69.06)"/><line class="cls-1" x1="37.71" y1="30.3" x2="44.8" y2="39.4"/><rect class="cls-2" x="39.96" y="29.09" width="2.59" height="11.53" transform="translate(-12.71 32.71) rotate(-37.92)"/><line class="cls-1" x1="90.29" y1="30.3" x2="83.21" y2="39.4"/><rect class="cls-2" x="80.98" y="33.56" width="11.53" height="2.59" transform="translate(5.93 81.84) rotate(-52.06)"/><path class="cls-3" d="M53.27,50.35c.11-.09-.46-.28-.46-.28C52.41,50.42,53.26,50.36,53.27,50.35Z"/><path class="cls-3" d="M50.62,47.83c-.08.05-.06.08,0,.1S50.63,47.83,50.62,47.83Z"/><path class="cls-3" d="M65.83,87.31c-.46.4.64.59.64.59C66.74,87.67,65.63,87.49,65.83,87.31Z"/><path class="cls-3" d="M82.68,60.19c.13.05,0-.55,0-.55C82.23,59.45,82.66,60.18,82.68,60.19Z"/><path class="cls-3" d="M74.55,66.81l-2,2.15L71.09,66.5c-.54-.92-1.1-1.85-1.55-2.82A55.88,55.88,0,0,0,65.67,56c-.23-.35-.47-.69-.71-1l-.1.11c.41.59.82,1.19,1.22,1.8,1.7,2.62,2.89,6.56,4.56,9.91l1.51,3,2.79-2.64.34-.32c.42-.4,1-.8,1.41-1.22s1.35-1.76,1-1.56l-.52.34c-.4.32-.8.64-1.2,1S75,66.32,74.55,66.81Z"/><path class="cls-3" d="M83.75,57.07a1.51,1.51,0,0,1-.14-.34c-.31.13-1.32.45-1.23.54-.28-.28,1.35-1.86.17-1.7-1.64.21,1-2.1-.42-1.29-.16.1-1,.22-1.12.3-1.78,1.17-3,3-4.64,4.31-.92.73-1.81,1.51-2.67,2.32h0a43.44,43.44,0,0,0-3.52-7.59c-.66-1-1.33-2-2-3L65.61,47l-2.93,2.79c-2.57,2.46-5.07,5-7.74,7.4-.25-.49-.5-.84-.49-.6s0,.42.06.63.05.2.07.3h0l-.06-.31-.27-1.43.15.17c.63.88.09-.52-.17-.31,0-.22-.09-.43-.13-.65,0,.07.13.14.14.17.63.88.1-.52-.17-.31,0-.22-.09-.45-.14-.66,0,.07.14.15.16.18.63.89.09-.54-.18-.31h0l-.15-.62a3.16,3.16,0,0,0,.27.29c.58.51-.09-.81-.35-.62l-.15-.56c.3.13.68.21.59.29.25-.22-.37-.39-.67-.57-.13-.41-.28-.81-.44-1.2.16.23.35.45.36.47.68.77-.18-1.23-.53-.92,0,0,0,0,0,0a5.75,5.75,0,0,0-.34-.65,12.6,12.6,0,0,0-1.23-2.14c-.27-.23-.32.11-.25.1a1.53,1.53,0,0,1-.37,0c0,.34-.19,1.38-.08,1.35-.38.11-1-2.06-1.44-.93-.56,1.56-1.42-1.82-1.33-.23,0,.19-.26,1-.25,1.14.23,2.12,1.3,4,1.71,6.11a47.12,47.12,0,0,0,1.67,6c1.31,3.81,1.43,8.16,3.05,12.09C55.82,78,58,82.35,59.9,87c.65,1.58,1.72,3.39,2.76,3.23s-.08-.24.52-.67c.37-.27.86-.19.82-.14s0-.68.18-.74.06.85.89.5c1.48-.64-.75-3.11-1-3.85,0,0,0,0,0-.07l0,.07s-.11-1.26.33-.5c.67,1.17.47-.07.27-.58-1.74-4.41-4.21-8.59-6.06-13.14-1-2.41-1.46-5.67-2.17-8.78.51-.6,1-1.28,1.21-1.5a.16.16,0,0,1,.06-.05l-.06.05s1.16-.52.58.15c-.86,1,.23.42.64.06,2.09-1.84,4-3.88,6-5.92l-.14-.2c-.33.28-.66.55-1,.8s-.51.64-.85,1c-1.54,1.69.22-1.22.85-1,.22-.33.45-.64.68-.94l.12-.16.22.3.11-.1c-.08-.1-.15-.21-.23-.32l.27-.34L65,54h0a.71.71,0,0,1,.1.14l.17.27c-.13.13-.27.25-.41.37,0,.07.09.13.13.19l.39-.4.34.53c2.15,3.54,3.47,7.61,5.42,11.21l.08.14,1.23,2.3,2-2c.48-.48,1-.92,1.51-1.35a10.08,10.08,0,0,1,1.2-1l1.13-.88c0,.07-.06.17-.08.2-.49,1,.5-.15.2-.29l.51-.41a1.14,1.14,0,0,1-.08.2c-.49,1,.5-.15.2-.29l.52-.43c0,.08-.07.2-.09.23-.5,1,.52-.17.19-.3h0l.49-.41a1.76,1.76,0,0,0-.13.36c-.19.76.67-.44.39-.59l.42-.39c0,.33.12.7,0,.66.31.12.18-.51.2-.86a12.62,12.62,0,0,0,.87-.93,4.32,4.32,0,0,0-.25.53c-.37,1,1-.72.57-.89a0,0,0,0,0,0,0c.14-.2.28-.39.41-.6A12.54,12.54,0,0,0,84,57.25C84,56.9,83.71,57,83.75,57.07Zm-27.7,6.07c0-.12-.07-.24-.1-.37l.18-.18c.06.18.11.36.16.55C56.18,63.08,56.1,63.09,56.05,63.14Zm8.26,21c.21-.19-.74-.78-.91-1.06s-1-.94-.71-1.22C62.33,82.19,65,83.56,64.31,84.15Zm-1.22-2.63c.18-.16-1.7-1-1.17-1.51C61.82,80.1,63.53,81.14,63.09,81.52ZM56.45,63.71A55.25,55.25,0,0,0,58.82,72a59.15,59.15,0,0,1,2.44,5.82c.22.4.43.7.67,1.15,1.07,2-1.08-.62-.67-1.15-3.14-4.16-3.87-9.3-5.09-14.19,0-.24,0-.51.12-.49C56.35,63.33,56.4,63.52,56.45,63.71Zm2.33-3.06c.24.14.48-.95.68-1.2s.54-1.29.92-1.08C60,58.13,59.56,61.09,58.78,60.65Zm2.06-2c.21.12.41-2,1-1.61C61.75,57,61.34,58.92,60.84,58.63Z"/><path class="cls-3" d="M83.7,56.68c-.08,0-.1,0-.09,0Z"/></g></g></g></svg>
