<svg xmlns="http://www.w3.org/2000/svg" viewBox="0 0 128 128" width="256" height="256"><defs><style>.cls-1{fill:#131414;}.cls-2,.cls-3{fill:#bb933a;}.cls-3{fill-rule:evenodd;}</style></defs><g id="Слой_2" data-name="Слой 2"><g id="Слой_1-2" data-name="Слой 1"><g id="decryptor_qoph" data-name="decryptor qoph"><polygon class="cls-1" points="64 127.02 25.09 120.9 7.25 85.77 1.04 46.85 28.92 19.02 64 1.09 99.08 19.02 126.96 46.85 120.75 85.77 102.91 120.9 64 127.02"/><path class="cls-2" d="M64,128l-39.55-6.22L6.31,86.07l0-.15L0,46.52,28.35,18.23l.13-.07L64,0,99.65,18.23,128,46.52l-6.31,39.55-.07.14-18.07,35.57Zm-38.27-8L64,126l38.27-6,17.55-34.56,6.11-38.27L98.5,19.82,64,2.18,29.5,19.82,2.07,47.19,8.18,85.46Z"/><path class="cls-2" d="M93.46,26.23,64,11.17,34.54,26.23,11.11,49.61l5.22,32.68,15,29.51L64,116.94l32.69-5.14,15-29.51,5.22-32.68Zm10.72,53.19L91.55,104.29,64,108.63l-27.55-4.34L23.82,79.42,19.43,51.88l19.74-19.7L64,19.48l24.83,12.7,19.74,19.7Z"/><polygon class="cls-1" points="64 98.53 42.69 95.18 32.93 75.94 29.53 54.64 44.8 39.4 64 29.58 83.2 39.4 98.47 54.64 95.07 75.94 85.31 95.18 64 98.53"/><path class="cls-2" d="M64,100.17,41.63,96.65,31.37,76.45,27.8,54.07l16-16L64,27.76,84.17,38.07l16,16L96.63,76.45,86.37,96.65ZM43.76,93.71,64,96.89l20.24-3.18,9.28-18.27L96.75,55.2,82.24,40.72,64,31.4,45.76,40.72,31.25,55.2l3.23,20.24Z"/><line class="cls-1" x1="64" y1="16.87" x2="64" y2="29.58"/><rect class="cls-2" x="62.71" y="16.87" width="2.59" height="12.71"/><line class="cls-1" x1="111.19" y1="51.16" x2="98.47" y2="54.64"/><rect class="cls-2" x="98.24" y="51.6" width="13.18" height="2.59" transform="translate(-10.23 29.47) rotate(-15.27)"/><line class="cls-1" x1="93.16" y1="106.66" x2="85.31" y2="95.18"/><rect class="cls-2" x="87.94" y="93.96" width="2.59" height="13.91" transform="translate(-41.4 68.05) rotate(-34.39)"/><line class="cls-1" x1="64" y1="111.24" x2="64" y2="98.53"/><rect class="cls-2" x="62.71" y="98.53" width="2.59" height="12.72"/><line class="cls-1" x1="34.84" y1="106.66" x2="42.69" y2="95.18"/><rect class="cls-2" x="31.81" y="99.62" width="13.91" height="2.59" transform="translate(-66.39 75.85) rotate(-55.58)"/><line class="cls-1" x1="16.81" y1="51.16" x2="29.53" y2="54.64"/><rect class="cls-2" x="21.87" y="46.31" width="2.59" height="13.18" transform="translate(-33.97 61.31) rotate(-74.72)"/><line class="cls-1" x1="21.46" y1="80.33" x2="32.93" y2="75.94"/><rect class="cls-2" x="21.06" y="76.84" width="12.27" height="2.59" transform="translate(-26.1 14.86) rotate(-20.92)"/><line class="cls-1" x1="106.54" y1="80.33" x2="95.07" y2="75.94"/><rect class="cls-2" x="99.51" y="72" width="2.59" height="12.27" transform="matrix(0.36, -0.93, 0.93, 0.36, -8.19, 144.37)"/><line class="cls-1" x1="37.71" y1="30.3" x2="44.8" y2="39.4"/><rect class="cls-2" x="39.96" y="29.09" width="2.59" height="11.53" transform="translate(-12.71 32.71) rotate(-37.92)"/><line class="cls-1" x1="90.29" y1="30.3" x2="83.21" y2="39.4"/><rect class="cls-2" x="80.98" y="33.56" width="11.53" height="2.59" transform="translate(5.93 81.84) rotate(-52.06)"/><path class="cls-3" d="M75.11,67.66c.2.11.77-.31.77-.31C75.2,67,75.1,67.65,75.11,67.66Z"/><path class="cls-3" d="M81.38,66.15a.19.19,0,0,0-.23,0Z"/><path class="cls-3" d="M83.88,61.45A7.66,7.66,0,0,0,83.56,60c-.17-.51-.33-1-.52-1.51s-.44-.92-.64-1.34l-.15-.3c0-.1-.11-.19-.16-.28s-.2-.34-.28-.49-.23-.4-.3-.55c0,0,0,0-.08-.16,0,.05,0,.1.08.16a6,6,0,0,0-.32-.91c-.19-.54-.3-1,.37,0,.23.31.37.57.49.75a2.57,2.57,0,0,0,.26.35c.11.11.11,0,0-.25s-.08-.27-.14-.44a3.4,3.4,0,0,0-.23-.53c-.19-.36-.4-.73-.57-1a19.5,19.5,0,0,0-5.9-5.89,19.7,19.7,0,0,0-7.78-2.9,20.69,20.69,0,0,0-8.22.46,21,21,0,0,0-7.38,3.63,23.77,23.77,0,0,0-5.91,6.43,21.15,21.15,0,0,0-3,9.36l-.15,2.19,2.51.17c2.33.16,4.7.3,7,.36,1.26,0,2.78.16,4.13.18,1.74,0,4.9-.24,4-.34l-1.37-.14L56,66.75q-1.38,0-2.76-.06c-2.53,0-5.09,0-7.61-.1l-2.22-.09.16-2c0-.4.07-.79.11-1.18a18.82,18.82,0,0,1,.44-2.53,11.81,11.81,0,0,1,.34-1.2c.13-.39.24-.79.39-1.17l.48-1.12.24-.55.28-.53.57-1c.2-.34.44-.66.65-1a22.85,22.85,0,0,1,3-3.62l.91-.8.45-.4.5-.36c.32-.25.66-.49,1-.74s.71-.44,1.07-.67A20.9,20.9,0,0,1,60.54,45a16.46,16.46,0,0,1,7.09,0,5.83,5.83,0,0,1,.73.1l.69.13.73.13c.25.05.5.13.77.21a13.82,13.82,0,0,1,1.33.45c.26.13.38.2.38.23s-.11,0-.3,0l-.34-.09-.44-.09c-.64-.15-1.42-.39-2.12-.52A4.41,4.41,0,0,1,67.63,45a25.43,25.43,0,0,0-8.47.92,22.62,22.62,0,0,0-7.5,3.76,21.08,21.08,0,0,0-5.51,6.46,19.47,19.47,0,0,0-2.39,8.34l-.08,1.72,1.9.1c1.85.1,3.71.18,5.57.22,1.59,0,3.2.1,4.8.19,1.14,0,2.28.1,3.41.19l3,.18v0l-.18,0c-1.46.2-.56.24.16.16-.34,2.35-.93,4.93-1.12,7.38,0,.53-.19,1.15-.23,1.71-.06.72.17,2.07.29,1.71.06-.19.12-.38.16-.57q.14-.69.24-1.38c.17-1.61.05-3.28.27-4.91.18-1.39.38-2.67.53-4l.3,0c-.32,2.3-.73,4.59-.87,6.87a20.4,20.4,0,0,1-.23,2,9,9,0,0,1-.24,1.38c-.08.45-.17.89-.25,1.33,0-.07-.07-.16-.07-.19-.28-1-.28.42,0,.33,0,.2-.07.4-.11.6a1.15,1.15,0,0,0-.07-.19c-.27-1-.27.41,0,.32,0,.21-.07.42-.11.63a1.59,1.59,0,0,0-.08-.22c-.27-1-.27.44.06.33h0q-.06.3-.09.6c-.06-.18-.15-.35-.14-.34-.37-.64-.21.72.1.65l-.06.53c-.23-.21-.55-.41-.45-.44-.31.1.22.46.43.71,0,.41,0,.8,0,1.19a3.74,3.74,0,0,0-.17-.52c-.36-.9-.26,1.12.17,1l0,0c0,.23,0,.45.08.67a11.53,11.53,0,0,0,.4,2.28c.17.29.33,0,.26,0a1.87,1.87,0,0,1,.34.16c.14-.28.67-1.14.55-1.15.4,0,.24,2.13,1,1.29,1.08-1.17.69,2.05,1.17.63.06-.17.6-.77.64-.9.54-1.93.21-3.91.57-5.88a39.17,39.17,0,0,0,.58-5.8,65,65,0,0,1,1.13-7.47c.62,0,1.49-.17,1.31-.32H70l-.07,0c-.37.22-.67.49-.81.4.29.2.7,0,1.09-.22a3.48,3.48,0,0,1,.44-.21c1,0,1.92,0,2.84-.08-.55.07-1.12.18-1.16.18-2,.4,2.85.12,2.24-.22a.08.08,0,0,0-.06,0l1.54-.13c1.08-.11,4.4-.31,5.12-.51.56-.15-.2-.25-.18-.2a.34.34,0,0,1,.12-.25c-.75-.09-3.07-.45-3-.36-.19-.31,4.73-.27,2.28-.81-3.36-.8,4.13-.5.62-.85-.42,0-2.12-.45-2.44-.49-2.3-.24-4.47-.33-6.64-.4-1.41,0-2.83-.08-4.26-.15C67.55,58.7,67.09,54.4,67,50l.87.17a14.72,14.72,0,0,1,9.78,7.54c.15.34.35.67.51,1s.3.71.46,1.07a3.39,3.39,0,0,1,.2.53c.07.18.13.36.2.53l.2.51c.06.17.11.34.16.5.11.33.22.64.34.92l0,.1,0,0h.08a.62.62,0,0,1,.21,0,1.23,1.23,0,0,1,.57.14,2,2,0,0,1,.47.34c.27.25.37.38.41.4s0,0-.07-.15a2.09,2.09,0,0,1-.18-.25c0-.07,0-.11.14-.12a.76.76,0,0,1,.58.21c.16.13.26.32.23.34s0-.07,0-.19,0-.28.08-.44a4.32,4.32,0,0,1,.11-.48c0-.13.08-.21.13-.21s.15.11.16.32,0,.45,0,.71c0,.5,0,1,.41,1.22.17.09.35,0,.52-.3A3.73,3.73,0,0,0,84,62.94c0-.15,0-.32,0-.48l0-.32A5.85,5.85,0,0,0,83.88,61.45ZM63.14,62.73l-.51,0a35.28,35.28,0,0,1-.2-5.24c-.06-.42-.14-.75-.21-1.22-.29-2.11.78.9.21,1.22A16.85,16.85,0,0,1,63.14,62.73Zm-1.3-11.79c-.27.09.41.92.47,1.21s.63,1.16.23,1.31C63,53.3,61,51.23,61.84,50.94Zm.2,2.69c-.23.07,1.22,1.47.55,1.7C62.72,55.28,61.5,53.81,62,53.63Zm.45-3.58s0,0,0,.06v-.06c-.05.07-.35,1.11-.49.32a2.57,2.57,0,0,0-.09-.39c.19,0,.38-.07.57-.09A.92.92,0,0,1,62.49,50.05Zm-9.7,12.14c-1.32,0-2.66-.09-4-.18h0a16.62,16.62,0,0,1,2-4.54l.55-.76.27-.37c.09-.13.2-.24.3-.36l.6-.7c.21-.23.44-.43.65-.65.41-.46.92-.82,1.37-1.24.23-.2.5-.36.74-.56a6.86,6.86,0,0,1,.76-.53A15.2,15.2,0,0,1,61.65,50a2.84,2.84,0,0,0-.1.76c.05,3.92.7,7.86.93,11.9C59.19,62.43,56,62.27,52.79,62.19Zm9.68,4.93h.12l-.12,0Zm5.39.24-.41.08s0-.07,0-.1h.39Zm7.83-19.18L75.11,48l-.69-.2a11.27,11.27,0,0,1-1.29-.45c-.37-.13-.64-.3-.69-.51,0,.09,1,.2,1.92.55s1.89.82,1.91,1.16C76.26,48.44,76,48.32,75.69,48.18ZM81,53.25c.07-.18-.38-.58-.87-1-.25-.2-.5-.43-.75-.61a4.77,4.77,0,0,1-.61-.46,10.6,10.6,0,0,0-1.38-1c-.57-.37-1-.76-1.06-1,0,.14.33.36.79.64l.81.46a10.14,10.14,0,0,1,.89.57c.3.21.6.42.89.64a7.76,7.76,0,0,1,.71.68C80.78,52.58,81.05,53,81,53.25Z"/><path class="cls-3" d="M85,62.33a.52.52,0,0,0-.06-.22,3,3,0,0,0-.29-.55c-.23-.37-.47-.72-.36-.85-.24.29-.07.72.15,1.09.12.19.24.36.34.49l.07.08.06.13,0,.11a.25.25,0,0,0,0-.13A.86.86,0,0,0,85,62.33Z"/><path class="cls-3" d="M60.14,84c-.14,0,.33.41.33.41C61,84.21,60.15,84,60.14,84Z"/><path class="cls-3" d="M61.73,87c.08,0,.07-.05,0-.08S61.71,87.05,61.73,87Z"/></g></g></g></svg>
