<svg xmlns="http://www.w3.org/2000/svg" viewBox="0 0 128 128" width="256" height="256"><defs><style>.cls-1{fill:#131414;}.cls-2,.cls-3{fill:#b72e6f;}.cls-3{fill-rule:evenodd;}</style></defs><g id="Слой_2" data-name="Слой 2"><g id="Слой_1-2" data-name="Слой 1"><g id="decryptor_beth" data-name="decryptor beth"><polygon class="cls-1" points="64 127.02 25.09 120.9 7.25 85.77 1.04 46.85 28.92 19.02 64 1.09 99.08 19.02 126.96 46.85 120.75 85.77 102.91 120.9 64 127.02"/><path class="cls-2" d="M64,128l-39.55-6.22L6.31,86.07l0-.15L0,46.52,28.35,18.23l.13-.07L64,0,99.65,18.23,128,46.52l-6.31,39.55-.07.14-18.07,35.57Zm-38.27-8L64,126l38.27-6,17.55-34.56,6.11-38.27L98.5,19.82,64,2.18,29.5,19.82,2.07,47.19,8.18,85.46Z"/><path class="cls-2" d="M93.46,26.23,64,11.17,34.54,26.23,11.11,49.61l5.22,32.68,15,29.51L64,116.94l32.69-5.14,15-29.51,5.22-32.68Zm10.72,53.19L91.55,104.29,64,108.63l-27.55-4.34L23.82,79.42,19.43,51.88l19.74-19.7L64,19.48l24.83,12.7,19.74,19.7Z"/><polygon class="cls-1" points="64 98.53 42.69 95.18 32.93 75.94 29.53 54.64 44.8 39.4 64 29.58 83.2 39.4 98.47 54.64 95.07 75.94 85.31 95.18 64 98.53"/><path class="cls-2" d="M64,100.17,41.63,96.65,31.37,76.45,27.8,54.07l16-16L64,27.76,84.17,38.07l16,16L96.63,76.45,86.37,96.65ZM43.76,93.71,64,96.89l20.24-3.18,9.28-18.27L96.75,55.2,82.24,40.72,64,31.4,45.76,40.72,31.25,55.2l3.23,20.24Z"/><line class="cls-1" x1="64" y1="16.87" x2="64" y2="29.58"/><rect class="cls-2" x="62.71" y="16.87" width="2.59" height="12.72"/><line class="cls-1" x1="111.19" y1="51.16" x2="98.47" y2="54.64"/><rect class="cls-2" x="98.24" y="51.6" width="13.18" height="2.59" transform="translate(-10.23 29.47) rotate(-15.27)"/><line class="cls-1" x1="93.16" y1="106.66" x2="85.31" y2="95.18"/><rect class="cls-2" x="87.94" y="93.96" width="2.59" height="13.91" transform="translate(-41.4 68.05) rotate(-34.39)"/><line class="cls-1" x1="64" y1="111.24" x2="64" y2="98.53"/><rect class="cls-2" x="62.71" y="98.53" width="2.59" height="12.71"/><line class="cls-1" x1="34.84" y1="106.66" x2="42.69" y2="95.18"/><rect class="cls-2" x="31.81" y="99.62" width="13.91" height="2.59" transform="translate(-66.4 75.87) rotate(-55.59)"/><line class="cls-1" x1="16.81" y1="51.16" x2="29.53" y2="54.64"/><rect class="cls-2" x="21.87" y="46.31" width="2.59" height="13.18" transform="translate(-33.97 61.31) rotate(-74.72)"/><line class="cls-1" x1="21.46" y1="80.33" x2="32.93" y2="75.94"/><rect class="cls-2" x="21.06" y="76.84" width="12.27" height="2.59" transform="translate(-26.11 14.86) rotate(-20.92)"/><line class="cls-1" x1="106.54" y1="80.33" x2="95.07" y2="75.94"/><rect class="cls-2" x="99.51" y="72" width="2.59" height="12.27" transform="translate(-8.19 144.37) rotate(-69.06)"/><line class="cls-1" x1="37.71" y1="30.3" x2="44.79" y2="39.4"/><rect class="cls-2" x="39.96" y="29.09" width="2.59" height="11.53" transform="translate(-12.71 32.71) rotate(-37.92)"/><line class="cls-1" x1="90.29" y1="30.3" x2="83.2" y2="39.4"/><rect class="cls-2" x="80.98" y="33.56" width="11.53" height="2.59" transform="translate(5.93 81.84) rotate(-52.06)"/><path class="cls-3" d="M65.44,76.79a1.41,1.41,0,0,0-.32.13L65,77c.08.17,1.12,0,1.12,0A.51.51,0,0,0,65.44,76.79Z"/><path class="cls-3" d="M73.3,77.91c0-.09-.12-.11-.22-.1C73.21,77.89,73.3,77.93,73.3,77.91Z"/><path class="cls-3" d="M80.09,70.59c0-.77,0-1.54-.11-2.31s-.12-1.52-.19-2.28c0-.37-.08-.77-.13-1.15l-.06-.58a4.6,4.6,0,0,0-.09-.6c-.08-.41-.15-.84-.25-1.23s-.18-.79-.3-1.17c-.22-.78-.47-1.54-.76-2.29a34.34,34.34,0,0,0-4.69-8.24,49.57,49.57,0,0,0-6.38-6.9l-.82-.73c-.29-.25-.57-.49-.94-.78l-1.05-.85-.85,1.11c-4.69,6.08-11.15,13.1-16.64,20-.81,1-1.81,2.15-2.68,3.22L41.61,69l4,1.35.37.13c1.83.61,5.35,1.44,4.45,1-.44-.2-.9-.39-1.36-.58-1.08-.41-2.17-.82-3.27-1.22l-.34-.12-2.75-1,0,0,0,0,2-2.33.21-.26c2.69-3.32,5.27-7,8-10.29,3.76-4.54,7.12-8.48,10.63-13l.8-1,1,.79c.61.5,1.16,1,1.75,1.54s1.18,1.11,1.77,1.7a47.39,47.39,0,0,1,5.25,6.14,26.15,26.15,0,0,1,3.72,7.29,24.05,24.05,0,0,1,1.11,3.3c.11.36.16.69.22,1s.09.5.11.67a1.32,1.32,0,0,1,0,.5,6.31,6.31,0,0,1-.37-1.23c-.09-.38-.22-.8-.34-1.22s-.25-.85-.36-1.25-.23-.76-.3-1.06a2,2,0,0,1-.07-.67,46.53,46.53,0,0,0-5.6-8.85q-1.6-2-3.37-3.91c-.59-.63-1.2-1.24-1.82-1.84s-1.23-1.19-1.93-1.77l-.66-.56-.59.73c-5.13,6.37-10.55,12.52-15.53,18.88C47.18,63.18,46,64.58,44.88,66l-.21.26-1.92,2.35,2.72,1,.34.12c1.11.38,2.21.79,3.27,1.22l3.29,1.25-.51-.07c-2.57-.5,1,.57.85.21l1.51.56c-.21,0-.44-.06-.51-.07-2.58-.51,1,.57.85.2l1.56.58-.57-.09c-2.59-.5,1.05.6.85.2a0,0,0,0,1,0,0l1.48.54-.11,0c-.41-.07-.8-.11-.79-.11-1.74-.16,1.81.76,1.7.41L60,75c-.62,0-1.21.2-1.28.07.19.37,1.24.16,2,.16,1,.33,2,.65,3,.94-.65-.14-1.34-.25-1.38-.25-2.4-.36,2.8,1.12,2.54.6,0,0,0,0,0,0l1.74.44c1.23.28,4.91,1.31,5.93,1.39.79.06.12-.3.07-.25a1.55,1.55,0,0,1,.48-.2,25.87,25.87,0,0,0-2.77-1.39c.17-.36,5.37,1.42,3.43,0-2.7-1.91,1.18-1.24-2.31-2.78-.41-.19-1.8-1.16-2.14-1.3-4.76-2-5.54-1-10.48-2.9-2.84-1.07-5.73-2.09-8.64-3.07h0c4.6-6,9.83-11.58,14.79-17.63h0a40.83,40.83,0,0,1,5.18,6.09A26.53,26.53,0,0,1,73.72,62c.09.31.19.63.26.94s.17.65.21.93a16.85,16.85,0,0,1,.27,2c.13,1.45.26,2.91.29,4.34a27.73,27.73,0,0,1-.83,8.26,27,27,0,0,1-2,5.1c-.16.39-.38.71-.53,1s-.29.63-.43.89a1.9,1.9,0,0,0-.27,1.23c.38,1.18.41-.43,1.23-.3.52.07.42.81.33.83s0,0,0-.05l.14-.11c.11-.09.27-.22.44-.34s.63-.5.69-.42,0,.2-.13.36a4.15,4.15,0,0,1-.45.54c-.33.36-.59.76-.24,1s.9,0,1.56-.63a12.76,12.76,0,0,0,1-1.17c.32-.47.64-1,1-1.54s.55-1.13.77-1.71.43-1.13.57-1.65L78,80.22q.09-.43.18-.72s0,0,0-.19a1.8,1.8,0,0,1,0,.19s.25-.57.43-1c.24-.62.48-1.07.27.25-.37,1.75-.29,1.86,0,1.34.12-.26.27-.68.42-1.13s.24-.92.32-1.28a29.5,29.5,0,0,0,.52-4.73C80.11,72.14,80.09,71.37,80.09,70.59Zm-.34,5.19c0,.69-.15,1.21-.39,1.37.15-.1.15-.77.12-1.51s-.15-1.54-.15-2-.09-1.19-.18-2-.12-1.46.07-1.65c-.11.11-.06.54,0,1.15,0,.31.11.65.18,1l.18,1.18c.06.41.09.82.12,1.22A8.54,8.54,0,0,1,79.75,75.78Zm0-6.18a1.56,1.56,0,0,0-.1-.73c-.11-.4-.26-.91-.41-1.44-.3-1-.57-2.12-.28-2.46a3,3,0,0,0,.17.7l.41,1.45C79.76,68.19,80,69.34,79.7,69.6Z"/><path class="cls-3" d="M75.39,87.18a6.1,6.1,0,0,0-.23.94c.24,0,.42-.52.57-1,.09-.24.14-.48.2-.67s.14-.31.22-.33C75.76,86.22,75.56,86.72,75.39,87.18Z"/></g></g></g></svg>
