<svg xmlns="http://www.w3.org/2000/svg" viewBox="0 0 128 128" width="256" height="256"><defs><style>.cls-1{fill:#131414;}.cls-2,.cls-3{fill:#36b79a;}.cls-3{fill-rule:evenodd;}</style></defs><g id="Слой_2" data-name="Слой 2"><g id="Слой_1-2" data-name="Слой 1"><g id="decryptor_mem" data-name="decryptor mem"><polygon class="cls-1" points="64 127.02 25.09 120.9 7.25 85.77 1.04 46.85 28.92 19.02 64 1.09 99.08 19.02 126.96 46.85 120.75 85.77 102.91 120.9 64 127.02"/><path class="cls-2" d="M64,128l-39.55-6.22L6.31,86.07,0,46.52,28.35,18.23l.13-.07L64,0,99.65,18.23,128,46.52l-6.31,39.55-.07.14-18.07,35.57Zm-38.27-8L64,126l38.27-6,17.55-34.56,6.11-38.27L98.5,19.82,64,2.18,29.5,19.82,2.07,47.19,8.18,85.46Z"/><path class="cls-2" d="M93.46,26.23,64,11.17,34.54,26.23,11.11,49.61l5.22,32.68,15,29.51L64,116.94l32.69-5.14,15-29.51,5.22-32.68Zm10.72,53.19L91.55,104.29,64,108.63l-27.55-4.34L23.82,79.42,19.43,51.88l19.74-19.7L64,19.48l24.83,12.7,19.74,19.7Z"/><polygon class="cls-1" points="64 98.53 42.69 95.18 32.93 75.94 29.53 54.64 44.8 39.4 64 29.58 83.2 39.4 98.47 54.64 95.07 75.94 85.31 95.18 64 98.53"/><path class="cls-2" d="M64,100.17,41.63,96.65,31.37,76.45,27.8,54.07l16-16L64,27.76,84.17,38.07l16,16L96.63,76.45,86.37,96.65ZM43.76,93.71,64,96.89l20.24-3.18,9.28-18.27L96.75,55.2,82.24,40.72,64,31.4,45.76,40.72,31.25,55.2l3.23,20.24Z"/><line class="cls-1" x1="64" y1="16.87" x2="64" y2="29.58"/><rect class="cls-2" x="62.71" y="16.87" width="2.59" height="12.71"/><line class="cls-1" x1="111.19" y1="51.16" x2="98.47" y2="54.64"/><rect class="cls-2" x="98.24" y="51.6" width="13.18" height="2.59" transform="translate(-10.23 29.47) rotate(-15.27)"/><line class="cls-1" x1="93.16" y1="106.66" x2="85.31" y2="95.18"/><rect class="cls-2" x="87.94" y="93.96" width="2.59" height="13.91" transform="translate(-41.41 68.05) rotate(-34.39)"/><line class="cls-1" x1="64" y1="111.24" x2="64" y2="98.53"/><rect class="cls-2" x="62.71" y="98.53" width="2.59" height="12.72"/><line class="cls-1" x1="34.84" y1="106.66" x2="42.69" y2="95.18"/><rect class="cls-2" x="31.81" y="99.62" width="13.91" height="2.59" transform="translate(-66.39 75.85) rotate(-55.58)"/><line class="cls-1" x1="16.81" y1="51.16" x2="29.53" y2="54.64"/><rect class="cls-2" x="21.87" y="46.31" width="2.59" height="13.18" transform="translate(-33.97 61.31) rotate(-74.72)"/><line class="cls-1" x1="21.46" y1="80.33" x2="32.93" y2="75.94"/><rect class="cls-2" x="21.06" y="76.84" width="12.27" height="2.59" transform="translate(-26.1 14.86) rotate(-20.92)"/><line class="cls-1" x1="106.54" y1="80.33" x2="95.07" y2="75.94"/><rect class="cls-2" x="99.51" y="72" width="2.59" height="12.27" transform="translate(-8.19 144.36) rotate(-69.06)"/><line class="cls-1" x1="37.71" y1="30.3" x2="44.79" y2="39.4"/><rect class="cls-2" x="39.96" y="29.09" width="2.59" height="11.53" transform="translate(-12.71 32.71) rotate(-37.92)"/><line class="cls-1" x1="90.29" y1="30.3" x2="83.2" y2="39.4"/><rect class="cls-2" x="80.98" y="33.56" width="11.53" height="2.59" transform="translate(5.93 81.84) rotate(-52.06)"/><path class="cls-3" d="M49.23,61.82c.06.08.11.13.11.12s-.24-1.28-.24-1.28a.74.74,0,0,0-.06.84A1.8,1.8,0,0,0,49.23,61.82Z"/><path class="cls-3" d="M67.7,87.2h0Z"/><path class="cls-3" d="M48.37,52.18c-.08.06-.07.17,0,.28C48.37,52.28,48.39,52.18,48.37,52.18Z"/><path class="cls-3" d="M64.85,68.34l0,.13.32-.27,0-.14C65.07,68.16,65,68.25,64.85,68.34Z"/><path class="cls-3" d="M81.33,53.53c-4.78,4.38-9.62,8.81-14.6,13.19-.47.41-.94.82-1.43,1.23l0,.14q1.8-1.53,3.69-3.18c4.23-3.72,8.26-7.54,12.54-11.18l1.75-1.48.6-.6v.1l.5-.42-.56,3.59c-.1.67-.22,1.31-.35,2-.18,1.34-.3,2.39-.56,3.87a11.34,11.34,0,0,1-.52,2.34,6.71,6.71,0,0,1,.13-1.43c.07-.45.14-1,.22-1.52l.48-2.57a2.78,2.78,0,0,1,.25-.69l.09-1.14h0c0-.28,0-.56.07-.85l.25-3.14-.59.5-1.62,1.62c-.4.41-.81.8-1.21,1.2l-1.35,1.31c-4.43,4.26-9.09,8.28-13.85,12.2l0,0c0-.17,0-.34.08-.51l-.13.11c0,.17-.05.33-.07.5l.1-.08-.1.08h0l-.32.27h0c0-.17,0-.34.07-.5h0l0-.13h0c.72-4.66,1.46-9.31,2.17-14a0,0,0,0,0,0,0s0,0,0-.07l.09-.56h0v0h0l.12-.79v-.09h0c0-.23.07-.45.11-.68L68,47.66l-3.49,3.18-.52.48h0L62.7,52.54h0Q61,54.07,59.4,55.62c-1.62,1.53-3.2,3-4.75,4.35-1.25,1.16-2.51,2.28-3.78,3.34l-1.78,1.56c0-.12,0-.24,0-.36s0-.05,0,0c0-1.15,0-2.48-.23-2.26a11.49,11.49,0,0,0,0,2.47l-.27.27a42.51,42.51,0,0,0,.29-4.8c0-1.5.14-6,0-7.2-.11-.91-.3,0-.24,0a1.71,1.71,0,0,1-.28-.49,35.81,35.81,0,0,0-.66,3.59c-.36-.1.1-6.74-.72-4.11-1.15,3.67-.32-6.49-1-2-.07.53-.65,2.41-.7,2.84-.64,5-.75,10.14-1.12,15.28l-.06,0a7.39,7.39,0,0,1-.65,1s-.22,12.08.33,1L44,70l-.14,1.67-.4,4,3.15-2.78.55-.5h0l2.74-2.46h0c3.39-3.06,6.74-6.2,10-9.35.75-.71,1.48-1.42,2.2-2.12l0,0c-.68,4-1.36,8-2,12.29L59,79.11l6.75-5.54c1.83-1.5,3.66-3,5.46-4.64,2.66-2.34,4.51-4,6.49-5.75h0c-.24,1.08-.51,2.17-.8,3.25-.54,2-1.15,4-1.85,5.9a44.63,44.63,0,0,1-2.47,5.6C72,79,71.41,80,70.77,81a25.63,25.63,0,0,1-2,2.57c-1.25,1.46-2.37,2.24-2.48,2.77s0,.51.33.35.65-.44,1-.31a.35.35,0,0,1,.21.49.75.75,0,0,1-.22.35l0,0,.2-.08c.17-.07.4-.16.61-.26.45-.18.89-.4.92-.3s-.5.49-1,.79-1,.61-.8,1,1,.19,2-.35a11.36,11.36,0,0,0,3.09-2.65,22.62,22.62,0,0,0,2.35-3.51c.52-1,.9-1.75,1.16-2.23a1,1,0,0,1,.11-.2l-.11.2s.4-.59.71-1.06a2.69,2.69,0,0,1,.48-.61c.06,0,0,.22-.31.92a16.73,16.73,0,0,0-.69,1.62c-.06.19,0,.09.25-.17a19.19,19.19,0,0,0,1.42-2.51,63,63,0,0,0,3.81-11.18c.48-1.9.89-3.81,1.25-5.74.17-1,.34-1.93.49-2.9S84,56,84.07,55l.51-4.42ZM48.85,64.84c0,.09,0,.16,0,.23l-.23.21-.07-.1Zm30.68,8.29c-.35,1.85-.9,3.74-1.44,4a4.18,4.18,0,0,0,.59-1.63c.21-.82.38-1.73.52-2.19s.32-1.34.52-2.2a4.31,4.31,0,0,1,.65-1.83C80.1,69.49,79.9,71.29,79.53,73.13Zm2.13-7.06c-.14,1.29-.38,2.62-.7,2.83a11.66,11.66,0,0,0,.33-2.56c.11-1.26.25-2.55.62-2.84C81.84,63.55,81.8,64.79,81.66,66.07Z"/><polygon class="cls-3" points="67.13 53.74 67.13 53.74 67.13 53.74 67.13 53.74"/><path class="cls-3" d="M64.4,50.69,68.33,47l-.75,5.16-.3,2.06c-.74,4.84-1.45,9.26-2.11,13.81L65.3,68c.76-5,1.69-10.36,2.56-15.73l.93-5.82L64.2,50.5c-2.22,2-4.44,4-6.58,6-1.24,1.16-2.77,2.46-4.07,3.68-1.68,1.58-4.63,4.73-3.72,4l1-.86q1.88-1.64,3.78-3.34C57.9,57,61.12,53.75,64.4,50.69Z"/><path class="cls-3" d="M44,67.88l.12.09C44.23,67.73,44.22,67.65,44,67.88Z"/><path class="cls-3" d="M71,87.56c-.35.48-.66.94-.66.94a.88.88,0,0,0,.5-.3,6.31,6.31,0,0,0,.54-.67c.36-.49.64-1,.83-1a1.22,1.22,0,0,0-.63.37A5.59,5.59,0,0,0,71,87.56Z"/></g></g></g></svg>
