<svg xmlns="http://www.w3.org/2000/svg" viewBox="0 0 128 128" width="256" height="256"><defs><style>.cls-1{fill:#131414;}.cls-2{fill:#b72fa5;}</style></defs><g id="Слой_2" data-name="Слой 2"><g id="Слой_1-2" data-name="Слой 1"><g id="decryptor_gimmel" data-name="decryptor gimmel"><polygon class="cls-1" points="64 127.02 25.09 120.9 7.25 85.77 1.04 46.85 28.92 19.02 64 1.09 99.08 19.02 126.96 46.85 120.75 85.77 102.91 120.9 64 127.02"/><path class="cls-2" d="M64,128l-39.55-6.22L6.31,86.07,0,46.52,28.35,18.23l.13-.07L64,0,99.65,18.23,128,46.52l-6.31,39.55-.07.14-18.07,35.57Zm-38.27-8L64,126l38.27-6,17.55-34.56,6.11-38.27L98.5,19.82,64,2.18,29.5,19.82,2.07,47.19,8.18,85.46Z"/><path class="cls-2" d="M93.46,26.23,64,11.17,34.54,26.23,11.11,49.61l5.22,32.68,15,29.51L64,116.94l32.69-5.14,15-29.51,5.22-32.68Zm10.72,53.19L91.55,104.29,64,108.63l-27.55-4.34L23.82,79.42,19.43,51.88l19.74-19.7L64,19.48l24.83,12.7,19.74,19.7Z"/><polygon class="cls-1" points="64 98.53 42.69 95.18 32.93 75.94 29.53 54.64 44.8 39.4 64 29.58 83.2 39.4 98.47 54.64 95.07 75.94 85.31 95.18 64 98.53"/><path class="cls-2" d="M64,100.17,41.63,96.65,31.37,76.45,27.8,54.07l16-16L64,27.76,84.17,38.07l16,16L96.63,76.45,86.37,96.65ZM43.76,93.71,64,96.89l20.24-3.18,9.28-18.27L96.75,55.2,82.24,40.72,64,31.4,45.76,40.72,31.25,55.2l3.23,20.24Z"/><line class="cls-1" x1="64" y1="16.87" x2="64" y2="29.58"/><rect class="cls-2" x="62.71" y="16.87" width="2.59" height="12.72"/><line class="cls-1" x1="111.19" y1="51.16" x2="98.47" y2="54.64"/><rect class="cls-2" x="98.24" y="51.6" width="13.18" height="2.59" transform="translate(-10.23 29.47) rotate(-15.27)"/><line class="cls-1" x1="93.16" y1="106.66" x2="85.31" y2="95.18"/><rect class="cls-2" x="87.94" y="93.96" width="2.59" height="13.91" transform="translate(-41.41 68.05) rotate(-34.39)"/><line class="cls-1" x1="64" y1="111.24" x2="64" y2="98.53"/><rect class="cls-2" x="62.71" y="98.53" width="2.59" height="12.71"/><line class="cls-1" x1="34.84" y1="106.66" x2="42.69" y2="95.18"/><rect class="cls-2" x="31.81" y="99.62" width="13.91" height="2.59" transform="translate(-66.39 75.85) rotate(-55.58)"/><line class="cls-1" x1="16.81" y1="51.16" x2="29.53" y2="54.64"/><rect class="cls-2" x="21.87" y="46.31" width="2.59" height="13.18" transform="translate(-33.97 61.31) rotate(-74.72)"/><line class="cls-1" x1="21.46" y1="80.33" x2="32.93" y2="75.94"/><rect class="cls-2" x="21.06" y="76.84" width="12.27" height="2.59" transform="matrix(0.93, -0.36, 0.36, 0.93, -26.1, 14.86)"/><line class="cls-1" x1="106.54" y1="80.33" x2="95.07" y2="75.94"/><rect class="cls-2" x="99.51" y="72" width="2.59" height="12.27" transform="translate(-8.19 144.37) rotate(-69.06)"/><line class="cls-1" x1="37.71" y1="30.3" x2="44.8" y2="39.4"/><rect class="cls-2" x="39.96" y="29.09" width="2.59" height="11.53" transform="translate(-12.71 32.71) rotate(-37.92)"/><line class="cls-1" x1="90.29" y1="30.3" x2="83.2" y2="39.4"/><rect class="cls-2" x="80.98" y="33.56" width="11.53" height="2.59" transform="translate(5.93 81.84) rotate(-52.06)"/><path class="cls-2" d="M48.84,60.38c-.14-.05-.14.67-.14.67C49.23,61.21,48.86,60.38,48.84,60.38Z"/><path class="cls-2" d="M78.17,74.36s0,0,0-.09a.41.41,0,0,0,0,.09s-.56-1.61.17-.67c1.13,1.43.48-.14.08-.78C75,67.42,73.87,66.68,70.29,61c-2-3.11-3.66-7.43-5.6-11.46l-1.35-2.82-2.67,2.44c-.69.63-1.37,1.26-2,1.9s-1.28,1.13-1.85,1.71c-.75.74-1.9,2.37-1.46,2.06.23-.16.46-.33.68-.51.52-.44,1-.9,1.56-1.36,1.15-1.11,2.24-2.34,3.37-3.53l2-2.11,1.38,2.43q.57,1,1.08,2A102.27,102.27,0,0,0,70.88,62.2,16.35,16.35,0,0,1,72.59,65c.37.5.69.86,1.11,1.41,1.85,2.49-1.35-.69-1.11-1.41-5.27-5.54-5-8.5-8.4-15.17l-1.13-2.19-2,1.89-1.36,1.35c-.69.71-1.42,1.39-2.15,2A20,20,0,0,1,56,54.33l-1.49,1.28c.06-.1.11-.23.13-.26.75-1.26-.61.26-.28.39l-.67.57.13-.26c.75-1.25-.61.26-.28.39l-.69.6c.06-.1.12-.25.15-.28.76-1.27-.63.28-.28.39h0l-.64.58,0,0a4.42,4.42,0,0,0,.19-.42c.36-.95-.86.65-.56.78l-.57.55c0-.39,0-.84.11-.8-.33-.1-.29.65-.39,1.08-.41.42-.81.84-1.17,1.28.19-.32.37-.67.38-.69.61-1.23-1.29,1-.83,1.18h0c-.21.26-.41.52-.59.79a23.12,23.12,0,0,0-1.94,2.75c-.15.43.24.24.2.18a1.31,1.31,0,0,1,.1.4c.38-.21,1.61-.77,1.52-.86.28.3-1.91,2.48-.51,2.11,1.95-.53-1.49,2.71.25,1.5.2-.14,1.19-.42,1.36-.54,2.28-1.71,4-4.11,6.18-6,2-1.74,3.93-3.62,5.77-5.55h.05a67.64,67.64,0,0,0,4.55,9.14c3.6,5.66,4.49,6.62,8.13,12.34,1.25,2,3,4.18,4.06,3.88s-.17-.3.3-.92c.29-.38.84-.33.81-.26a1.11,1.11,0,0,1,0-.13c0-.08,0-.2-.07-.31s-.06-.47,0-.52c.33-.14.37,1.09,1.11.55C82,78.23,78.73,75.28,78.17,74.36Zm-4.11-6.57c-.07.12,2.1,1.3,1.78,1.83C76,69.4,73.67,68.44,74.06,67.79Zm2.66,3.82c-.25-.31-1.42-1.1-1.18-1.5-.27.44,3,2,2.51,2.77C78.21,72.62,77,72,76.72,71.61Z"/><path class="cls-2" d="M47,64.83c.08,0,.11,0,.11-.07S47,64.83,47,64.83Z"/><path class="cls-2" d="M79.32,79.94c-.34.56.88.7.88.7C80.4,80.31,79.17,80.19,79.32,79.94Z"/></g></g></g></svg>
