<svg xmlns="http://www.w3.org/2000/svg" viewBox="0 0 128 128" width="256" height="256">
    <defs>
        <style>.cls-1{fill:#9d41ed;}.cls-2{fill-rule:evenodd;}</style>
    </defs>
    <g id="Слой_2" data-name="Слой 2">
        <g id="Слой_1-2" data-name="Слой 1">
            <g id="symbol_he" data-name="symbol he">
                <polygon class="cls-1"
                         points="64 128 24.45 121.78 6.31 86.07 0 46.52 28.35 18.23 64 0 99.65 18.23 128 46.52 121.69 86.07 103.55 121.78 64 128"/>
                <path class="cls-2" d="M64.88,30.39c.18-.2-.93-.45-.93-.45C63.32,30.67,64.87,30.41,64.88,30.39Z"/>
                <path class="cls-2" d="M59.34,26.11c-.12.1-.07.16,0,.19C59.37,26.17,59.35,26.09,59.34,26.11Z"/>
                <path class="cls-2"
                      d="M94.16,94.56l.06.13c0-.06-.54-2.38.47-1,1.55,2.09.84-.22.33-1.15C90.62,84.48,85,77,80.31,68.72c-3.08-5.5-5-13.64-8.11-20.49-.45-1-.82-2.29-1.3-3.35-.62-1.37-2.3-3.66-2.14-2.88.08.39.18.79.29,1.18.31.91.63,1.83,1,2.74,1.3,3.1,3.12,6.07,4.37,9.23,2.14,5.46,3.75,10.19,6.63,15.32C83,74,85.46,77.29,87.09,81c.51.73,1,1.26,1.53,2.06,2.52,3.63-2.13-1-1.53-2.06-8.22-8.72-10.57-20.73-15.43-31.15-.61-1.3-1.14-2.63-1.64-4a22.89,22.89,0,0,1-1-2.74l-.89-2.67a3.23,3.23,0,0,0,.31.29c1.39,1.56,0-1-.4-.55-.14-.41-.27-.81-.41-1.21a3.23,3.23,0,0,0,.31.29c1.39,1.57,0-1-.4-.55-.15-.41-.29-.83-.44-1.24a4.58,4.58,0,0,0,.34.33c1.4,1.57,0-1-.41-.55v0l-.44-1.17a4.51,4.51,0,0,0,.56.5c1.21.87-.39-1.53-.81-1.1-.14-.35-.28-.7-.43-1,.58.2,1.3.28,1.16.44.39-.46-.8-.66-1.39-.95-.36-.78-.75-1.53-1.16-2.24.35.41.79.83.82.86C66.83,34,64.7,30.35,64.15,31a.09.09,0,0,0,0,.07c-.25-.4-.51-.79-.79-1.16-.6-.8-2.12-3.35-2.85-3.85-.56-.38-.54.27-.42.24a2.82,2.82,0,0,1-.68,0c0,.63,0,2.66.23,2.56-.67.3-2.47-3.7-2.89-1.49-.58,3.07-3.1-3.17-2.49-.17.08.36-.2,1.93-.13,2.21s.23.84.37,1.25a3.93,3.93,0,0,1-.68.91s0,0-.06,0a.09.09,0,0,0,.06,0s-1.16,0-.69-.62c.71-.87-.36-.77-.74-.53-3.2,2-5.72,5.28-9,7.47-2.17,1.45-6.11,1.38-9,2.52-.43.17-1,.21-1.48.39S31.47,42,31.85,42a3.64,3.64,0,0,0,.57,0c.42-.07.84-.14,1.25-.24,1.34-.44,2.47-1.36,3.87-1.74,2.41-.66,4.57-1,6.59-2.38,1.41-.94,2.51-2.33,4.13-2.92.26-.28.42-.56.71-.87,1.29-1.37.06,1.62-.71.87-2.49,5.17-8.48,4.58-12.87,6.5a8.84,8.84,0,0,1-1.72.54,4.69,4.69,0,0,1-1.25.24l-1.22.19a1.22,1.22,0,0,0,.07-.2c.47-.86-.56-.24-.19.22l-.55.09a1.22,1.22,0,0,0,.07-.2c.47-.86-.56-.24-.19.22l-.56.11a1.59,1.59,0,0,0,.08-.22c.47-.87-.58-.24-.19.23h0l-.53.12a1.67,1.67,0,0,0,.12-.37c.14-.85-.73,0-.38.45l-.45.15c-.06-.45-.22-1-.09-.9-.36-.44-.14.54-.13,1a4.82,4.82,0,0,0-.92.51,2.31,2.31,0,0,0,.25-.52c.33-1-1.07.08-.56.69l.05,0a3.49,3.49,0,0,0-.43.43c-.27.34-1.25,1.1-1.31,1.62s.3.52.24.41a4.53,4.53,0,0,1,.21.59c.33.1,1.46.55,1.35.36.35.63-1.35,1.31,0,2.15,1.87,1.16-.87,2,.62,2.1.18,0,1.13.59,1.26.59,1.92,0,3.08-1.39,4.88-1.69a16.74,16.74,0,0,0,4.82-1.64c2.89-1.44,7-.88,9.86-2.8,3.25-2.23,6.1-5,9.39-7.23l0,0c.32.72.62,1.45.88,2.21.84,2.45,1.82,4.85,2.88,7.21l-.1.05c-3.2,2-5.73,5.28-9,7.47-2.17,1.45-6.11,1.38-9,2.52-.43.17-1,.21-1.48.39s-1.37,1.18-1,1.21a3.64,3.64,0,0,0,.57,0c.42-.07.84-.14,1.25-.24,1.34-.44,2.47-1.36,3.87-1.74,2.41-.66,4.57-1,6.59-2.38,1.41-.94,2.51-2.33,4.13-2.92.26-.28.42-.56.7-.87,1.3-1.37.07,1.62-.7.87-2.49,5.17-8.48,4.58-12.87,6.5a9.06,9.06,0,0,1-1.72.54,4.69,4.69,0,0,1-1.25.24l-1.22.19a1.22,1.22,0,0,0,.07-.2c.47-.86-.56-.24-.19.22l-.55.09c0-.07.06-.18.07-.2.47-.86-.56-.24-.19.22l-.56.11c0-.07.06-.2.08-.22.47-.87-.58-.24-.19.23h0l-.53.12a1.86,1.86,0,0,0,.12-.37c.14-.85-.73,0-.38.45l-.45.15c-.06-.45-.22-1.05-.09-.9-.37-.44-.14.54-.13,1a4.82,4.82,0,0,0-.92.51,2.31,2.31,0,0,0,.25-.52c.33-1-1.07.08-.56.69,0,0,0,0,.05,0a3.49,3.49,0,0,0-.43.43c-.27.34-1.25,1.1-1.31,1.62s.3.52.24.41a3.56,3.56,0,0,1,.2.59c.34.1,1.47.55,1.36.36.35.63-1.35,1.31,0,2.15,1.87,1.16-.87,2,.62,2.1.18,0,1.13.59,1.26.59,1.92,0,3.08-1.39,4.87-1.69a16.7,16.7,0,0,0,4.83-1.64c2.89-1.44,7-.88,9.86-2.8s5.22-4.15,7.91-6.16C67,60.21,68,63.43,69.15,66.6c-2.42,2-4.58,4.39-7.22,6.16-2.17,1.46-6.12,1.39-9,2.53-.43.17-1,.21-1.48.39s-1.37,1.18-1,1.21a3.61,3.61,0,0,0,.57,0c.42-.06.84-.14,1.25-.23,1.34-.44,2.47-1.37,3.87-1.75,2.41-.65,4.57-1,6.59-2.37,1.41-.94,2.52-2.34,4.13-2.92.26-.28.42-.56.71-.87,1.29-1.38.06,1.61-.71.87-2.49,5.16-8.47,4.57-12.86,6.49a10,10,0,0,1-1.73.55,4.54,4.54,0,0,1-1.25.23l-1.22.19a2.05,2.05,0,0,0,.08-.2c.46-.85-.56-.24-.2.22l-.55.1a1,1,0,0,0,.07-.21c.47-.86-.56-.24-.19.23l-.56.1a1,1,0,0,0,.08-.22c.47-.86-.57-.23-.18.23a0,0,0,0,0,0,0l-.52.13a3.12,3.12,0,0,0,.12-.37c.13-.86-.74,0-.39.45l-.45.14c0-.45-.21-1-.08-.89-.37-.44-.15.54-.14,1a4.74,4.74,0,0,0-.91.51,4.08,4.08,0,0,0,.25-.51c.32-1-1.08.08-.57.69l0,0a3.42,3.42,0,0,0-.42.43C45,79.27,44,80,43.94,80.54s.3.53.25.41a5.54,5.54,0,0,1,.2.59c.34.1,1.46.56,1.35.36.36.64-1.35,1.31,0,2.15,1.86,1.17-.87,2,.61,2.1.18,0,1.13.6,1.27.6,1.92,0,3.08-1.39,4.87-1.7a17.09,17.09,0,0,0,4.83-1.63c2.89-1.45,7-.88,9.85-2.81,2.19-1.49,4.19-3.22,6.26-4.88,4.45,7.71,9.27,15.07,13.72,22.92,1.62,2.88,4.09,6.11,5.94,5.62s-.22-.45.74-1.39c.6-.58,1.53-.52,1.46-.42s-.23-1.29.13-1.43c.59-.23.34,1.61,1.75.77,2.53-1.5-2.23-5.75-3-7.11C94.22,94.7,94.2,94.67,94.16,94.56Zm.24-2.07c.34-.39-1.56-1.33-2-1.83s-2.14-1.59-1.63-2.19C90.25,89.14,95.46,91.24,94.4,92.49Zm-5.5-7.41c-.16.19,3.24,1.85,2.56,2.65C91.74,87.4,88.06,86.06,88.9,85.08ZM52.52,31c-.31-.38-.29,1.05-.46,1.27s-.27,1.5-.75.92C51.85,33.79,51.53,29.76,52.52,31Zm-1.8,1.49c-.27-.32.05,2.56-.74,1.62C50.13,34.24,50.08,31.68,50.72,32.44Zm11.14,16c-.32-.38-.29,1.05-.46,1.27s-.27,1.5-.75.92C61.19,51.32,60.87,47.29,61.86,48.48ZM60.06,50c-.27-.32,0,2.56-.74,1.62C59.47,51.77,59.42,49.21,60.06,50Zm9.22,17.34c-.26-.31,0,2.56-.74,1.63C68.69,69.11,68.64,66.55,69.28,67.31Z"/>
                <path class="cls-2" d="M98.05,98.21c-.71.84,1.34,1,1.34,1C99.81,98.71,97.73,98.58,98.05,98.21Z"/>
                <path class="cls-2" d="M45.09,77.71c-.16-.2,0,.69,0,.7C45.69,79.1,45.1,77.72,45.09,77.71Z"/>
                <path class="cls-2" d="M44.3,81.54c.09.12.1.09.09,0S44.28,81.52,44.3,81.54Z"/>
                <path class="cls-2" d="M35.87,60.36c-.17-.19,0,.7,0,.7C36.46,61.76,35.88,60.38,35.87,60.36Z"/>
                <path class="cls-2" d="M35.07,64.19c.09.13.11.1.09,0S35.06,64.17,35.07,64.19Z"/>
                <path class="cls-2" d="M26.53,42.83c-.17-.19,0,.7,0,.7C27.13,44.23,26.54,42.85,26.53,42.83Z"/>
                <path class="cls-2" d="M25.73,46.66c.1.13.11.1.1,0S25.72,46.64,25.73,46.66Z"/>
            </g>
        </g>
    </g>
</svg>
