<svg xmlns="http://www.w3.org/2000/svg" viewBox="0 0 128 128" width="256" height="256">
    <defs>
        <style>.cls-1{fill:#35b7b5;}.cls-2{fill-rule:evenodd;}</style>
    </defs>
    <g id="Слой_2" data-name="Слой 2">
        <g id="Слой_1-2" data-name="Слой 1">
            <g id="symbol_lamedh" data-name="symbol lamedh">
                <polygon class="cls-1"
                         points="64 128 24.45 121.78 6.31 86.07 0 46.52 28.35 18.23 64 0 99.65 18.23 128 46.52 121.69 86.07 103.55 121.78 64 128"/>
                <path class="cls-2" d="M71.85,40.05c.28.09.27-1.2.27-1.2C71.12,38.49,71.82,40,71.85,40.05Z"/>
                <path class="cls-2" d="M75.52,32.24c-.14-.09-.2,0-.21.11C75.46,32.29,75.55,32.25,75.52,32.24Z"/>
                <path class="cls-2"
                      d="M89,87.47c-.66-.91-.78-.76-.91-.43s-.3.85-1,.63c-.86-.29-1.09-1.35-1-1.34s-1.4,1-1.65.66.2-.56.51-.93.43-.83-.3-1.31c-1.36-.88-2.48.35-3.93,1.91a28.15,28.15,0,0,1-3.64,3.69s0,0-.14.09l.14-.09c-.1,0-.57.18-1,.28-.63.14-1.13.13-.2-.63,2.4-2.08-.27-.86-1.37-.2l-1.39.84-.71.41-.49.27.08,0,.31-.11-.54.22.15-.09-.33.11-.85.25c-.57.17-1.16.31-1.75.45a34.38,34.38,0,0,1-3.58.62,20.74,20.74,0,0,1-7-.27,11.39,11.39,0,0,1-3.11-1.16A12.79,12.79,0,0,1,54,90.44a13.06,13.06,0,0,1-1.24-1.12,12.37,12.37,0,0,1-2.05-2.83A17,17,0,0,1,49.33,83a18.7,18.7,0,0,1-.51-6.08,26.77,26.77,0,0,1,1.26-6.55A41.89,41.89,0,0,1,52.74,64c1-2.09,2.21-4.11,3.39-6.08a19.64,19.64,0,0,1,1.22-1.79l1.32-1.8a27.22,27.22,0,0,0,1.6-2.82c.45-.89.69-1.51.32-1.19s-.77.72-1.14,1.1-.76.86-1.13,1.31-.71.87-1,1.32a33.24,33.24,0,0,0-2.05,3.27,88.27,88.27,0,0,0-3.75,8.11,35.52,35.52,0,0,0-2.76,9.77,21.92,21.92,0,0,0,1,10,12.84,12.84,0,0,0,4,5.44,16.45,16.45,0,0,0,2.79,1.69,30.25,30.25,0,0,0,3.17,1.2,22.09,22.09,0,0,0,2.94,0c1.28-.06,1.78-.06,1.81,0s-.44.28-1.1.41a7.83,7.83,0,0,1-2.23.12c-.72-.07-1.29-.29-1.42-.58a11,11,0,0,1-4.93-1,10.45,10.45,0,0,1-3.94-3.24,13.45,13.45,0,0,1-2.25-4.79,8.52,8.52,0,0,1-.29-1.33c-.08-.45-.18-.88-.22-1.34a22.89,22.89,0,0,1-.16-2.74,31.33,31.33,0,0,1,1.86-10.68,68,68,0,0,1,4.47-9.78,36.09,36.09,0,0,1,3-4.6,23.05,23.05,0,0,1,2.18-2.63c.79-.9,1.61-1.75,2.43-2.6-.08.19-.15.41-.17.47-.52,1.19-.24,1,.06.57s.67-1.21.37-1.31l1-1,.13-.14a3.59,3.59,0,0,0-.18.49c-1.08,2.35,1.06-.55.44-.73L64.65,46c-.1.2-.18.46-.21.53-1.14,2.34,1.1-.57.44-.73h0L66,44.73a8.05,8.05,0,0,0-.34.85c-.5,1.73,1.5-1.19.93-1.43l1-1c0,.72.11,1.52-.1,1.45.62.19.46-1.17.59-2,.74-.75,1.45-1.51,2.12-2.27a11.47,11.47,0,0,0-.69,1.23c-1.06,2.18,2.35-1.79,1.5-2.09H70.9c.38-.46.75-.91,1.1-1.38.75-1,3.35-3.71,3.8-4.67.34-.75-.42-.5-.35-.38a2.29,2.29,0,0,1-.14-.75c-.29.12-.84.3-1.4.51-.83.31-1.66.66-1.57.77-.25-.3.72-1.38,1.44-2.3s1.17-1.7-.2-1.52c-1.89.3-1.08-.9-.18-1.92s1.88-1.86,0-.94c-.44.21-2.41.55-2.75.75A34.18,34.18,0,0,0,64.25,33c-2,2-3.87,4.07-5.94,6A58,58,0,0,0,47.89,52.28c-2.71,4.83-5.63,9.84-7.45,15.77a35,35,0,0,0-1.66,9.37c-.06.82,0,1.62,0,2.44l0,1.22L39,82.34l.17,1.26c0,.42.17.85.26,1.28l.3,1.28c.1.43.27.87.41,1.3l.44,1.26c.18.43.37.85.56,1.27s.36.84.59,1.25l.71,1.24.36.62.42.59L44,94.88c.3.38.63.75,1,1.12a12.81,12.81,0,0,0,1,1.07l1.1,1c.39.32.78.61,1.18.91a10.93,10.93,0,0,0,1.22.83c.42.25.83.52,1.26.74a24.48,24.48,0,0,0,5.26,2,30.77,30.77,0,0,0,10.14.69,43.11,43.11,0,0,0,4.73-.71c.77-.17,1.54-.34,2.31-.55l1.17-.33.6-.19.71-.24.43-.14.29-.15c.34-.18.55-.29.8-.44l.72-.41,1.41-.85c.93-.57,1.84-1.18,2.76-1.81a23,23,0,0,0,5.53-5.23,13.78,13.78,0,0,0,.89-1.44,9.42,9.42,0,0,0,.56-1.34A2.38,2.38,0,0,0,89,87.47ZM67.14,94c-.93.58-2,1-2.28.35.06.13,1-.42,2-.95s1.88-1,2.2-.52C68.88,92.65,68.08,93.38,67.14,94Zm6.38-2.73c-.38.49-.86,1.13-1.13,1.4l.38-.15a.35.35,0,0,1-.11.08c-.27.13-.89.63-1.53,1s-1.29.55-1.54.19c.16.23.62,0,1.19-.37.29-.2.61-.44.93-.71l.47-.4a2.67,2.67,0,0,0,.38-.39l-.45.18a7.75,7.75,0,0,1,1.25-1.34c.42-.31.8-.44,1.13-.21C74.27,90.34,73.92,90.74,73.52,91.24Z"/>
                <path class="cls-2"
                      d="M81.37,84.62a2.4,2.4,0,0,0-.08-.68c0-.19-.08-.32-.08-.32-.31-.12-.29.33-.31.8s0,1-.26.87C81.19,85.54,81.35,85.1,81.37,84.62Z"/>
            </g>
        </g>
    </g>
</svg>
