<svg xmlns="http://www.w3.org/2000/svg" viewBox="0 0 128 128" width="256" height="256"><defs><style>.cls-1{fill:#131414;}.cls-2{fill:#a334b7;}</style></defs><g id="Слой_2" data-name="Слой 2"><g id="Слой_1-2" data-name="Слой 1"><g id="decryptor_daleth" data-name="decryptor daleth"><polygon class="cls-1" points="64 127.02 25.09 120.9 7.25 85.77 1.04 46.85 28.92 19.02 64 1.09 99.08 19.02 126.96 46.85 120.75 85.77 102.91 120.9 64 127.02"/><path class="cls-2" d="M64,128l-39.55-6.22L6.31,86.07,0,46.52,28.35,18.23l.13-.07L64,0,99.65,18.23,128,46.52l-6.31,39.55-.07.14-18.07,35.57Zm-38.27-8L64,126l38.27-6,17.55-34.56,6.11-38.27L98.5,19.82,64,2.18,29.5,19.82,2.07,47.19,8.18,85.46Z"/><path class="cls-2" d="M93.46,26.23,64,11.17,34.54,26.23,11.11,49.61l5.22,32.68,15,29.51L64,116.94l32.69-5.14,15-29.51,5.22-32.68Zm10.72,53.19L91.55,104.29,64,108.63l-27.55-4.34L23.82,79.42,19.43,51.88l19.74-19.7L64,19.48l24.83,12.7,19.74,19.7Z"/><polygon class="cls-1" points="64 98.53 42.69 95.18 32.93 75.94 29.53 54.64 44.8 39.4 64 29.58 83.2 39.4 98.47 54.64 95.07 75.94 85.31 95.18 64 98.53"/><path class="cls-2" d="M64,100.17,41.63,96.65,31.37,76.45,27.8,54.07l16-16L64,27.76,84.17,38.07l16,16L96.63,76.45,86.37,96.65ZM43.76,93.71,64,96.89l20.24-3.18,9.28-18.27L96.75,55.2,82.24,40.72,64,31.4,45.76,40.72,31.25,55.2l3.23,20.24Z"/><line class="cls-1" x1="64" y1="16.87" x2="64" y2="29.58"/><rect class="cls-2" x="62.71" y="16.87" width="2.59" height="12.72"/><line class="cls-1" x1="111.19" y1="51.16" x2="98.47" y2="54.64"/><rect class="cls-2" x="98.24" y="51.6" width="13.18" height="2.59" transform="translate(-10.23 29.47) rotate(-15.27)"/><line class="cls-1" x1="93.16" y1="106.66" x2="85.31" y2="95.18"/><rect class="cls-2" x="87.94" y="93.96" width="2.59" height="13.91" transform="translate(-41.4 68.05) rotate(-34.39)"/><line class="cls-1" x1="64" y1="111.24" x2="64" y2="98.53"/><rect class="cls-2" x="62.71" y="98.53" width="2.59" height="12.71"/><line class="cls-1" x1="34.84" y1="106.66" x2="42.69" y2="95.18"/><rect class="cls-2" x="31.81" y="99.62" width="13.91" height="2.59" transform="translate(-66.4 75.87) rotate(-55.59)"/><line class="cls-1" x1="16.81" y1="51.16" x2="29.53" y2="54.64"/><rect class="cls-2" x="21.87" y="46.31" width="2.59" height="13.18" transform="translate(-33.97 61.31) rotate(-74.72)"/><line class="cls-1" x1="21.46" y1="80.33" x2="32.93" y2="75.94"/><rect class="cls-2" x="21.06" y="76.84" width="12.27" height="2.59" transform="translate(-26.11 14.86) rotate(-20.92)"/><line class="cls-1" x1="106.54" y1="80.33" x2="95.07" y2="75.94"/><rect class="cls-2" x="99.51" y="72" width="2.59" height="12.27" transform="translate(-8.19 144.37) rotate(-69.06)"/><line class="cls-1" x1="37.71" y1="30.3" x2="44.8" y2="39.4"/><rect class="cls-2" x="39.96" y="29.09" width="2.59" height="11.53" transform="translate(-12.71 32.71) rotate(-37.92)"/><line class="cls-1" x1="90.29" y1="30.3" x2="83.21" y2="39.4"/><rect class="cls-2" x="80.98" y="33.56" width="11.53" height="2.59" transform="translate(5.93 81.84) rotate(-52.06)"/><path class="cls-2" d="M81.36,58.9a1.29,1.29,0,0,0-.12-.63c-.09-.24-.19-.45-.19-.45a.88.88,0,0,0,0,.85A.54.54,0,0,0,81.36,58.9Z"/><path class="cls-2" d="M79.84,50.62a.4.4,0,0,0,0,.29A1,1,0,0,0,79.84,50.62Z"/><path class="cls-2" d="M81.45,65.27c-.07-.22-.15-.44-.2-.63,0-1.28-.08-2.54-.15-3.75.09.75.2,1.51.2,1.56.21,1.35.22.42.13-.76s-.27-2.58-.41-2.23c0,0,0,0,0,.07-.05-.69-.11-1.37-.18-2s-.19-2.12-.31-3.5-.26-2.66-.35-3.13c-.14-.72-.17.23-.13.22a.35.35,0,0,1-.2-.18c0,.37,0,1.06-.08,1.74a20.15,20.15,0,0,0-.08,2,11.06,11.06,0,0,1-.29-2.54c-.09-1.15-.18-1.91-.35-.4-.26,2.09-.36.77-.4-.49s0-2.5-.16-.33c0,.52-.32,2.63-.36,3-.22,2.84-.36,5.49-.46,8.13s-.17,5.25-.35,7.89c-.1,1.37-.18,2.73-.24,4.09l0,0c-1.92-.34-3.84-.67-5.76-1-6-.93-12.05-2.5-18.24-3.76h0q2.13-1.47,4.24-3L70,57.19c1.54-1.1,3.28-2.4,4.77-3.56a23.18,23.18,0,0,0,3.13-2.77c.93-1.25-.48.31-.55-.06,0-.22.51-.81.63-.9-.07,0-.31.16-.54.26s-.53.21-.47.11c.22-.35,1.49-.77,1.79-1.5s-1.38.24-3.27,1.42-3.69,2.45-4.45,2.9l-.15.08.15-.08c-.12,0-2.32,1.08-.57-.06,2.75-1.76.35-.56-.79.08-4.51,2.6-9.08,5.43-13.59,8.36-3.29,2.13-6.53,4.3-9.79,6.45l-2.61,1.71-1,.66-3.38,2.2,3.79.47,1.13.14,2.9.4c6.78,1,15,3.2,22.7,4.54,1.23.22,2.68.57,4,.79,1.68.29,4.84.51,4,.27l-1.26-.34L73.15,78c-3.68-.67-7.53-1.1-11.25-1.84-5.19-1-9.75-2-14.74-2.79h-.1L44.42,73h0l-.15,0h0l-.9-.12-.2,0-3.44-.44,3.07-2,.83-.54h0l.12-.07.2-.14h0l2.34-1.53h0c.87-.58,1.74-1.16,2.62-1.73,2-1.34,4.12-2.65,6.22-3.83.9-.61,1.61-1.13,2.62-1.81,2.29-1.52,1.81-1,.67-.18s-2.91,2.06-3.29,2c-1.63,1.25-3.25,2.42-4.86,3.54l-7.29,4.73L41,72l2.15.33.52.09,6.09,1.07c6.28,1.2,12.54,2.63,18.77,3.66,1.55.26,3.08.56,4.6.87,1.16.22,2.29.45,3.41.73l1.92.43.87.2-.89.07c-.22,0-.18.05,0,.09l2.64.58,0-.89-.31,0L81,76.54c0-.5,0-1,.08-1.49,0,.24,0,.52.06.6,0,.44.06.72.09.89l0,.38,0-.38c0-.55,0-2.08-.2-1.89,0-.63.05-1.26.08-1.89,0,.25.06.53.07.61.24,3,.21-1.36-.06-1q0-1,.06-2c0,.27.08.61.08.7.27,3,.21-1.42-.06-1a.1.1,0,0,0,0,0c0-.64,0-1.28,0-1.93a1.11,1.11,0,0,1,0,.17c0,.24.06.47.09.63s0,.26,0,.27c.34,2,.11-2.41-.14-2,0-.18,0-.37,0-.55,0-.39,0-.77,0-1.16,0,0,0,.06,0,.09.2.55.46,1,.38,1.19C81.84,66.45,81.64,65.85,81.45,65.27Zm-15-9.82c1.3-1.06,2.68-2.08,2.9-1.86-.15-.14-2.1,1.57-2.74,2S64,57.71,63.72,57.49C63.86,57.61,65.1,56.51,66.4,55.45Zm-5,3c.87-.74,1.8-1.44,2-1.29a12.11,12.11,0,0,0-1.75,1.47c-.85.75-1.72,1.47-2,1.29C59.72,60,60.54,59.24,61.41,58.5Z"/><polygon class="cls-2" points="81.58 79.2 81.25 76.92 81.14 79.24 81.58 79.2"/><path class="cls-2" d="M77.43,48.72c.41-.34.8-.72.8-.72s-1.65,1.36-1.74,1.25C76.6,49.38,77,49.06,77.43,48.72Z"/></g></g></g></svg>
