<svg xmlns="http://www.w3.org/2000/svg" viewBox="0 0 128 128" width="256" height="256">
    <defs>
        <style>.cls-1{fill:#36b79a;}.cls-2{fill-rule:evenodd;}</style>
    </defs>
    <g id="Слой_2" data-name="Слой 2">
        <g id="Слой_1-2" data-name="Слой 1">
            <g id="symbol_mem" data-name="symbol mem">
                <polygon class="cls-1"
                         points="64 128 24.45 121.78 6.31 86.07 0 46.52 28.35 18.23 64 0 99.65 18.23 128 46.52 121.69 86.07 103.55 121.78 64 128"/>
                <path class="cls-2"
                      d="M35.31,59.66a1.2,1.2,0,0,0,.21.24c.26-.28-.46-2.49-.46-2.49A1.42,1.42,0,0,0,34.94,59,3.37,3.37,0,0,0,35.31,59.66Z"/>
                <path class="cls-2" d="M71.19,109l-.08,0S71.16,109,71.19,109Z"/>
                <path class="cls-2" d="M33.64,40.94c-.15.11-.15.32-.08.54A2.09,2.09,0,0,0,33.64,40.94Z"/>
                <path class="cls-2" d="M65.66,72.32c0,.09,0,.17,0,.26l.62-.53a2.34,2.34,0,0,1,0-.26Z"/>
                <path class="cls-2"
                      d="M97.67,43.55C88.39,52.07,79,60.66,69.3,69.18c-.9.79-1.83,1.59-2.77,2.4l0,.26c2.33-2,4.71-4,7.16-6.18C81.87,58.44,89.7,51,98,43.94l3.38-2.87,1.17-1.18v.2l1-.82-1.07,7c-.2,1.31-.43,2.55-.68,3.81-.36,2.61-.6,4.64-1.09,7.52a22.1,22.1,0,0,1-1,4.54,11.75,11.75,0,0,1,.24-2.77c.13-.88.28-1.91.44-3l.93-5a4.77,4.77,0,0,1,.49-1.34c.06-.74.11-1.47.17-2.21h0c0-.55.09-1.1.13-1.65l.49-6.11-1.16,1-3.13,3.15c-.78.78-1.58,1.56-2.37,2.33L93.3,49.1c-8.61,8.27-17.67,16.09-26.91,23.7l0,0c0-.33.1-.67.15-1l-.25.21c0,.33-.09.66-.14,1l.2-.16-.2.17h0l-.63.52h0l.15-1h0l0-.25h0c1.38-9,2.84-18.09,4.22-27.09a.43.43,0,0,1,0,0,.53.53,0,0,0,0-.13c.06-.36.12-.72.17-1.09l0,0v0h0l.24-1.53,0-.18h0c.06-.44.13-.89.2-1.33l1.31-8.77-6.78,6.19-1,.93h0l-2.58,2.36h0q-3.22,3-6.41,6c-3.15,3-6.21,5.76-9.23,8.46-2.43,2.24-4.88,4.42-7.34,6.49l-3.45,3c0-.22,0-.46,0-.7,0-.06,0-.09,0-.08,0-2.23-.07-4.8-.45-4.39s-.13,3.14-.05,4.81c-.16.15-.34.33-.53.53a80.3,80.3,0,0,0,.57-9.33c0-2.91.26-11.67,0-14-.22-1.78-.58-.08-.46,0a3.38,3.38,0,0,1-.55-1c-.33,1.71-1.5,6.91-1.29,7-.69-.19.2-13.09-1.4-8-2.22,7.12-.61-12.61-1.86-4-.14,1-1.26,4.68-1.37,5.51C26.4,51.7,26.19,61.72,25.47,71.7l-.12-.09a15,15,0,0,1-1.25,1.93s-.44,23.49.63,1.9l.42.13-.29,3.24-.76,7.71,6.11-5.39,1.08-1h0l5.33-4.78h0c6.58-5.95,13.08-12,19.47-18.16,1.46-1.4,2.87-2.77,4.27-4.13l.06.06C59.1,61,57.78,68.72,56.6,77L54.29,93.26,67.39,82.5q5.35-4.4,10.63-9c5.16-4.55,8.75-7.74,12.61-11.19h0q-.73,3.18-1.57,6.32c-1,3.88-2.22,7.72-3.6,11.48A86.13,86.13,0,0,1,80.66,91c-1.07,2-2.27,4-3.51,5.93a48.52,48.52,0,0,1-3.78,5c-2.43,2.84-4.62,4.37-4.82,5.39s.09,1,.64.68,1.26-.86,2-.6a.67.67,0,0,1,.4,1,1.38,1.38,0,0,1-.42.67l.06,0c.1,0,.23-.1.39-.16.32-.14.77-.31,1.19-.51.87-.36,1.72-.78,1.78-.59s-1,.95-2,1.55-2,1.18-1.54,1.84,1.94.37,3.88-.68a22,22,0,0,0,6-5.16,40.82,40.82,0,0,0,4.57-6.82c1-1.83,1.75-3.39,2.25-4.31a3.13,3.13,0,0,1,.23-.4c-.07.11-.15.25-.23.4,0,0,.78-1.15,1.4-2.08a4.75,4.75,0,0,1,.92-1.18c.12,0,0,.43-.59,1.8-.82,1.8-1.25,2.76-1.35,3.13s.11.19.48-.33a35.06,35.06,0,0,0,2.76-4.87,122.62,122.62,0,0,0,7.41-21.72q1.38-5.53,2.42-11.16.51-2.8,1-5.63c.29-1.9.56-3.76.79-5.74l1-8.57Zm-63.11,22c0,.17,0,.32,0,.44l-.46.4L34,66.18ZM94.18,81.64c-.68,3.59-1.75,7.27-2.81,7.81.33-.17.77-1.58,1.16-3.17s.73-3.35,1-4.25.62-2.61,1-4.29.79-3.23,1.26-3.54C95.28,74.55,94.89,78.05,94.18,81.64ZM98.3,67.92C98,70.41,97.58,73,97,73.42c.26-.17.42-2.54.63-5s.49-5,1.22-5.52C98.66,63,98.58,65.43,98.3,67.92Z"/>
                <polygon class="cls-2" points="70.07 43.95 70.07 43.96 70.08 43.96 70.07 43.95"/>
                <path class="cls-2"
                      d="M64.78,38l7.63-7.11L71,41c-.19,1.35-.39,2.67-.58,4-1.44,9.4-2.82,18-4.09,26.84l.25-.21c1.48-9.72,3.28-20.13,5-30.57l1.82-11.3-8.91,8c-4.33,3.86-8.64,7.75-12.79,11.63-2.41,2.25-5.38,4.79-7.91,7.16-3.27,3.07-9,9.19-7.22,7.76.67-.54,1.34-1.1,2-1.66,2.43-2.13,4.87-4.28,7.34-6.49C52.14,50.26,58.4,44,64.78,38Z"/>
                <path class="cls-2" d="M25.12,71.43l.23.18C25.58,71.15,25.57,71,25.12,71.43Z"/>
                <path class="cls-2"
                      d="M77.67,109.67c-.69.93-1.29,1.83-1.29,1.83a1.84,1.84,0,0,0,1-.59,11.4,11.4,0,0,0,1.07-1.31c.68-.95,1.22-1.91,1.6-2a2.37,2.37,0,0,0-1.22.72A10.38,10.38,0,0,0,77.67,109.67Z"/>
            </g>
        </g>
    </g>
</svg>
