<svg xmlns="http://www.w3.org/2000/svg" viewBox="0 0 128 128" width="256" height="256">
    <defs>
        <style>.cls-1{fill:#9fa23b;}.cls-2{fill-rule:evenodd;}</style>
    </defs>
    <g id="Слой_2" data-name="Слой 2">
        <g id="Слой_1-2" data-name="Слой 1">
            <g id="symbol_tsade" data-name="symbol tsade">
                <polygon class="cls-1"
                         points="64 128 24.45 121.78 6.31 86.07 0 46.52 28.35 18.23 64 0 99.65 18.23 128 46.52 121.69 86.07 103.55 121.78 64 128"/>
                <path class="cls-2" d="M43.16,36.88c.22-.19-.9-.55-.91-.55C41.48,37,43.14,36.9,43.16,36.88Z"/>
                <path class="cls-2" d="M38,32c-.15.1-.11.16,0,.2C38,32.05,38,32,38,32Z"/>
                <path class="cls-2" d="M67.55,108.68c-.88.77,1.26,1.15,1.25,1.15C69.32,109.38,67.16,109,67.55,108.68Z"/>
                <path class="cls-2" d="M100.29,56c.26.11.07-1.06.07-1.06C99.41,54.55,100.26,56,100.29,56Z"/>
                <path class="cls-2"
                      d="M84.49,68.86,80.58,73l-2.81-4.78c-1-1.79-2.14-3.59-3-5.48-2.45-5.34-4.32-10-7.52-14.94-.44-.68-.9-1.34-1.37-2l-.2.21c.8,1.14,1.6,2.31,2.37,3.5,3.3,5.09,5.62,12.75,8.86,19.26l2.93,5.89,5.43-5.14.66-.63c.8-.77,1.89-1.54,2.73-2.35,1.08-1,2.63-3.43,1.95-3a11.43,11.43,0,0,0-1,.65c-.79.62-1.58,1.25-2.35,1.9C86.3,67,85.39,67.9,84.49,68.86Z"/>
                <path class="cls-2"
                      d="M102.37,49.94a2.73,2.73,0,0,1-.27-.67c-.59.25-2.56.88-2.39,1-.54-.56,2.62-3.61.33-3.31-3.19.42,1.85-4.07-.81-2.5-.32.19-1.94.42-2.18.58-3.46,2.27-5.74,5.78-9,8.37-1.8,1.42-3.52,2.95-5.19,4.52h0C80.81,53,79,47.82,76,43.23c-1.29-2-2.6-3.88-3.92-5.78l-5-7.11-5.69,5.43c-5,4.77-9.85,9.65-15,14.37-.49-.94-1-1.63-.95-1.16s.07.81.12,1.22c0,.2.09.39.12.59v0c0-.2-.08-.41-.11-.61-.18-.93-.35-1.86-.52-2.77.09.13.24.27.27.32,1.22,1.71.19-1-.33-.6l-.24-1.26c.1.14.24.28.28.33,1.22,1.72.18-1-.34-.6q-.12-.66-.27-1.29c.1.14.27.3.31.35,1.23,1.74.17-1-.34-.59,0,0,0,0,0,0-.09-.41-.19-.82-.29-1.22a6.77,6.77,0,0,0,.51.56c1.14,1-.16-1.56-.67-1.2-.09-.36-.19-.73-.29-1.08.57.26,1.31.41,1.14.56.49-.42-.72-.75-1.31-1.1a21.58,21.58,0,0,0-.84-2.34c.3.44.67.88.69.91,1.33,1.5-.35-2.38-1-1.79l0,.06c-.2-.43-.42-.85-.65-1.25-.51-.86-1.71-3.59-2.4-4.17-.53-.44-.62.21-.48.19a2.6,2.6,0,0,1-.72-.06c0,.65-.38,2.68-.15,2.61-.75.23-2-4-2.8-1.81-1.09,3-2.78-3.52-2.59-.43,0,.37-.52,1.92-.48,2.21.44,4.12,2.52,7.77,3.32,11.87a88.3,88.3,0,0,0,3.24,11.72c2.54,7.4,2.77,15.85,5.92,23.47C48.11,90.65,52.34,99.05,56,108c1.26,3.06,3.36,6.57,5.37,6.27,2.18-.32-.16-.47,1-1.31.72-.52,1.68-.37,1.6-.28s0-1.32.35-1.42c.66-.17.11,1.65,1.72,1,2.89-1.24-1.45-6-2-7.47,0,0,0,0,0-.14a1,1,0,0,0,0,.14c.05-.06-.21-2.46.65-1,1.3,2.26.92-.13.52-1.13C61.86,94.07,57.06,86,53.46,77.12c-1.91-4.7-2.82-11-4.21-17.06,1-1.17,1.85-2.49,2.36-2.92,0,0,0,0,.12-.09l-.12.09c.08,0,2.24-1,1.13.28-1.69,2,.43.82,1.23.12C58,54,61.8,50,65.67,46l-.28-.39c-.63.54-1.28,1.07-2,1.56-.59.66-1,1.23-1.66,2-3,3.28.43-2.36,1.66-2,.42-.63.86-1.24,1.32-1.84l.24-.3.41.58.22-.18-.45-.63.53-.66.2-.24h0l.19.28.34.53-.81.72.26.36.75-.77.66,1C71.46,53,74,60.86,77.82,67.87l.14.27,2.4,4.46,4-3.89c.93-.92,1.92-1.78,2.92-2.62a20.34,20.34,0,0,1,2.35-1.9l2.19-1.71c-.07.14-.13.34-.16.39-1,1.86,1-.29.39-.57l1-.79c-.07.15-.13.34-.15.39-1,1.87,1-.29.38-.56l1-.83a4.18,4.18,0,0,0-.18.43c-1,1.89,1-.32.37-.57h0l.95-.81a3.85,3.85,0,0,0-.26.71c-.37,1.46,1.31-.86.75-1.14.29-.25.56-.51.83-.76,0,.63.24,1.36,0,1.27.59.24.33-1,.37-1.66a23.71,23.71,0,0,0,1.69-1.81c-.25.46-.47,1-.49,1-.72,1.86,2-1.4,1.12-1.73h-.07c.29-.38.56-.76.81-1.15.54-.84,2.41-3.16,2.6-4C102.91,49.6,102.29,49.83,102.37,49.94ZM48.55,61.73c-.06-.24-.12-.48-.19-.72l.35-.35c.11.35.22.7.32,1.05A.39.39,0,0,0,48.55,61.73Zm16,40.81c.41-.36-1.44-1.5-1.77-2.05s-2-1.82-1.37-2.38C60.75,98.73,65.91,101.39,64.6,102.54Zm-2.36-5.11c.35-.3-3.32-2-2.28-2.94C59.76,94.67,63.08,96.7,62.24,97.43ZM49.33,62.82c1.41,5.73,2.37,10.66,4.6,16.13,1.55,3.8,3.62,7.34,4.75,11.29.42.78.83,1.36,1.29,2.23,2.09,3.92-2.08-1.21-1.29-2.23-6.11-8.09-7.53-18.07-9.89-27.57,0-.46,0-1,.24-1C49.13,62.09,49.24,62.46,49.33,62.82Zm4.53-5.93c.47.27.92-1.85,1.32-2.34s1-2.5,1.78-2.09C56.14,52,55.37,57.75,53.86,56.89Zm4-3.92c.41.22.8-3.81,2-3.13C59.63,49.71,58.84,53.52,57.86,53Z"/>
                <path class="cls-2" d="M102.27,49.17c-.15-.08-.19,0-.17.1C102.22,49.22,102.29,49.18,102.27,49.17Z"/>
            </g>
        </g>
    </g>
</svg>
