<svg xmlns="http://www.w3.org/2000/svg" viewBox="0 0 128 128" width="256" height="256">
    <defs>
        <style>.cls-1{fill:#33b75d;}.cls-2{fill-rule:evenodd;}</style>
    </defs>
    <g id="Слой_2" data-name="Слой 2">
        <g id="Слой_1-2" data-name="Слой 1">
            <g id="symbol_nun" data-name="symbol nun">
                <polygon class="cls-1"
                         points="64 128 24.45 121.78 6.31 86.07 0 46.52 28.35 18.23 64 0 99.65 18.23 128 46.52 121.69 86.07 103.55 121.78 64 128"/>
                <path class="cls-2"
                      d="M60.6,41.12a2.52,2.52,0,0,0,.2.55,1.08,1.08,0,0,0,.15.24c.34-.08.22-1.79.22-1.79A.72.72,0,0,0,60.6,41.12Z"/>
                <path class="cls-2" d="M64.07,29.3c.16-.19.25-.31.23-.31C64.11,29,64.06,29.13,64.07,29.3Z"/>
                <path class="cls-2"
                      d="M97.22,46.57l-1,.31c-12.7,3.78-29.51,6.69-44.95,10.48,0-.11,0-.19-.07-.22l.07-.2c.44-.7.87-1.4,1.3-2.1-.13.33-.24.76-.28.88-1.48,4,1.35-1.46.55-1.28l0,0,1.34-2.2-.07.18c-.21.64-.36,1.25-.36,1.22-.64,2.73,1.83-2.63,1.12-2.56q.6-1,1.17-2c0,1,.16,2-.11,2.06.76-.17.55-1.91.68-3,.85-1.51,1.66-3,2.41-4.5-.39,1-.73,2-.75,2.1-1.15,3.7,2.71-4.08,1.65-3.84a.21.21,0,0,0-.09,0c.42-.87.82-1.75,1.19-2.62.8-1.86,3.5-7.36,3.85-9,.27-1.22-.56-.29-.47-.18a2.31,2.31,0,0,1-.28-.84c-.81,1-3.45,3.82-3.25,3.94-.65-.4,3.83-8.31.79-5.68-4.23,3.64,2.87-8.34-.78-3.31-.44.6-2.59,2.48-2.93,3-4.78,6.9-8.16,14.73-12.73,22-3,4.77-5.89,9.64-8.67,14.56l-4.57,8.08,9.84-2.53c1.83-.47,3.63-1,5.44-1.44h.08c.94-.26,1.89-.5,2.83-.75C63,63.57,74.71,61.62,87.5,58.47l0,.06c-.39,1.21-.79,2.4-1.15,3.43-1.56,4.39-3.29,8.71-5.27,12.91A92,92,0,0,1,74.35,87c-.65,1-1.29,1.92-2,2.83-.35.46-.69.93-1,1.38l-1.1,1.33-.54.67-.58.63L68,95.11c-.39.42-.81.8-1.22,1.2s-.8.82-1.24,1.17-1.17,1-1.78,1.56-1.24,1-1.85,1.51-1.24.91-1.83,1.38-1.2.81-1.75,1.23l-.41.3-.4.26c-.27.17-.52.34-.76.52-.48.34-.9.7-1.28,1a2.9,2.9,0,0,0-1.3,1.64c-.14,1.09.09,1,.52.79s1-.59,1.61-.12a1,1,0,0,1-.09,1.57l.11,0,.31,0c.26,0,.6-.09,1-.12.68-.12,1.39-.21,1.43,0s-.17.3-.48.44a8,8,0,0,1-1.13.42c-.8.27-1.53.64-1.18,1.38s1.47.79,3,.42a20.37,20.37,0,0,0,2.54-.91c.88-.42,1.79-1,2.7-1.49s1.73-1.22,2.56-1.83,1.51-1.3,2.18-1.89a11.16,11.16,0,0,0,.92-.86l.78-.77c.34-.33.65-.61.89-.82a1.84,1.84,0,0,1,.26-.22l-.26.22.27-.16c.3-.21.81-.57,1.28-.87.94-.61,1.72-1,.24.61-1,1.08-1.51,1.63-1.66,1.88s.08.19.5,0c.21-.13.47-.29.75-.49s.56-.44.85-.69c.59-.49,1.2-1,1.63-1.45a67.72,67.72,0,0,0,9.16-11.9,101.11,101.11,0,0,0,6.68-13C93.4,72.46,95.09,68,96.6,63.4c.76-2.28,1.47-4.58,2.15-6.89s1.32-4.61,1.91-7l1-4.24ZM79.45,96.1a24.26,24.26,0,0,1-1.86,3.28c-.68.89-1.32,1.48-1.86,1.47.34,0,.93-.9,1.53-1.93a29.46,29.46,0,0,1,1.51-2.78c.34-.51.9-1.71,1.5-2.78S81.43,91.3,82,91.24C81.37,91.3,80.58,93.7,79.45,96.1Zm6.49-10.84c-.18.64-.43,1.47-.71,2.32-.55,1.71-1.36,3.41-2,3.51.28,0,.72-1.7,1.22-3.38a15.68,15.68,0,0,1,.84-2.33c.31-.65.64-1.12,1.06-1.2A3.19,3.19,0,0,0,85.94,85.26Zm14.49-35.84c-.22.88-.48,1.83-.76,2.81C97.38,60.38,95,68.45,91,76.08c-.34.85-.64,1.62-1,2.4s-.64,1.6-1.09,2.53c-1,2.11-1.48,2.89-1.59,2.89A6.13,6.13,0,0,1,87.91,82c.87-2.16,2.27-5.5,3.07-5.94l4.38-13.42q.81-2.46,1.6-4.9h0l.11-.36c.52-1.6,1-3.2,1.53-4.82l0-.06h0c.33-1.08.66-2.17,1-3.27l.72-2.46-2.77.73c-15.16,4-30.66,6.92-45.64,10.85l-1.07.27a2.14,2.14,0,0,1,.1-.22c4.5-1.25,9-2.55,13.57-3.6C76,52.14,86,50,97.29,46.78l4.11-1.18Z"/>
                <path class="cls-2"
                      d="M62.38,111a5.08,5.08,0,0,0-1,.76A10.89,10.89,0,0,0,60.29,113c.41.16,1.09-.44,1.7-1l.45-.44a5,5,0,0,1,.38-.4c.24-.23.45-.37.61-.32A1.36,1.36,0,0,0,62.38,111Z"/>
            </g>
        </g>
    </g>
</svg>
