<svg xmlns="http://www.w3.org/2000/svg" viewBox="0 0 128 128" width="256" height="256">
    <defs>
        <style>.cls-1{fill:#c63946;}.cls-2{fill-rule:evenodd;}</style>
    </defs>
    <g id="Слой_2" data-name="Слой 2">
        <g id="Слой_1-2" data-name="Слой 1">
            <g id="symbol_aleph" data-name="symbol aleph">
                <polygon class="cls-1"
                         points="64 128 24.45 121.78 6.31 86.07 0 46.52 28.35 18.23 64 0 99.65 18.23 128 46.52 121.69 86.07 103.55 121.78 64 128"/>
                <path class="cls-2" d="M77.74,41.54c.23-.07-.55-.6-.55-.6C76.37,41.19,77.72,41.55,77.74,41.54Z"/>
                <path class="cls-2" d="M75.13,36.93c-.14,0-.13.08,0,.13S75.15,36.92,75.13,36.93Z"/>
                <path class="cls-2" d="M75.43,96c-.93.29.65,1.09.65,1.09C76.63,97,75,96.17,75.43,96Z"/>
                <path class="cls-2"
                      d="M85.52,49.92a3.16,3.16,0,0,0-.15.54.88.88,0,0,0,0,.27c.23.16,1-1.15,1-1.15C85.94,49.28,85.68,49.56,85.52,49.92Z"/>
                <path class="cls-2" d="M93.73,43.55c-.12-.12-.22-.06-.3.08C93.63,43.59,93.74,43.57,93.73,43.55Z"/>
                <path class="cls-2"
                      d="M89.25,86,89,86l.22.09c0-.09-3.41-1.93-.77-1.24,4,1.06.54-.7-1.08-1.28-4.29-1.54-8.63-3-13-4.32-.29-2.64-.54-5.29-.62-8C73.66,66.66,75.54,60.81,76,55.4c0-.31.08-.63.14-1,.63-.4,1.21-.88,1-1l1.68-.68c-.51.7-.9,1.54-1.09,1.41.53.37,1.28-1,1.92-1.77,1.25-.54,2.47-1.11,3.66-1.7-.72.47-1.45,1-1.5,1.05-2.51,1.92,3.62-1.19,2.88-1.71l-.07,0c.68-.36,1.34-.73,2-1.12,1.4-.83,5.72-3.06,6.72-4,.77-.71-.19-.58-.18-.44a2.72,2.72,0,0,1,.24-.79c-1,.17-3.91.51-3.85.73-.18-.71,6.37-3.52,3.29-3.6-4.29-.12,5.83-4.17,1.18-2.91-.55.15-2.74.11-3.18.24-4.76,1.44-9.32,3.8-14,5.84,0-.53,0-1.06,0-1.58.1.37.26.76.27.79.6,1.35.44-1.69-.27-1.46,0,0,0,0-.05,0a8.92,8.92,0,0,0-.14-1c-.14-.71-.27-2.85-.65-3.42s-.54,0-.43,0a2.31,2.31,0,0,1-.55-.23c-.24.42-1.11,1.71-.91,1.72-.66,0-.4-3.2-1.67-1.93-1.78,1.76-1.14-3.08-1.92-1-.1.26-1,1.16-1,1.37-.89,2.88-.35,5.86-.94,8.82-.08.39-.14.78-.21,1.16-4.72,1.83-9.41,3.83-14,5.93-7.61,3.45-15.69,6-23.77,9L16.51,67.5l14.54,6.78a133.27,133.27,0,0,0,12.49,5.18c7.57,2.63,15.11,5.07,22.68,7.52.12,1.87.23,3.75.29,5.64.08,2.39.68,5.28,2.37,5.6s0-.36,1.19-.63a1.61,1.61,0,0,1,1.35.22s.36-.9.7-.86c.58,0-.41,1.14,1.08,1.08,2.68-.09.65-4.46.67-5.54,0,0,0,0,0-.1v.1c.08-.1.58-1.67.8-.48.35,1.86.77.15.75-.62,0-.48,0-1,0-1.43,3.94,1.3,7.89,2.62,11.86,4,5,1.76,11.34,3.36,12.53,1.8s-.75-.29-1-1.75c-.13-.9.83-1.4.89-1.26l-.27-.16-.59-.41c-.43-.32-.83-.68-.75-.85.3-.57,2.28,1.31,2.63-.31C101.33,88.11,91.59,86.89,89.25,86ZM75.1,54.2l.06,0,0,.45-.11.11C75,54.56,75.07,54.38,75.1,54.2ZM73.79,80.83c-.07-.21-.13-.42-.19-.63H74c0,.22,0,.43,0,.65Zm1-20.27c-.61,4.2-1.33,7.77-1.21,12,.06,2.18.39,4.35.44,6.52l-.76-.24c-1.56-7.53,1.1-15.12,1.59-22.58q0-.62.12-1.23l.12,0A54.51,54.51,0,0,1,74.81,60.56ZM41.19,69.41l-1.45-.62.89-.33-.53-.21-.85.33-.36-.16-.26-.11h0l.84-.32h0l.13,0-.13,0,.63.26.25-.1-.63-.26,1.42-.54h0c4.38-1.69,8.74-3.39,13-5.26,2.13-.94,4.28-1.8,6.43-2.61,1.47-.6,2.94-1.15,4.41-1.62L67.44,57c-.61,4.92-2.37,9.93-2.2,15.09,0,1.46.12,2.91.21,4.36-7-2.13-14-4.28-21.07-6.75-1.13-.4-2.3-.84-3.49-1.32l-.26.09c2.11.85,4.27,1.67,6.54,2.46C53.3,73.08,59.48,74.7,65.5,77.2v.07A117.91,117.91,0,0,1,41.19,69.41ZM74.94,91.15c.37-.11-.35-1-.66-1.54l.71.23C75.32,90.46,75.46,91,74.94,91.15Zm-.36-10.24c0-.23,0-.46-.07-.69,1.55,0,3.45.18,3.64.86C78.07,80.79,76.17,81,74.58,80.91Zm8.08,2.36c-.87-.22-4-.23-4.23-1.11.26,1,7.84-.12,8.32,1.69C86.6,83.28,83.64,83.52,82.66,83.27Z"/>
                <path class="cls-2"
                      d="M56.39,62.41c1.65-.7,3.67-1.36,5.4-2.11,2.25-1,6.24-3.31,5-3-.61.17-1.22.36-1.83.55-1.47.53-2.94,1.06-4.41,1.62-5,2.06-10.08,4.7-15.2,6.71-1.72.68-3.39,1.32-5,2l.54.22C46,66.48,51.36,64.55,56.39,62.41Z"/>
                <path class="cls-2" d="M99.7,87.26c-.19-.72-2.35.38-2.5-.16C97.53,88.32,99.7,87.26,99.7,87.26Z"/>
            </g>
        </g>
    </g>
</svg>
