<svg xmlns="http://www.w3.org/2000/svg" viewBox="0 0 128 128" width="256" height="256">
    <defs>
        <style>.cls-1{fill:#bb933a;}.cls-2{fill-rule:evenodd;}</style>
    </defs>
    <g id="Слой_2" data-name="Слой 2">
        <g id="Слой_1-2" data-name="Слой 1">
            <g id="symbol_qoph" data-name="symbol qoph">
                <polygon class="cls-1"
                         points="64 128 24.45 121.78 6.31 86.07 0 46.52 28.35 18.23 64 0 99.65 18.23 128 46.52 121.69 86.07 103.55 121.78 64 128"/>
                <path class="cls-2" d="M85.59,70.69c.37.21,1.5-.62,1.5-.62C85.76,69.31,85.56,70.66,85.59,70.69Z"/>
                <path class="cls-2" d="M97.76,67.75a.36.36,0,0,0-.44,0A1.62,1.62,0,0,0,97.76,67.75Z"/>
                <path class="cls-2"
                      d="M102.63,58.62a16.19,16.19,0,0,0-.63-2.91c-.32-1-.63-2-1-2.92s-.86-1.8-1.24-2.61l-.29-.58c-.1-.19-.21-.37-.31-.54l-.56-1c-.24-.43-.44-.79-.58-1.08,0,0,0-.05-.14-.31L98,47a13.12,13.12,0,0,0-.6-1.76c-.39-1.05-.59-1.9.71-.05.45.6.71,1.1.95,1.45a4.94,4.94,0,0,0,.5.68c.22.21.22,0,.09-.49-.06-.23-.16-.52-.28-.85a7.51,7.51,0,0,0-.45-1c-.36-.69-.77-1.41-1.1-1.95A38.1,38.1,0,0,0,71.25,26a40,40,0,0,0-16,.9,40.76,40.76,0,0,0-14.33,7A46.39,46.39,0,0,0,29.46,46.4a40.81,40.81,0,0,0-5.82,18.19l-.3,4.24,4.88.34c4.53.31,9.13.57,13.64.69,2.47.06,5.42.32,8,.36,3.39.06,9.52-.47,7.76-.67-.89-.1-1.78-.19-2.67-.26-2.2-.13-4.41-.27-6.62-.38-1.78-.06-3.57-.1-5.36-.11-4.92,0-9.9,0-14.78-.21l-4.33-.17.32-3.83c.07-.78.14-1.54.22-2.3a35.58,35.58,0,0,1,.85-4.92A20.65,20.65,0,0,1,25.94,55c.26-.77.47-1.53.75-2.27s.63-1.45.93-2.17l.47-1.07.55-1,1.11-2c.38-.67.85-1.28,1.26-1.93a44.45,44.45,0,0,1,5.93-7L38.7,36l.89-.78.95-.71L42.47,33c.68-.44,1.39-.85,2.09-1.29a40.46,40.46,0,0,1,12.72-5.07A31.93,31.93,0,0,1,71,26.73a11.84,11.84,0,0,1,1.42.2l1.36.24,1.4.25c.49.1,1,.27,1.51.43a22.32,22.32,0,0,1,2.58.87c.51.24.73.38.73.44s-.22,0-.58-.07c-.19,0-.4-.12-.66-.17L78,28.73c-1.24-.28-2.76-.76-4.12-1a8.75,8.75,0,0,1-2.79-1,49.35,49.35,0,0,0-16.45,1.8A43.75,43.75,0,0,0,40,35.83,40.84,40.84,0,0,0,29.32,48.38a38,38,0,0,0-4.64,16.21l-.17,3.33,3.71.2c3.59.19,7.2.34,10.81.42,3.1.06,6.22.2,9.33.37,2.21.07,4.42.19,6.62.38l5.8.33s0,.08,0,.12l-.36.07c-2.84.38-1.09.46.31.31-.65,4.57-1.79,9.58-2.17,14.33-.08,1-.38,2.25-.45,3.33-.1,1.4.33,4,.57,3.32.12-.37.22-.73.32-1.1.16-.89.32-1.79.46-2.7.33-3.12.1-6.36.51-9.52.36-2.7.75-5.2,1-7.69.22,0,.42-.07.59-.11-.62,4.46-1.42,8.92-1.69,13.34-.07,1.34-.24,2.67-.44,4A20.58,20.58,0,0,1,59,90c-.17.87-.33,1.73-.5,2.58,0-.15-.13-.32-.14-.37-.53-1.9-.53.81.09.63L58.22,94c0-.15-.13-.32-.15-.37-.53-1.9-.53.81.1.63L58,95.48a3.54,3.54,0,0,0-.16-.41c-.53-1.91-.53.85.11.63h0c-.06.38-.12.77-.17,1.15a3.65,3.65,0,0,0-.28-.66c-.7-1.24-.4,1.42.2,1.27,0,.35-.08.7-.11,1-.44-.42-1.08-.8-.87-.87-.6.21.41.9.83,1.39a22.4,22.4,0,0,0,0,2.31c-.12-.48-.31-1-.32-1-.71-1.74-.52,2.19.32,1.9a.07.07,0,0,0,0,0c0,.44.1.88.17,1.3.17.92.33,3.69.77,4.42.33.56.64,0,.51,0a2.31,2.31,0,0,1,.65.29c.27-.54,1.31-2.21,1.07-2.22.78,0,.47,4.14,2,2.5,2.1-2.28,1.35,4,2.27,1.23.11-.33,1.16-1.5,1.24-1.76,1-3.74.4-7.6,1.11-11.42a76.58,76.58,0,0,0,1.13-11.26c.17-4.77,1.42-9.6,2.2-14.51,1.2-.07,2.9-.35,2.55-.63h2.55l-.12.07c-.73.41-1.32.95-1.58.78.56.37,1.35,0,2.11-.43a8.33,8.33,0,0,1,.85-.42c1.9,0,3.74-.07,5.53-.16-1.08.15-2.18.35-2.26.37-3.82.77,5.53.23,4.35-.45l-.11,0c1-.07,2-.16,3-.26,2.09-.21,8.54-.59,10-1,1.08-.29-.4-.48-.36-.38a.77.77,0,0,1,.24-.5c-1.45-.17-6-.86-5.83-.69-.37-.61,9.2-.52,4.43-1.58-6.53-1.55,8-1,1.21-1.65-.82-.08-4.13-.88-4.75-.95-4.47-.46-8.68-.64-12.89-.77-2.75-.08-5.5-.16-8.28-.3-.31-8.5-1.21-16.87-1.47-25.49.57.1,1.14.21,1.71.34a29,29,0,0,1,11,5.13,28.43,28.43,0,0,1,8,9.52c.31.65.7,1.29,1,2s.58,1.39.89,2.07a7.4,7.4,0,0,1,.4,1c.13.35.26.69.38,1l.4,1c.12.32.2.65.31,1,.2.63.42,1.23.65,1.78l.09.2,0,.08h0l.13,0a1.47,1.47,0,0,1,.41,0,2.24,2.24,0,0,1,1.11.27,4.08,4.08,0,0,1,.91.65c.52.49.72.74.78.78s0-.1-.13-.28a6,6,0,0,1-.35-.5c-.06-.13,0-.2.29-.22a1.52,1.52,0,0,1,1.12.39c.31.27.5.64.45.67a3.17,3.17,0,0,1,0-.37c0-.22.08-.53.15-.86s.14-.66.22-.93.15-.41.26-.39.27.21.3.61,0,.88,0,1.37c0,1,.07,2,.78,2.38.34.18.68,0,1-.58a6.93,6.93,0,0,0,.7-2.82c0-.3,0-.62,0-.93s0-.41,0-.62C102.75,59.54,102.7,59.09,102.63,58.62Zm-40.3,2.49-1-.08c-.18-3.41-.68-6.78-.38-10.19-.11-.82-.28-1.45-.41-2.36-.56-4.11,1.52,1.73.41,2.36A32.7,32.7,0,0,1,62.33,61.11ZM59.8,38.2c-.52.17.81,1.78.92,2.36s1.23,2.25.44,2.52C62,42.78,58.17,38.75,59.8,38.2Zm.39,5.21c-.44.15,2.37,2.87,1.08,3.31C61.52,46.64,59.14,43.77,60.19,43.41Zm.87-6.94s0,0,0,.12a.48.48,0,0,0,0-.12c-.09.13-.68,2.15-.94.61a4.88,4.88,0,0,0-.18-.75c.37-.06.73-.13,1.1-.18A1.22,1.22,0,0,1,61.06,36.47ZM42.22,60.06c-2.57-.06-5.16-.19-7.75-.35v0h0a32.13,32.13,0,0,1,4-8.83l1.07-1.47.52-.73c.17-.24.39-.45.59-.69.39-.45.78-.9,1.16-1.36s.86-.84,1.27-1.27c.8-.9,1.79-1.59,2.66-2.41.45-.39,1-.7,1.44-1.07a13.37,13.37,0,0,1,1.46-1,29.49,29.49,0,0,1,10.84-4.43,5.4,5.4,0,0,0-.21,1.48C59.33,45.5,60.6,53.16,61,61,54.66,60.52,48.4,60.21,42.22,60.06ZM61,69.64h.23l-.24,0Zm10.47.46c-.3.05-.57.11-.79.16l0-.21,1,0ZM86.71,32.84l-1.13-.43L84.24,32a25,25,0,0,1-2.51-.87c-.72-.27-1.23-.59-1.33-1,0,.17,1.9.39,3.72,1.07s3.67,1.59,3.72,2.25C87.83,33.33,87.38,33.11,86.71,32.84ZM97,42.67c.13-.34-.74-1.12-1.69-1.94-.49-.41-1-.84-1.46-1.19a10.4,10.4,0,0,1-1.17-.9,20.92,20.92,0,0,0-2.7-2c-1.09-.71-2-1.48-2-2,0,.27.62.7,1.53,1.24.45.27,1,.57,1.57.89s1.13.73,1.73,1.12,1.17.81,1.72,1.23a16.31,16.31,0,0,1,1.39,1.32C96.61,41.39,97.13,42.14,97,42.67Z"/>
                <path class="cls-2"
                      d="M104.8,60.33a1.14,1.14,0,0,0-.11-.44,7,7,0,0,0-.57-1.06c-.44-.73-.91-1.41-.7-1.66-.46.57-.14,1.4.3,2.13.22.36.47.7.66,1l.14.16.1.25.09.21a.82.82,0,0,0,.08-.25A1.51,1.51,0,0,0,104.8,60.33Z"/>
                <path class="cls-2" d="M56.5,102.37c-.27.1.64.79.65.79C58.11,102.83,56.52,102.37,56.5,102.37Z"/>
                <path class="cls-2" d="M59.58,108.34c.17,0,.15-.1.06-.17C59.58,108.28,59.56,108.35,59.58,108.34Z"/>
            </g>
        </g>
    </g>
</svg>
