<svg xmlns="http://www.w3.org/2000/svg" viewBox="0 0 128 128" width="256" height="256"><defs><style>.cls-1{fill:#131414;}.cls-2,.cls-3{fill:#35b7b5;}.cls-3{fill-rule:evenodd;}</style></defs><g id="Слой_2" data-name="Слой 2"><g id="Слой_1-2" data-name="Слой 1"><g id="decryptor_lamedh" data-name="decryptor lamedh"><polygon class="cls-1" points="64 127.02 25.09 120.9 7.25 85.77 1.04 46.85 28.92 19.02 64 1.09 99.08 19.02 126.96 46.85 120.75 85.77 102.91 120.9 64 127.02"/><path class="cls-2" d="M64,128l-39.55-6.22L6.31,86.07l0-.15L0,46.52,28.35,18.23l.13-.07L64,0,99.65,18.23,128,46.52l-6.31,39.55-.07.14-18.07,35.57Zm-38.27-8L64,126l38.27-6,17.55-34.56,6.11-38.27L98.5,19.82,64,2.18,29.5,19.82,2.07,47.19,8.18,85.46Z"/><path class="cls-2" d="M93.46,26.23,64,11.17,34.54,26.23,11.11,49.61l5.22,32.68,15,29.51L64,116.94l32.69-5.14,15-29.51,5.22-32.68Zm10.72,53.19L91.55,104.29,64,108.63l-27.55-4.34L23.82,79.42,19.43,51.88l19.74-19.7L64,19.48l24.83,12.7,19.74,19.7Z"/><polygon class="cls-1" points="64 98.53 42.69 95.18 32.93 75.94 29.53 54.64 44.8 39.4 64 29.58 83.2 39.4 98.47 54.64 95.07 75.94 85.31 95.18 64 98.53"/><path class="cls-2" d="M64,100.17,41.63,96.65,31.37,76.45,27.8,54.07l16-16L64,27.76,84.17,38.07l16,16L96.63,76.45,86.37,96.65ZM43.76,93.71,64,96.89l20.24-3.18,9.28-18.27L96.75,55.2,82.24,40.72,64,31.4,45.76,40.72,31.25,55.2l3.23,20.24Z"/><line class="cls-1" x1="64" y1="16.87" x2="64" y2="29.58"/><rect class="cls-2" x="62.71" y="16.87" width="2.59" height="12.71"/><line class="cls-1" x1="111.19" y1="51.16" x2="98.47" y2="54.64"/><rect class="cls-2" x="98.24" y="51.6" width="13.18" height="2.59" transform="translate(-10.23 29.47) rotate(-15.27)"/><line class="cls-1" x1="93.16" y1="106.66" x2="85.31" y2="95.18"/><rect class="cls-2" x="87.94" y="93.96" width="2.59" height="13.91" transform="translate(-41.41 68.05) rotate(-34.39)"/><line class="cls-1" x1="64" y1="111.24" x2="64" y2="98.53"/><rect class="cls-2" x="62.71" y="98.53" width="2.59" height="12.72"/><line class="cls-1" x1="34.84" y1="106.66" x2="42.69" y2="95.18"/><rect class="cls-2" x="31.81" y="99.62" width="13.91" height="2.59" transform="translate(-66.39 75.85) rotate(-55.58)"/><line class="cls-1" x1="16.81" y1="51.16" x2="29.53" y2="54.64"/><rect class="cls-2" x="21.87" y="46.31" width="2.59" height="13.18" transform="translate(-33.97 61.31) rotate(-74.72)"/><line class="cls-1" x1="21.46" y1="80.33" x2="32.93" y2="75.94"/><rect class="cls-2" x="21.06" y="76.84" width="12.27" height="2.59" transform="translate(-26.1 14.86) rotate(-20.92)"/><line class="cls-1" x1="106.54" y1="80.33" x2="95.07" y2="75.94"/><rect class="cls-2" x="99.51" y="72" width="2.59" height="12.27" transform="translate(-8.19 144.37) rotate(-69.06)"/><line class="cls-1" x1="37.71" y1="30.3" x2="44.8" y2="39.4"/><rect class="cls-2" x="39.96" y="29.09" width="2.59" height="11.53" transform="translate(-12.71 32.71) rotate(-37.92)"/><line class="cls-1" x1="90.29" y1="30.3" x2="83.21" y2="39.4"/><rect class="cls-2" x="80.98" y="33.56" width="11.53" height="2.59" transform="translate(5.93 81.84) rotate(-52.06)"/><path class="cls-3" d="M68,51.72c.14.05.14-.61.14-.61C67.66,50.92,68,51.72,68,51.72Z"/><path class="cls-3" d="M69.93,47.71c-.07-.05-.1,0-.11,0Z"/><path class="cls-3" d="M76.87,76.13c-.33-.47-.4-.39-.47-.22s-.15.44-.51.33-.57-.7-.5-.69-.73.51-.86.34.11-.29.27-.48.22-.43-.16-.68c-.7-.45-1.27.18-2,1a15.31,15.31,0,0,1-1.87,1.9l-.07,0,.07,0s-.3.09-.52.14-.58.07-.1-.32c1.24-1.07-.14-.45-.7-.11l-.72.44-.36.2-.26.15,0,0,.16,0-.28.11.08,0-.17,0-.43.13c-.3.09-.6.16-.91.23a16.87,16.87,0,0,1-1.84.32,10.48,10.48,0,0,1-3.59-.14,5.91,5.91,0,0,1-1.6-.59,6.76,6.76,0,0,1-.72-.46,6.86,6.86,0,0,1-.64-.57,6.59,6.59,0,0,1-1.06-1.46,9.09,9.09,0,0,1-.68-1.79,9.33,9.33,0,0,1-.26-3.13,13.47,13.47,0,0,1,.65-3.37A21.84,21.84,0,0,1,58.2,64c.53-1.07,1.14-2.11,1.75-3.13a8,8,0,0,1,.63-.92c.23-.31.46-.62.67-.93a11.91,11.91,0,0,0,.83-1.45c.23-.45.35-.77.16-.61s-.39.37-.58.57-.39.44-.58.67-.37.45-.54.68a15.46,15.46,0,0,0-1.06,1.69c-.74,1.35-1.34,2.78-1.93,4.17a18.19,18.19,0,0,0-1.42,5A11.22,11.22,0,0,0,56.67,75a6.65,6.65,0,0,0,2,2.81,9.13,9.13,0,0,0,1.44.86,13.74,13.74,0,0,0,1.63.62,12.59,12.59,0,0,0,1.51,0c.66,0,.92,0,.94,0s-.23.14-.57.21a4,4,0,0,1-1.15.06c-.37,0-.66-.15-.73-.3a5.69,5.69,0,0,1-2.54-.51,5.34,5.34,0,0,1-2-1.67,6.77,6.77,0,0,1-1.16-2.47,5.15,5.15,0,0,1-.15-.68c0-.23-.1-.45-.12-.69,0-.47-.09-.93-.08-1.41a16.14,16.14,0,0,1,1-5.49,34.78,34.78,0,0,1,2.3-5,19.78,19.78,0,0,1,1.56-2.37,11.14,11.14,0,0,1,1.12-1.35c.41-.46.83-.9,1.25-1.34l-.09.24c-.27.62-.12.54,0,.29s.35-.62.19-.67l.5-.51.07-.07c0,.1-.08.22-.1.25-.55,1.21.55-.28.23-.38l.6-.58a1.13,1.13,0,0,0-.11.26c-.59,1.21.56-.29.22-.37h0l.57-.55a2.43,2.43,0,0,0-.17.43c-.26.89.77-.61.47-.73l.52-.52c0,.37.06.78,0,.75.32.09.23-.6.3-1,.38-.39.74-.78,1.09-1.18a5.57,5.57,0,0,0-.35.64c-.55,1.12,1.21-.92.77-1.07h0c.2-.24.39-.47.57-.71a30.79,30.79,0,0,0,1.95-2.41c.18-.38-.21-.25-.18-.19a1.23,1.23,0,0,1-.07-.39L69.1,48c-.43.16-.86.34-.81.39-.12-.15.37-.71.74-1.18s.6-.88-.1-.78c-1,.15-.56-.47-.09-1s1-1,0-.49c-.22.11-1.24.29-1.41.39a17.56,17.56,0,0,0-3.31,2.72c-1,1-2,2.09-3.06,3.1A29.65,29.65,0,0,0,55.71,58a41.71,41.71,0,0,0-3.84,8.12A18.43,18.43,0,0,0,51,71c0,.42,0,.84,0,1.26l0,.63.08.64.08.65c0,.22.09.44.14.66l.15.66c.06.22.14.45.21.67l.23.65c.09.22.19.43.29.65s.19.43.3.65l.37.63.18.32.22.31.43.61.5.57a6.88,6.88,0,0,0,.53.55l.56.52.61.47a5.31,5.31,0,0,0,.63.42c.21.13.43.27.65.39a12.62,12.62,0,0,0,2.7,1,15.63,15.63,0,0,0,5.22.35,19.65,19.65,0,0,0,2.44-.36c.39-.08.79-.18,1.19-.28l.6-.17.31-.1.36-.12.23-.08.14-.07a4.65,4.65,0,0,0,.41-.23l.38-.21.72-.44c.48-.29.95-.6,1.42-.93a12,12,0,0,0,2.85-2.69c.17-.26.33-.5.46-.74a4.55,4.55,0,0,0,.28-.69A1.2,1.2,0,0,0,76.87,76.13ZM65.62,79.48c-.48.3-1,.52-1.18.18,0,.07.52-.22,1-.49s1-.51,1.13-.27C66.51,78.8,66.1,79.18,65.62,79.48Zm3.28-1.41c-.2.26-.44.59-.58.73l.2-.08-.06,0c-.14.07-.46.32-.79.5s-.66.28-.79.1c.08.11.31,0,.61-.19L68,78.8l.24-.21a1.25,1.25,0,0,0,.2-.2l-.24.1a3.61,3.61,0,0,1,.65-.69c.21-.16.41-.23.58-.11C69.29,77.61,69.11,77.81,68.9,78.07Z"/><path class="cls-3" d="M72.94,74.67a1,1,0,0,0,0-.35c0-.1,0-.17,0-.17-.16-.06-.15.17-.16.42s0,.5-.13.44C72.85,75.14,72.93,74.91,72.94,74.67Z"/></g></g></g></svg>
