<svg xmlns="http://www.w3.org/2000/svg" viewBox="0 0 128 128" width="256" height="256"><defs><style>.cls-1{fill:#131414;}.cls-2,.cls-3{fill:#d88942;}.cls-3{fill-rule:evenodd;}</style></defs><g id="Слой_2" data-name="Слой 2"><g id="Слой_1-2" data-name="Слой 1"><g id="decryptor_res" data-name="decryptor res"><polygon class="cls-1" points="64 127.02 25.09 120.9 7.25 85.77 1.04 46.85 28.92 19.02 64 1.09 99.08 19.02 126.96 46.85 120.75 85.77 102.91 120.9 64 127.02"/><path class="cls-2" d="M64,128l-39.55-6.22L6.31,86.07,0,46.52,28.35,18.23l.13-.07L64,0,99.65,18.23,128,46.52l-6.31,39.55-.07.14-18.07,35.57Zm-38.27-8L64,126l38.27-6,17.55-34.56,6.11-38.27L98.5,19.82,64,2.18,29.5,19.82,2.07,47.19,8.18,85.46Z"/><path class="cls-2" d="M93.46,26.23,64,11.17,34.54,26.23,11.11,49.61l5.22,32.68,15,29.51L64,116.94l32.69-5.14,15-29.51,5.22-32.68Zm10.72,53.19L91.55,104.29,64,108.63l-27.55-4.34L23.82,79.42,19.43,51.88l19.74-19.7L64,19.48l24.83,12.7,19.74,19.7Z"/><polygon class="cls-1" points="64 98.53 42.69 95.18 32.93 75.94 29.53 54.64 44.8 39.4 64 29.58 83.2 39.4 98.47 54.64 95.07 75.94 85.31 95.18 64 98.53"/><path class="cls-2" d="M64,100.17,41.63,96.65,31.37,76.45,27.8,54.07l16-16L64,27.76,84.17,38.07l16,16L96.63,76.45,86.37,96.65ZM43.76,93.71,64,96.89l20.24-3.18,9.28-18.27L96.75,55.2,82.24,40.72,64,31.4,45.76,40.72,31.25,55.2l3.23,20.24Z"/><line class="cls-1" x1="64" y1="16.87" x2="64" y2="29.58"/><rect class="cls-2" x="62.71" y="16.87" width="2.59" height="12.71"/><line class="cls-1" x1="111.19" y1="51.16" x2="98.47" y2="54.64"/><rect class="cls-2" x="98.24" y="51.6" width="13.18" height="2.59" transform="translate(-10.23 29.47) rotate(-15.27)"/><line class="cls-1" x1="93.16" y1="106.66" x2="85.31" y2="95.18"/><rect class="cls-2" x="87.94" y="93.96" width="2.59" height="13.91" transform="translate(-41.4 68.05) rotate(-34.39)"/><line class="cls-1" x1="64" y1="111.24" x2="64" y2="98.53"/><rect class="cls-2" x="62.71" y="98.53" width="2.59" height="12.72"/><line class="cls-1" x1="34.84" y1="106.66" x2="42.69" y2="95.18"/><rect class="cls-2" x="31.81" y="99.62" width="13.91" height="2.59" transform="translate(-66.39 75.85) rotate(-55.58)"/><line class="cls-1" x1="16.81" y1="51.16" x2="29.53" y2="54.64"/><rect class="cls-2" x="21.87" y="46.31" width="2.59" height="13.18" transform="translate(-33.97 61.31) rotate(-74.72)"/><line class="cls-1" x1="21.46" y1="80.33" x2="32.93" y2="75.94"/><rect class="cls-2" x="21.06" y="76.84" width="12.27" height="2.59" transform="translate(-26.1 14.86) rotate(-20.92)"/><line class="cls-1" x1="106.54" y1="80.33" x2="95.07" y2="75.94"/><rect class="cls-2" x="99.51" y="72" width="2.59" height="12.27" transform="translate(-8.19 144.36) rotate(-69.06)"/><line class="cls-1" x1="37.71" y1="30.3" x2="44.79" y2="39.4"/><rect class="cls-2" x="39.96" y="29.09" width="2.59" height="11.53" transform="translate(-12.71 32.71) rotate(-37.92)"/><line class="cls-1" x1="90.29" y1="30.3" x2="83.2" y2="39.4"/><rect class="cls-2" x="80.98" y="33.56" width="11.53" height="2.59" transform="translate(5.93 81.84) rotate(-52.06)"/><path class="cls-3" d="M67.82,80.11,67.7,80c-.12.1.3.84.3.84.23-.17.16-.39,0-.56A1.88,1.88,0,0,0,67.82,80.11Z"/><path class="cls-3" d="M68,71.78h0Z"/><path class="cls-3" d="M69,47.88c-3.1,2.85-6.22,5.74-9.12,8.93C56,61.09,52.23,65.39,48.42,69.73l-4.43,5,6.66-.16c4-.1,8.1-.19,12.22-.23,3.46,0,4.12-.38,4.58-1.28s-.52,0-.91-.63c-.22-.35,1.1-.65,1.43-.68l-1.16,0-.14,0-.45-.09c-.32-.07-.64-.17-.61-.26.08-.3,1.65.22,1.57-.57-.13-1.41-3.09-.33-4.48-.33,0,0,0,0-.15,0h.15c-.06,0-2.46-.31-.7-.43,2.69-.17.21-.4-.9-.4-1.9,0-3.8,0-5.7.08h-.6C57.87,66.14,61,62.52,64.22,59c1.42-1.55,3-3.17,4.8-4.83h0c-.16,2.17-.29,4.34-.37,6.47,0,1.12-.17,2.44-.21,3.61,0,1.52.16,4.36.27,3.59.06-.39.11-.79.15-1.19.08-1,.15-1.94.21-2.92.15-3.21.06-6.55.22-9.81h0l.24-.23,0,.79h0c-.09,1.65-.17,3.3-.21,4.94,0,1.45-.11,2.89-.21,4.32,0,1-.11,2-.21,2.92s-.16,1.88-.23,2.8c0-.16-.06-.34-.07-.4-.2-1.66-.24-.07-.09.51-.29.12-.54.22-.62.13.17.2.46.18.75.09,0,.41-.06.82-.1,1.22,0-.16-.06-.34-.06-.4-.25-2.06-.25.88,0,.69,0,.44-.07.87-.1,1.31a4,4,0,0,0-.07-.45c-.25-2.07-.25.92,0,.68h0c0,.42-.06.83-.08,1.24,0,0,0,0,0-.08a6.29,6.29,0,0,0-.12-.62c-.33-1.35-.19,1.53.09,1.37,0,.38,0,.76,0,1.13-.2-.45-.5-.87-.4-.94-.28.22.19,1,.39,1.5,0,.85,0,1.69,0,2.5-.06-.52-.15-1.06-.16-1.09-.33-1.89-.24,2.36.16,2,0,0,0,0,0,0,0,.47,0,.94.08,1.41.08,1,.15,4,.35,4.79.16.6.31,0,.24,0a1.16,1.16,0,0,1,.31.32,16.39,16.39,0,0,0,.5-2.41c.36,0,.22,4.49.92,2.71,1-2.47.63,4.31,1.06,1.33,0-.35.54-1.62.58-1.91.49-4,.18-8.22.51-12.37s.47-8.15.53-12.21c.06-3.86.4-7.76.73-11.72l.56-6.93Zm-8.26,22c-.2-.23-2,.36-2.65.41s-2.53.55-2.84.19C55.6,70.88,60.13,69.15,60.75,69.88Zm8.55-16.2h0c0-.11,0-.21,0-.32v0l-.26.25,0,.38h0c-2.07,2-4.09,4-6.19,6.35-2.84,3.1-5.43,6.33-8.41,9.3a1.34,1.34,0,0,0-.11.14h0l.09-.13h0c4.21-5.89,9.37-11,14.63-16h0l.26-.25h0l.24-.23,0,.37Z"/><path class="cls-3" d="M69.14,86.5c.08,0,.07-.12,0-.19C69.14,86.43,69.13,86.5,69.14,86.5Z"/></g></g></g></svg>
