<svg xmlns="http://www.w3.org/2000/svg" viewBox="0 0 128 128" width="256" height="256">
    <defs>
        <style>.cls-1{fill:#dc763d;}.cls-2{fill-rule:evenodd;}</style>
    </defs>
    <g id="Слой_2" data-name="Слой 2">
        <g id="Слой_1-2" data-name="Слой 1">
            <g id="symbol_sim" data-name="symbol sim">
                <polygon class="cls-1"
                         points="64 128 24.45 121.78 6.31 86.07 0 46.52 28.35 18.23 64 0 99.65 18.23 128 46.52 121.69 86.07 103.55 121.78 64 128"/>
                <path class="cls-2"
                      d="M103.63,58.33a2.09,2.09,0,0,0,.24.56,1.83,1.83,0,0,0,.15.24c.31-.12,0-1.93,0-1.93A.83.83,0,0,0,103.63,58.33Z"/>
                <path class="cls-2" d="M25.78,38.41a.12.12,0,0,0,0,0S25.77,38.39,25.78,38.41Z"/>
                <path class="cls-2" d="M106,44.93c-.17,0-.21.19-.18.37C105.92,45.07,106,44.93,106,44.93Z"/>
                <path class="cls-2"
                      d="M106.12,46.15a2.59,2.59,0,0,1-.33-.85c-.66,1.13-2.84,4.51-2.65,4.62-.63-.34,2.8-9.35.23-6.16-3.57,4.44,1.92-9.25-1-3.41-.35.7-2.16,3-2.43,3.55-3.8,8-6.22,16.76-9.79,25.06C87.5,75.08,85,81.33,82.67,87.61h0C78.44,79.85,74.42,71.85,70,63.92l-4.5-8.09-6.21,7.72c-2.91,3.62-5.77,7.33-8.5,11.19-1.49,2.11-2.77,4-4,5.82h-.12c-3.61-9.6-7-18.46-10.73-29-2.45-6.84-5.94-15-8-15.28-2.2-.34.34,1-.59,2.23-.52.67-1.46.11-1.59-.12l0,.06.05.3c0,.26.1.6.14.94.08.69.11,1.38-.08,1.4-.64,0-.71-3.43-2.18-2.75-2.62,1.21,3.72,13,4.82,16.16,0,0,0,.07.1.32a2.85,2.85,0,0,0-.1-.32c0,.12,1.11,5.11-.34,1.69-2.2-5.22-.92-.15-.15,2.06,4.33,12.32,9.21,24.53,14.05,37l2.14,5.54,3.18-4.75c4-6,8.11-12,12.38-18,1.33-1.88,2.79-3.81,4.32-5.79h0c4.9,9,10,18.87,15.24,28l5,8.63L88,99.3l.35-.92c.87-2.27,2.06-4.89,3-7.27,1.17-3.09,2.82-9,2.07-7.55-.38.75-.74,1.52-1.1,2.29-.85,2-1.71,4-2.55,6-.92,2.32-1.79,4.7-2.66,7.1l-2.74,7.64-4.19-6.87c-2.55-4.19-5.18-8.39-7.55-12.66C69.72,81.83,67.05,76.92,64.3,72h0l.34-.44-.1-.18-.34.44h0c-.1-.19-.21-.38-.32-.56l-.16.2.32.58h0C61.79,75,59.54,78,57.24,81.24,53.79,86.09,50.57,91,47.17,95.88l-3,4.24-1.8-4.94c-1-2.83-2-5.68-2.9-8.59-.73-1.79-1.37-3.16-2.18-5.15-3.63-9,2.65,3.42,2.18,5.15.55,1.13,1.07,2.27,1.6,3.41l.46,1c.58,1.28,1.14,2.58,1.69,3.88l1.39,3.32,1.8-2.85c.54-.86,1.09-1.72,1.65-2.57l2.62-3.92c4.1-6,8.49-11.72,13-17.39h0l.16-.2h0l.36-.44h0l.31.56h0l.1.18h0c4.92,8.94,9.71,17.94,14.85,26.62l.86,1.45,3.82,6.52L87,98.92c.91-2.38,1.86-4.72,2.83-7,.8-2.06,1.65-4.08,2.55-6l2.4-5.53c-.08.35-.13.74-.16.86-1,4.38,1.08-1.63.41-1.44l1.09-2.52c-.08.35-.14.74-.16.86-1,4.38,1.08-1.64.4-1.44L97.43,74c-.1.37-.16.83-.19,1-1,4.42,1.12-1.73.4-1.43l0,0c.35-.84.7-1.67,1-2.5a1.16,1.16,0,0,0,0,.18c-.15.71-.23,1.38-.23,1.35-.35,3,1.44-3,.81-2.87.31-.77.61-1.53.9-2.29.06,1.06.32,2.1.08,2.2.68-.28.33-2.11.36-3.35q1-2.58,1.82-5.11c-.27,1.1-.49,2.27-.51,2.35-.73,4.08,2.14-4.7,1.18-4.31l-.07.07c.31-1,.6-2,.86-2.95.57-2.09,2.58-8.3,2.76-10.06C106.71,44.94,106,46.05,106.12,46.15ZM28.79,58.78c-.31.55,2.07,3.72,2.61,5s2.8,4.65,2.32,5.49C34.25,68.31,27.81,60.51,28.79,58.78Zm7.82,18.54c.15-.26-4.11-5.92-3.48-7C32.87,70.74,37.39,76,36.61,77.32Z"/>
                <path class="cls-2" d="M21.69,42c-.39.69,2,2.4,1.74,2.92.33-.58-.11-1.31-.62-1.89A8,8,0,0,0,21.69,42Z"/>
            </g>
        </g>
    </g>
</svg>
