<svg xmlns="http://www.w3.org/2000/svg" viewBox="0 0 128 128" width="256" height="256">
    <defs>
        <style>.cls-1{fill:#3da1ea;}.cls-2{fill-rule:evenodd;}</style>
    </defs>
    <g id="Слой_2" data-name="Слой 2">
        <g id="Слой_1-2" data-name="Слой 1">
            <g id="symbol_yodh" data-name="symbol yodh">
                <polygon class="cls-1"
                         points="64 128 24.45 121.78 6.31 86.07 0 46.52 28.35 18.23 64 0 99.65 18.23 128 46.52 121.69 86.07 103.55 121.78 64 128"/>
                <path class="cls-2"
                      d="M36.89,34.17a2.49,2.49,0,0,0,0-.53.87.87,0,0,0,0-.26c-.25-.16-.76,1.14-.76,1.14C36.61,34.8,36.81,34.52,36.89,34.17Z"/>
                <path class="cls-2" d="M30.23,40.47c.12.11.21.05.26-.08C30.31,40.43,30.21,40.45,30.23,40.47Z"/>
                <path class="cls-2" d="M58.36,22.7l-4.59,3.44c-.61.46-.89.75-.46.62l.68-.22.65-.21,4.56-1.85Z"/>
                <path class="cls-2" d="M79.78,94.64,83,91.23C82,91.51,80.81,93.22,79.78,94.64Z"/>
                <polygon class="cls-2" points="60.85 27.96 60.44 24.46 60.08 24.58 60.61 27.45 60.85 27.96"/>
                <polygon class="cls-2" points="60.08 24.58 60 24.16 59.2 24.48 59.36 24.81 60.08 24.58"/>
                <path class="cls-2"
                      d="M99.18,89.2c-.57-2.11-.61.38-1.8-.43-.74-.5-.6-1.58-.47-1.53l-.27.1-.61.18c-.46.12-.94.19-1,0-.27-.61,2.17-.88,1.14-2.23-1.83-2.44-7.85,4.27-9.71,5.5,0,0,0,0-.18.11l.18-.11c-.09,0-3.22,1.34-1.32-.23,2.89-2.39-.24-.89-1.52,0l-.65.69a.74.74,0,0,1,.55,0C83,91,81.62,93.45,80.93,94S78.66,97,77.88,96.55c.35.19,1.06-.76,1.9-1.91-3.46-9.47-5.38-15.07-8.63-25-2.86-8.71-4.31-20.61-7-31.17-.4-1.56-.69-3.45-1.12-5.08a29.41,29.41,0,0,0-1.55-4.19L60.85,28,61,29.37c0,.31.08.63.12.94.27,1.42.55,2.85.85,4.29,1.13,4.7,2.84,9.43,3.91,14.23,1.85,8.29,3.2,15.38,5.86,23.5,1.86,5.65,4.22,11,5.66,16.81.49,1.18.94,2.08,1.48,3.4,2.41,5.93-2.21-2.15-1.48-3.4-8.12-15.09-9.65-32.44-14-48.57-.54-2-1-4-1.41-6-.35-1.43-.64-2.86-.85-4.29-.06-.31-.12-.62-.17-.92l-.36-1.94-1.25-2.64-4.72,1.52-.62.25L51.2,27.72c.19-.15.38-.35.44-.4,2.34-1.87-1.35.16-.82.56l-1.69.68c.18-.15.37-.34.44-.39,2.34-1.88-1.36.16-.82.55L47,29.46c.2-.16.42-.39.49-.45,2.36-1.89-1.4.19-.81.57h0l-1.65.73.11-.09a7.58,7.58,0,0,0,.66-.65c1.38-1.53-2.11.72-1.63,1.12l-1.47.7c.36-.69.58-1.52.78-1.4-.56-.35-1,1-1.51,1.75-1.12.56-2.19,1.14-3.23,1.75.62-.48,1.26-1.06,1.3-1.09,2-1.91-3.22,1.2-2.43,1.7h.08c-.58.36-1.16.73-1.7,1.12-1.18.83-4.89,3-5.68,4-.6.7.28.56.26.43a2.71,2.71,0,0,1-.1.77c.87-.17,3.62-.54,3.53-.76.29.7-5.43,3.5-2.49,3.55,4.08.07-4.8,4.12-.62,2.85.5-.16,2.58-.14,3-.28,5.57-1.9,10.53-5.34,16.08-7.62,1.22-.5,2.43-1,3.64-1.55h0c.33,1.2.66,2.4,1,3.6,1.87,6.51,2.93,13.35,4.28,20.23C57.06,62,55.41,64,53.35,65.31c-1.82,1.18-5.29.66-7.8,1.44-.36.12-.89.09-1.27.21s-1.13,1-.8,1.08a3.12,3.12,0,0,0,.51.07c.36,0,.72,0,1.08-.09,1.15-.28,2.08-1,3.29-1.27,2.08-.36,4-.47,5.64-1.57,1.18-.76,2.07-2,3.45-2.4.21-.24.33-.5.56-.77,1.05-1.2.16,1.59-.56.77-1.86,4.79-7.16,3.53-10.9,4.91a6.5,6.5,0,0,1-1.48.33,3.49,3.49,0,0,1-1.08.09l-1.06,0c0-.07,0-.17,0-.19.35-.79-.51-.3-.16.19l-.48,0a1.86,1.86,0,0,0,0-.19c.36-.79-.51-.3-.15.2l-.49,0a1.89,1.89,0,0,0,.06-.21c.36-.8-.52-.3-.15.2,0,0,0,0,0,0a3.47,3.47,0,0,0-.45.06A1.65,1.65,0,0,0,41.3,68c.07-.83-.65-.09-.31.4a2.34,2.34,0,0,0-.38.09c-.08-.45-.26-1.06-.14-.9-.35-.47-.09.52,0,1a3,3,0,0,0-.77.4,2.94,2.94,0,0,0,.18-.48c.23-.91-.94-.05-.45.61,0,0,0,0,0,0a2.5,2.5,0,0,0-.35.38c-.22.3-1,.93-1,1.44s.3.55.24.43a4.79,4.79,0,0,1,.21.6c.31.14,1.33.71,1.22.51.35.66-1.11,1.13.13,2.11,1.72,1.36-.64,1.85.68,2.14.15,0,1,.71,1.14.73,1.69.22,2.62-1,4.18-1.11a11.58,11.58,0,0,0,4.14-1c2.45-1.08,6.14,0,8.49-1.62,1-.7,2-1.48,3-2.28.28,1,.57,1.92.88,2.88,3.05,9.2,6.38,18.17,9.63,27.32l2.78,7.85,6.37-4.58c3.31-2.39,6.7-4.79,10.14-7.16C95.23,94.94,99.71,91.16,99.18,89.2ZM58.92,62.31c.08.11,0-.65.12-1.18.08.43.17.86.26,1.29C59.24,62.57,59.12,62.59,58.92,62.31ZM76,97.1l-.31-.46c.46-.47.89-.75,1.2-.59C76.79,96,76.46,96.46,76,97.1Z"/>
                <path class="cls-2" d="M92.83,83.55c-.63-.33-1,2.08-1.43,1.83C92.48,85.94,92.83,83.55,92.83,83.55Z"/>
                <path class="cls-2" d="M38.86,68.23c-.16-.21,0,.69,0,.69C39.47,69.67,38.87,68.25,38.86,68.23Z"/>
                <path class="cls-2" d="M38.4,71.9c.09.14.1.11.08,0S38.39,71.88,38.4,71.9Z"/>
            </g>
        </g>
    </g>
</svg>
