<svg xmlns="http://www.w3.org/2000/svg" viewBox="0 0 128 128" width="256" height="256">
    <defs>
        <style>.cls-1{fill:#7ea232;}.cls-2{fill-rule:evenodd;}</style>
    </defs>
    <g id="Слой_2" data-name="Слой 2">
        <g id="Слой_1-2" data-name="Слой 1">
            <g id="symbol_pe" data-name="symbol pe">
                <polygon class="cls-1"
                         points="64 128 24.45 121.78 6.31 86.07 0 46.52 28.35 18.23 64 0 99.65 18.23 128 46.52 121.69 86.07 103.55 121.78 64 128"/>
                <path class="cls-2"
                      d="M56.81,40.9a2.5,2.5,0,0,0,0-.53,1.67,1.67,0,0,0,0-.27c-.26-.17-.74,1.15-.74,1.15C56.55,41.55,56.74,41.26,56.81,40.9Z"/>
                <path class="cls-2" d="M50.3,47.26c.13.12.21.05.26-.08C50.39,47.22,50.28,47.24,50.3,47.26Z"/>
                <path class="cls-2"
                      d="M79.44,29.57c-.74.31-1.51.64-2.21,1-1.94,1-5.25,3.3-4.18,3,.54-.16,1.07-.34,1.6-.53,1.29-.53,2.58-1.06,3.87-1.62.51-.24,1-.48,1.52-.74l6.49-3.24v.41l.09,0-.13,3.87,0,2.58v.93l0,.87c0,.58,0,1.15-.06,1.72,0,1.14-.11,2.27-.19,3.41s-.18,2.27-.34,3.39l-.25,1.68c-.1.55-.21,1.11-.32,1.66a111.38,111.38,0,0,1-3.34,12c-1.32,3.8-2.77,7.54-4.43,11.59-.64,1.38-1.2,2.8-1.85,4.18l-1,2c-.35.68-.67,1.39-1.06,2l-1.15,2c-.39.65-.77,1.3-1.22,1.91s-.87,1.24-1.32,1.84l-.69.91-.74.86c-.72,1.09-1.18,2-2,3.2-1.9,2.67-1.74,1.89-.92.45s2.2-3.6,2.95-3.65c.51-1,1-2,1.47-2.91s1-1.89,1.49-2.86,1-1.9,1.5-2.84,1-1.92,1.46-2.87C76.28,71.85,78.15,68,79.72,64c3.18-8,5.7-16.35,6.36-25,.06-.78.12-1.56.17-2.34s.12-1.54.15-2.45l.08-2.59,0-3.83-6.45,2.89-1.55.68C77.24,32,76,32.54,74.65,33L71,34.5c.18-.15.36-.35.42-.4,2.3-1.89-1.33.13-.8.55l-1.67.69c.18-.16.36-.36.42-.41,2.3-1.88-1.34.15-.8.56l-1.73.73c.2-.16.41-.39.48-.45,2.31-1.9-1.4.17-.8.57h0l-1.63.71L65,37a7.21,7.21,0,0,0,.64-.65C67,34.77,63.54,37,64,37.44l-1.46.69c.35-.7.55-1.54.75-1.41-.57-.37-1,1-1.47,1.77-1.07.54-2.12,1.1-3.12,1.69.59-.47,1.17-1,1.21-1,2-1.92-3.19,1.19-2.39,1.71a.08.08,0,0,0,.07,0c-.57.37-1.13.74-1.67,1.12-1.15.84-4.8,3.05-5.57,4-.59.71.29.58.26.44a2.3,2.3,0,0,1-.08.79c.86-.16,3.61-.5,3.51-.72.31.71-5.34,3.5-2.4,3.59,4.08.13-4.7,4.16-.56,2.91.5-.15,2.59-.11,3-.24,5.53-1.88,10.4-5.33,15.89-7.58,2.35-1,4.67-2,7-3.07h0c-.11.6-.22,1.21-.35,1.81-.25,1.32-.61,2.63-.94,3.94s-.74,2.6-1.18,3.88c-1.69,5.14-3.74,10.06-5.68,15-.24.73-.59,1.4-.88,2.09s-.6,1.4-.92,2.08l-1,2-.51,1c-.18.34-.39.67-.58,1l-1.17,2c-.38.68-.84,1.32-1.25,2s-.83,1.33-1.29,2l-1.37,1.93c-.44.66-.93,1.28-1.42,1.91s-1,1.26-1.46,1.88c-1,1.22-2,2.48-3.14,3.65A81.61,81.61,0,0,1,46.87,97,57.63,57.63,0,0,0,42,101.75c-1.35,1.54-2.21,2.91-1.89,3.9s.46,1,.67.74.48-.66,1.09-.24.66,1.61.53,1.57a1.4,1.4,0,0,1,.26-.1c.16-.06.38-.13.61-.19.46-.12.93-.2,1,0,.3.63-2.15.91-1.1,2.31s3.16,0,5.12-1.76,3.51-3.76,4.34-4.48c0,0,0,0,.17-.13l-.17.13c.1,0,3.08-1.75,1.37.08-2.64,2.79.36.89,1.56-.18A81.07,81.07,0,0,0,62.79,96c1.1-1.34,2.22-2.65,3.25-4.06.52-.7,1-1.38,1.55-2.09l1.48-2.15.73-1.08.69-1.12,1.39-2.22c.45-.75.86-1.52,1.3-2.28s.89-1.5,1.27-2.31.79-1.6,1.18-2.39c.2-.4.42-.79.59-1.2l.52-1.22c.36-.81.71-1.63,1.07-2.44l.94-2.49c1.67-4.39,3.69-9.38,5.35-14.79a75.24,75.24,0,0,0,3.38-16.91c0-.46.07-.93.11-1.42l.06-.77c0-.27,0-.52,0-.86L88,26Zm-21.16,70c-.81,1.71-1.83,3.35-2.7,3,.56.19,1.57-2.5,2.14-3.22.26-.33.7-1.16,1.15-1.89s1-1.35,1.38-1.23C59.76,96.15,59.13,97.91,58.28,99.59Zm4.78-5.2A10.57,10.57,0,0,1,62.22,96c-.31.41-.62.66-.91.58.25.07.62-1.16,1.06-2.37s1-2.36,1.71-2.21A14.75,14.75,0,0,0,63.06,94.39Z"/>
                <path class="cls-2"
                      d="M47,110.27a5.91,5.91,0,0,0-.29,1.18c.68.31.92-2.2,1.42-2C47.53,109.22,47.2,109.72,47,110.27Z"/>
            </g>
        </g>
    </g>
</svg>
