<svg xmlns="http://www.w3.org/2000/svg" viewBox="0 0 128 128" width="256" height="256">
    <defs>
        <style>.cls-1{fill:#6e49ff;}.cls-2{fill-rule:evenodd;}</style>
    </defs>
    <g id="Слой_2" data-name="Слой 2">
        <g id="Слой_1-2" data-name="Слой 1">
            <g id="symbol_zayin" data-name="symbol zayin">
                <polygon class="cls-1"
                         points="64 128 24.45 121.78 6.31 86.07 0 46.52 28.35 18.23 64 0 99.65 18.23 128 46.52 121.69 86.07 103.55 121.78 64 128"/>
                <path class="cls-2" d="M44.11,91.27c-.06-.3-.45.73-.45.73C43.9,93.05,44.12,91.29,44.11,91.27Z"/>
                <path class="cls-2" d="M40.58,94.79c0,.18.07.16.11.06S40.58,94.77,40.58,94.79Z"/>
                <path class="cls-2"
                      d="M88.83,99.66a3.09,3.09,0,0,1,.11-1.76s-.73-.44-.72-.89c0-.75.92.5.81-1.43-.2-3.47-3.56-.71-4.42-.72,0,0,0,0-.07,0h.07c-.08-.09-1.34-.7-.41-1,1.45-.51.08-1-.53-1-4.75.28-9.5,1.9-14.39,2.53a26.78,26.78,0,0,1-.88-2.8s0,0,0-.1a.34.34,0,0,0,0,.1c.09-.1.69-1.71,1-.52.52,1.87,1,.12,1-.66C70,84.72,68,78,67.52,71.07c-.33-4.61,1.91-10.62,2.33-16.12.06-.82.34-1.78.4-2.63.07-1.1-.48-3.14-.72-2.57a7,7,0,0,0-.32.87c-.16.7-.31,1.41-.44,2.13-.27,2.45.07,5-.3,7.48-.63,4.29-1.44,7.93-1.13,12.22.21,3,1,5.9.78,8.9.15.64.35,1.13.52,1.84.73,3.19-1.72-1.3-.52-1.84-4-8.33-.13-17,.28-25.47a25.44,25.44,0,0,1,.37-3.13,12,12,0,0,1,.44-2.13c.16-.69.32-1.37.47-2,.06.11.15.24.17.28.64,1.47.56-.65-.12-.49l.21-.92a3.25,3.25,0,0,0,.17.28c.63,1.47.55-.65-.13-.49.07-.32.13-.64.2-1a1.63,1.63,0,0,0,.18.32c.64,1.48.56-.68-.14-.49h0l.15-.91a3.13,3.13,0,0,0,.32.51c.81,1,.41-1.12-.25-1l.09-.83c.5.31,1.21.59,1,.65.66-.18-.48-.68-1-1.06a13.63,13.63,0,0,0,0-1.81,6.91,6.91,0,0,0,.39.79c.57.92.59-.26.25-1,.56.11,1.12.2,1.67.26s1.39.36,2.06.42c.86.09,2.44-.45,2-.7a6,6,0,0,0-.68-.32c-.55-.17-1.11-.32-1.67-.45a22,22,0,0,0-3.15-.15,5.83,5.83,0,0,0-.54-.3c-.35.09-.39.19-.28.28h-.23c0-.15-.07-.29-.11-.44.62.09,1.24.17,1.86.21a14.75,14.75,0,0,1,2.45.41,6.79,6.79,0,0,1,1.67.45l1.6.49c-.09,0-.19.15-.22.16-1.14.63.51.57.38-.12l.72.22a1.93,1.93,0,0,0-.22.17c-1.14.62.52.56.38-.13l.75.21a1.47,1.47,0,0,0-.24.18c-1.15.63.54.56.38-.14h0l.71.16a2.26,2.26,0,0,0-.39.32c-.73.8.88.41.77-.25l.64.1c-.24.5-.45,1.21-.5,1,.15.66.53-.47.82-.94a8.42,8.42,0,0,0,1.42,0,4.14,4.14,0,0,0-.62.38c-1,.81,1.36.52,1.15-.41l0,0a6,6,0,0,0,.81-.21c.55-.2,2.24-.44,2.67-.94s0-.71,0-.56a5.3,5.3,0,0,1,.16-.73c-.34-.29-1.4-1.39-1.4-1.13,0-.85,2.51-.6,1.45-2.22-1.47-2.26,2.38-1.57.66-2.52-.2-.12-1-1.25-1.12-1.33-2.32-1.07-4.66-.28-7-1a26.88,26.88,0,0,0-6.93-1c-4.47-.12-9.11-3-13.8-2.61-5.42.48-10.71,1.74-16.2,2.23-1.88.17-4.15,1-4.32,3.23-.18,2.38.29,0,.56,1.53A3.09,3.09,0,0,1,39.06,37s.73.44.72.9c0,.74-.92-.5-.81,1.42.2,3.48,3.56.72,4.42.72,0,0,0,0,.07,0h-.07c.08.1,1.34.7.41,1-1.45.51-.08,1,.53,1,5.24-.32,10.46-2.26,15.89-2.7h.05c-.21,2.17.09,4.35-.39,6.55a42.52,42.52,0,0,0-.94,8.87c-.08,5.7-2.95,11.62-2.48,17.62.54,6.94,1.85,13.72,2.39,20.75q0,.39.09.78a26,26,0,0,0-3.78-.74c-.64-.07-1.39-.37-2.06-.43-.86-.08-2.44.46-2,.7a6.08,6.08,0,0,0,.68.33c.55.16,1.11.32,1.67.45,1.84.28,3.73,0,5.59.32l.12.55a26.39,26.39,0,0,0-3.26-.47,14.72,14.72,0,0,1-2.45-.4,7.81,7.81,0,0,1-1.67-.45l-1.6-.49a1.93,1.93,0,0,0,.22-.17c1.14-.62-.51-.56-.38.12L49.3,93a1.93,1.93,0,0,0,.22-.17c1.14-.62-.52-.56-.38.12l-.75-.2a2.43,2.43,0,0,0,.24-.18c1.15-.63-.54-.57-.38.13,0,0,0,0,0,0-.24-.06-.48-.12-.71-.16a2.26,2.26,0,0,0,.39-.32c.73-.8-.88-.42-.77.25-.21,0-.43-.08-.64-.1.24-.5.45-1.21.5-1-.15-.66-.53.47-.82,1a6.74,6.74,0,0,0-1.42,0,5.28,5.28,0,0,0,.62-.38c1-.82-1.36-.52-1.15.4a.11.11,0,0,0,0,0,6.09,6.09,0,0,0-.81.22c-.55.2-2.24.43-2.67.94s0,.71,0,.56a5.24,5.24,0,0,1-.16.72c.34.29,1.4,1.4,1.4,1.13,0,.86-2.51.61-1.45,2.23,1.47,2.25-2.38,1.56-.66,2.52.2.12,1,1.25,1.12,1.32,2.32,1.08,4.66.29,7,1a27.78,27.78,0,0,0,6.93,1c4.47.12,9.11,3,13.8,2.61,5.42-.49,10.71-1.74,16.2-2.24,1.88-.17,4.15-1,4.32-3.23C89.56,98.81,89.09,101.17,88.83,99.66ZM69.74,91.21c.56-.16-.94-1.36-1.08-1.81s-1.41-1.72-.55-2C67.15,87.71,71.52,90.71,69.74,91.21Zm-1.85-6.62c-.27.08,2.43,2.23,1.28,2.55C69.65,87,66.48,85,67.89,84.59ZM44.49,41.37c.13.56,1.06-.93,1.41-1.07s1.33-1.4,1.53-.53C47.21,38.8,44.9,43.15,44.49,41.37Zm3.18-.54c.11.47,1.66-2.68,2-1.27C49.59,39.29,47.93,42,47.67,40.83ZM59.14,39.1c-2.33.19-4.61,1-7,.72-.5.14-.88.34-1.44.5-2.48.71,1-1.7,1.44-.5a12.75,12.75,0,0,1,8.24-1.65c-.06.3-.1.59-.14.88C59.91,39.06,59.53,39.07,59.14,39.1Zm16.67,56a11.76,11.76,0,0,1-4.7,1.63c-.39-.24-.83-.47-.55-.55-.56.16-.41.4-.09.61-.34,0-.68,0-1,0a3.63,3.63,0,0,0-.09-1.07c2.16-.25,4.27-.94,6.45-.66.5-.15.88-.35,1.44-.51C79.73,93.85,76.24,96.26,75.81,95.06Zm2.54.25c.06.27,1.72-2.41,2-1.26C80.22,93.57,78.67,96.73,78.35,95.31Zm3.75-.74c-.32.12-1.33,1.41-1.53.54.22,1,2.53-3.38,2.94-1.6C83.38,93,82.45,94.44,82.1,94.57Z"/>
                <path class="cls-2" d="M87.35,92.73c.28,1.21.84-.87.84-.86C88,91.16,87.47,93.27,87.35,92.73Z"/>
                <path class="cls-2" d="M83.89,43.61c.06.29.45-.73.45-.73C84.1,41.82,83.88,43.58,83.89,43.61Z"/>
                <path class="cls-2" d="M87.42,40.08c0-.18-.07-.16-.11-.06S87.42,40.11,87.42,40.08Z"/>
                <path class="cls-2" d="M40.65,42.14c-.28-1.2-.84.87-.84.87C40,43.72,40.53,41.61,40.65,42.14Z"/>
            </g>
        </g>
    </g>
</svg>
