<svg xmlns="http://www.w3.org/2000/svg" viewBox="0 0 128 128" width="256" height="256">
    <defs>
        <style>.cls-1{fill:#38a9c7;}</style>
    </defs>
    <g id="Слой_2" data-name="Слой 2">
        <g id="Слой_1-2" data-name="Слой 1">
            <g id="symbol_kaph" data-name="symbol kaph">
                <polygon class="cls-1"
                         points="64 128 24.45 121.78 6.31 86.07 0 46.52 28.35 18.23 64 0 99.65 18.23 128 46.52 121.69 86.07 103.55 121.78 64 128"/>
                <path d="M100.09,42.44c.26,0-.26-.95-.27-.95C98.89,41.48,100.06,42.44,100.09,42.44Z"/>
                <path d="M100.43,36.65c-.08-.64-.54-.24-.44-.17a2,2,0,0,1-.44-.49c-.43.42-1.92,1.62-1.72,1.72-.64-.31,1.12-4-.76-3-2.6,1.43.33-4.15-1.46-1.9-.22.27-1.54,1-1.69,1.23C91.66,37.18,90.8,41,88.8,44.32a86.07,86.07,0,0,0-5.08,10.11A78.09,78.09,0,0,1,78.48,64c-3.31-2.75-6.7-5.58-10.13-8.08-1.14-.83-2.39-2-3.6-2.83-1.55-1.13-4.78-2.75-4.08-2,.35.36.72.71,1.1,1.06.94.79,1.89,1.59,2.86,2.37,3.42,2.58,7.26,4.83,10.68,7.51l3,2.35c-.08.13-.16.26-.23.39l-.25-.2C74.9,62.16,72,59.87,69,57.74c-1.49-1.05-2.93-2.17-4.35-3.31-1-.75-2-1.54-2.86-2.37S60,50.51,59.05,49.75c.2.08.43.14.5.17,2.44,1-.66-1-.78-.4l-1.23-1c.2.08.43.14.5.17,2.44,1-.67-1-.77-.4L56,47.19c.2.09.48.16.55.19,2.46,1-.71-1-.78-.39v0l-1.23-1,.1,0a7.88,7.88,0,0,0,.79.24c1.77.39-1.42-1.36-1.55-.79l-1.15-.87c.7,0,1.45-.22,1.43,0,.06-.61-1.23-.35-2-.41-.87-.62-1.74-1.21-2.62-1.75.61.26,1.28.49,1.32.51,2.35.76-2.25-2-2.33-1.17a.09.09,0,0,0,0,.07c-.52-.3-1-.59-1.57-.85-1.14-.56-4.4-2.51-5.45-2.72-.81-.16-.34.48-.25.4a2.18,2.18,0,0,1-.65.28c.48.61,1.88,2.64,2,2.47-.44.56-5-2.74-3.85-.36,1.58,3.29-5.22-2-2.53.8.32.33,1.14,2,1.41,2.26,3.76,3.59,8.51,6,12.55,9.38s8.12,6.39,12.35,9.29c2.53,1.73,5,3.66,7.37,5.66h0c-1.19.48-2.37,1-3.54,1.54-11,5.19-21.53,10.86-32.66,16.1-3.82,1.8-8.25,4.48-8,6.36.25,2,.59-.24,1.54.71.59.59.34,1.55.23,1.48l.24,0c.15,0,.36-.05.57-.07.42,0,.85,0,.9.18.16.6-2,.42-1.29,1.83,1.32,2.54,7.45-2.54,9.24-3.34,0,0,0,0,.18-.07l-.18.07c.08,0,3-.67,1.14.44-2.84,1.68.1.85,1.34.28,10.67-4.88,20.88-11,31.9-16.18l.53-.24c-2.51,7.31-4.65,14.67-7.32,22-1,2.9-1.82,6.63-.29,7.67s.19-.43,1.49-.29c.8.08,1.35.78,1.24.8s.78-1,1.11-.77c.55.29-.94,1.21.56,1.73,2.71.93,2.76-5.07,3.29-6.41,0,0,0,0,0-.12a.33.33,0,0,0,0,.12c.07,0,1.38-1.83,1-.27-.53,2.37.7.48,1-.45,3-8,4.84-16.61,7.9-25,2-5.54,6.68-11.86,9.71-18.19.45-.94,1.14-2,1.6-3,.6-1.27,1.19-3.86.73-3.28-.23.3-.45.61-.67.92-.46.78-.93,1.56-1.38,2.36-1.42,2.8-2.41,5.9-3.92,8.7-2.59,4.84-5,8.85-6.89,14C80,81.8,79.15,85.52,77.47,89c-.2.8-.29,1.46-.52,2.35-1,4-.65-2.13.52-2.35,1.09-11.19,8.31-20.11,12.78-29.9.56-1.22,1.18-2.4,1.83-3.56a22.06,22.06,0,0,1,1.38-2.36l1.37-2.24c0,.15,0,.34,0,.39-.24,2,.74-.57.15-.62l.61-1c0,.15,0,.34,0,.39-.24,1.94.74-.58.15-.62l.62-1.06a4.07,4.07,0,0,0,0,.44c-.25,2,.76-.62.14-.63h0l.57-1a4.14,4.14,0,0,0,0,.71c.14,1.39.86-1.19.29-1.25.17-.31.32-.62.48-.93.22.53.62,1.1.41,1.1.59,0,0-1-.19-1.58.33-.71.63-1.42.88-2.13-.07.49-.1,1-.1,1,0,1.86,1.24-1.86.42-1.87h-.06c.13-.42.25-.84.34-1.26C99.65,40.11,100.53,37.47,100.43,36.65ZM39.77,93.33c.41.33,1.93-1.67,2.61-2.08s2.36-2.28,3-1.77C44.67,88.91,41.08,94.37,39.77,93.33Zm6.38-3.24c.35.28,2.7-3.57,3.74-2.74C49.69,87.19,47,90.76,46.15,90.09Zm23.09-11.5c-4.74,2.21-9.19,4.87-14.08,6.72-1,.55-1.72,1-2.81,1.66-4.92,2.76,1.61-2.23,2.81-1.66a73.81,73.81,0,0,1,17.27-8.9c-.11.3-.22.6-.32.9C71.16,77.71,70.21,78.13,69.24,78.59Zm4.58,22.54c.5,0,0-1.93.08-2.5s-.21-2.51.56-2.5C73.6,96.12,75.4,101.15,73.82,101.13Zm1.58-5c.42,0-1-3.46.29-3.44C75.45,92.7,76.42,96.15,75.4,96.14Z"/>
                <path d="M99.55,36c.08-.08.13-.14.11-.14S99.5,35.9,99.55,36Z"/>
                <path d="M72,107.22c-1.07,0,.13,1.56.12,1.56C72.75,108.79,71.52,107.21,72,107.22Z"/>
                <path d="M48.8,40.92c0-.27-1.22-.09-1.22-.09C47.48,41.81,48.8,41,48.8,40.92Z"/>
                <path d="M40.43,38.81c0,.16,0,.19.17.18C40.5,38.86,40.43,38.79,40.43,38.81Z"/>
                <path d="M30.6,98.76c.52.42,1.09-1.73,1.48-1.42C31.2,96.64,30.6,98.76,30.6,98.76Z"/>
            </g>
        </g>
    </g>
</svg>
