<svg xmlns="http://www.w3.org/2000/svg" viewBox="0 0 128 128" width="256" height="256"><defs><style>.cls-1{fill:#131414;}.cls-2{fill:#38a9c7;}</style></defs><g id="Слой_2" data-name="Слой 2"><g id="Слой_1-2" data-name="Слой 1"><g id="decryptor_kaph" data-name="decryptor kaph"><polygon class="cls-1" points="64 127.02 25.09 120.9 7.25 85.77 1.04 46.85 28.92 19.02 64 1.09 99.08 19.02 126.96 46.85 120.75 85.77 102.91 120.9 64 127.02"/><path class="cls-2" d="M64,128l-39.55-6.22L6.31,86.07,0,46.52,28.35,18.23l.13-.07L64,0,99.65,18.23,128,46.52l-6.31,39.55-.07.14-18.07,35.57Zm-38.27-8L64,126l38.27-6,17.55-34.56,6.11-38.27L98.5,19.82,64,2.18,29.5,19.82,2.07,47.19,8.18,85.46Z"/><path class="cls-2" d="M93.46,26.23,64,11.17,34.54,26.23,11.11,49.61l5.22,32.68,15,29.51L64,116.94l32.69-5.14,15-29.51,5.22-32.68Zm10.72,53.19L91.55,104.29,64,108.63l-27.55-4.34L23.82,79.42,19.43,51.88l19.74-19.7L64,19.48l24.83,12.7,19.74,19.7Z"/><polygon class="cls-1" points="64 98.53 42.69 95.18 32.93 75.94 29.53 54.64 44.8 39.4 64 29.58 83.2 39.4 98.47 54.64 95.07 75.94 85.31 95.18 64 98.53"/><path class="cls-2" d="M64,100.17,41.63,96.65,31.37,76.45,27.8,54.07l16-16L64,27.76,84.17,38.07l16,16L96.63,76.45,86.37,96.65ZM43.76,93.71,64,96.89l20.24-3.18,9.28-18.27L96.75,55.2,82.24,40.72,64,31.4,45.76,40.72,31.25,55.2l3.23,20.24Z"/><line class="cls-1" x1="64" y1="16.87" x2="64" y2="29.58"/><rect class="cls-2" x="62.71" y="16.87" width="2.59" height="12.71"/><line class="cls-1" x1="111.19" y1="51.16" x2="98.47" y2="54.64"/><rect class="cls-2" x="98.24" y="51.6" width="13.18" height="2.59" transform="translate(-10.23 29.47) rotate(-15.27)"/><line class="cls-1" x1="93.16" y1="106.66" x2="85.31" y2="95.18"/><rect class="cls-2" x="87.94" y="93.96" width="2.59" height="13.91" transform="translate(-41.41 68.05) rotate(-34.39)"/><line class="cls-1" x1="64" y1="111.24" x2="64" y2="98.53"/><rect class="cls-2" x="62.71" y="98.53" width="2.59" height="12.72"/><line class="cls-1" x1="34.84" y1="106.66" x2="42.69" y2="95.18"/><rect class="cls-2" x="31.81" y="99.62" width="13.91" height="2.59" transform="translate(-66.4 75.87) rotate(-55.59)"/><line class="cls-1" x1="16.81" y1="51.16" x2="29.53" y2="54.64"/><rect class="cls-2" x="21.87" y="46.31" width="2.59" height="13.18" transform="translate(-33.97 61.31) rotate(-74.72)"/><line class="cls-1" x1="21.46" y1="80.33" x2="32.93" y2="75.94"/><rect class="cls-2" x="21.06" y="76.84" width="12.27" height="2.59" transform="translate(-26.11 14.86) rotate(-20.92)"/><line class="cls-1" x1="106.54" y1="80.33" x2="95.07" y2="75.94"/><rect class="cls-2" x="99.51" y="72" width="2.59" height="12.27" transform="translate(-8.19 144.37) rotate(-69.06)"/><line class="cls-1" x1="37.71" y1="30.3" x2="44.8" y2="39.4"/><rect class="cls-2" x="39.96" y="29.09" width="2.59" height="11.53" transform="translate(-12.71 32.71) rotate(-37.92)"/><line class="cls-1" x1="90.29" y1="30.3" x2="83.21" y2="39.4"/><rect class="cls-2" x="80.98" y="33.56" width="11.53" height="2.59" transform="translate(5.93 81.84) rotate(-52.07)"/><path class="cls-2" d="M82.33,53c.14,0-.13-.48-.13-.48C81.72,52.46,82.32,53,82.33,53Z"/><path class="cls-2" d="M82.51,50c0-.32-.28-.11-.23-.08a1.5,1.5,0,0,1-.23-.25c-.22.21-1,.83-.88.88-.33-.16.58-2.06-.39-1.54-1.34.74.17-2.13-.75-1-.11.13-.79.52-.87.63-1.16,1.61-1.61,3.57-2.64,5.29a43.56,43.56,0,0,0-2.61,5.2,40.69,40.69,0,0,1-2.7,4.9c-1.7-1.42-3.45-2.87-5.21-4.16-.59-.43-1.23-1-1.85-1.46-.81-.58-2.46-1.41-2.11-1,.18.19.38.37.57.55.48.41,1,.81,1.47,1.22,1.76,1.33,3.74,2.49,5.5,3.86l1.53,1.21-.12.2-.13-.1c-1.49-1.19-3-2.37-4.54-3.47-.77-.54-1.51-1.12-2.24-1.7-.51-.39-1-.79-1.47-1.22l-1.4-1.19.26.09c1.25.52-.35-.52-.4-.21l-.64-.53.26.08c1.26.52-.34-.52-.4-.2l-.66-.55c.1.05.25.08.28.1,1.27.52-.36-.54-.4-.2h0l-.64-.51.06,0a1.88,1.88,0,0,0,.4.12c.91.21-.73-.7-.8-.4-.19-.16-.39-.3-.59-.45.36,0,.75-.12.74,0,0-.31-.63-.18-1-.21Q57,53.39,56.3,53a5.64,5.64,0,0,0,.69.26c1.2.4-1.16-1-1.21-.6,0,0,0,0,0,0-.27-.16-.54-.3-.81-.44a22.84,22.84,0,0,0-2.8-1.4c-.42-.08-.18.25-.13.21a1.32,1.32,0,0,1-.34.14c.25.31,1,1.36,1,1.27-.23.29-2.56-1.41-2-.19.81,1.7-2.69-1-1.31.42.17.17.59,1,.73,1.16,1.93,1.85,4.38,3.08,6.46,4.83A79.37,79.37,0,0,0,63,63.45c1.3.89,2.55,1.89,3.79,2.92h0c-.61.25-1.22.51-1.82.79-5.67,2.67-11.08,5.59-16.82,8.29-2,.93-4.24,2.3-4.12,3.27s.3-.12.79.37c.3.3.18.79.12.76l.12,0,.3,0c.21,0,.43,0,.46.09.08.31-1,.22-.66,1,.68,1.31,3.83-1.31,4.75-1.72a.23.23,0,0,1,.09,0l-.09,0s1.55-.34.59.22c-1.46.87.05.44.69.15C56.69,77,62,73.8,67.62,71.15l.27-.12c-1.29,3.76-2.39,7.55-3.77,11.35-.54,1.49-.93,3.41-.14,4s.09-.22.76-.16c.41,0,.7.41.64.42s.4-.49.57-.4-.49.62.29.89c1.39.48,1.42-2.61,1.69-3.3,0,0,0,0,0-.06l0,.06s.71-.94.53-.14c-.27,1.23.36.25.54-.23,1.56-4.13,2.5-8.55,4.07-12.84,1-2.86,3.44-6.11,5-9.37.23-.48.58-1,.82-1.52s.61-2,.38-1.69-.24.31-.35.47c-.24.4-.48.81-.71,1.22-.73,1.44-1.24,3-2,4.48a53,53,0,0,0-3.55,7.21,56.71,56.71,0,0,1-2,5.53c-.1.42-.15.75-.27,1.21-.53,2.06-.33-1.09.27-1.21.56-5.76,4.28-10.35,6.58-15.39.29-.62.61-1.23.94-1.83a13.38,13.38,0,0,1,.71-1.22c.24-.38.47-.77.7-1.15a1.27,1.27,0,0,0,0,.2c-.13,1,.38-.29.07-.32l.32-.52c0,.08,0,.18,0,.2-.12,1,.38-.29.08-.32L80.4,56a.89.89,0,0,0,0,.22c-.13,1,.39-.31.07-.32h0c.1-.18.2-.35.29-.53a1.83,1.83,0,0,0,0,.36c.07.72.44-.6.15-.64l.24-.48c.12.28.32.57.22.57.3,0,0-.5-.1-.81.17-.37.32-.73.45-1.1a4.72,4.72,0,0,0,0,.54c0,1,.64-1,.21-1,0,0,0,0,0,0,.06-.22.12-.44.17-.66A12.68,12.68,0,0,0,82.51,50ZM51.29,79.15c.21.17,1-.86,1.34-1.07s1.22-1.17,1.54-.91C53.81,76.87,52,79.69,51.29,79.15Zm3.28-1.67c.18.15,1.39-1.83,1.92-1.41C56.39,76,55,77.83,54.57,77.48Zm11.88-5.92C64,72.7,61.72,74.07,59.21,75c-.51.28-.89.54-1.45.86-2.53,1.41.83-1.15,1.45-.86a38.34,38.34,0,0,1,8.88-4.58c0,.16-.1.31-.16.46Zm2.36,11.61c.26,0,0-1,0-1.29s-.12-1.3.28-1.29C68.7,80.58,69.63,83.18,68.81,83.17Zm.82-2.57c.21,0-.5-1.78.15-1.77C69.65,78.82,70.15,80.6,69.63,80.6Z"/><path class="cls-2" d="M82.05,49.64s.07-.07.06-.07S82,49.59,82.05,49.64Z"/><path class="cls-2" d="M67.87,86.3c-.55,0,.07.8.07.8C68.26,87.11,67.63,86.29,67.87,86.3Z"/><path class="cls-2" d="M55.93,52.18c0-.15-.62,0-.62,0C55.26,52.63,55.93,52.19,55.93,52.18Z"/><path class="cls-2" d="M51.62,51.09c0,.08,0,.1.09.09S51.63,51.08,51.62,51.09Z"/><path class="cls-2" d="M46.57,82c.26.21.56-.89.76-.73C46.88,80.85,46.57,82,46.57,82Z"/></g></g></g></svg>
