<svg xmlns="http://www.w3.org/2000/svg" viewBox="0 0 128 128" width="256" height="256">
    <defs>
        <style>.cls-1{fill:#b72e6f;}.cls-2{fill-rule:evenodd;}</style>
    </defs>
    <g id="Слой_2" data-name="Слой 2">
        <g id="Слой_1-2" data-name="Слой 1">
            <g id="symbol_beth" data-name="symbol beth">
                <polygon class="cls-1"
                         points="64 128 24.45 121.78 6.31 86.07 0 46.52 28.35 18.23 64 0 99.65 18.23 128 46.52 121.69 86.07 103.55 121.78 64 128"/>
                <path class="cls-2"
                      d="M66.79,88.19a3,3,0,0,0-.62.27,1.12,1.12,0,0,0-.25.17c.16.33,2.18,0,2.18,0A1,1,0,0,0,66.79,88.19Z"/>
                <path class="cls-2" d="M82.06,90.38c0-.19-.22-.22-.42-.19A2.1,2.1,0,0,0,82.06,90.38Z"/>
                <path class="cls-2"
                      d="M95.26,76.16c-.07-1.5-.09-3-.21-4.49s-.23-3-.38-4.44c-.06-.73-.15-1.48-.24-2.23l-.13-1.13c0-.38-.08-.75-.16-1.16-.16-.8-.29-1.63-.48-2.39s-.36-1.54-.59-2.29c-.43-1.5-.93-3-1.48-4.44a66.63,66.63,0,0,0-9.11-16,96.51,96.51,0,0,0-12.4-13.41l-1.59-1.41c-.57-.49-1.12-1-1.82-1.53l-2-1.64L63,21.75C53.85,33.57,41.31,47.2,30.64,60.61c-1.57,2-3.52,4.17-5.21,6.26L20.49,73l7.79,2.63.73.24c3.56,1.18,10.39,2.81,8.65,2-.87-.39-1.75-.76-2.65-1.12q-3.15-1.2-6.36-2.38L28,74.14l-5.34-1.86.07-.07-.11,0,3.83-4.54.42-.5c5.22-6.45,10.23-13.49,15.6-20,7.29-8.82,13.83-16.49,20.65-25.29l1.56-2,1.89,1.54c1.18,1,2.26,1.93,3.41,3s2.28,2.15,3.43,3.3A93,93,0,0,1,83.61,39.6a51.29,51.29,0,0,1,7.22,14.18A46.82,46.82,0,0,1,93,60.17c.19.7.3,1.35.41,1.88s.18,1,.22,1.3a2.74,2.74,0,0,1,0,1,10.78,10.78,0,0,1-.72-2.39c-.18-.74-.42-1.55-.66-2.36s-.49-1.66-.71-2.43-.44-1.48-.57-2.07a4.09,4.09,0,0,1-.14-1.29A90.74,90.74,0,0,0,80,36.58Q76.83,32.65,73.4,29q-1.73-1.83-3.52-3.58c-1.22-1.18-2.41-2.3-3.76-3.44l-1.29-1.08L63.69,22.3C53.73,34.68,43.2,46.61,33.51,59c-2.18,2.78-4.41,5.5-6.65,8.16l-.41.51-3.73,4.57L28,74.14l.66.23c2.17.76,4.29,1.55,6.36,2.39l6.4,2.43-1-.15c-5-1,1.91,1.12,1.65.4L45,80.55c-.4-.08-.85-.13-1-.15-5-1,1.93,1.12,1.66.4l3,1.13c-.42-.09-.95-.15-1.1-.18-5.05-1,2,1.16,1.65.39l0,0,2.88,1-.2,0c-.81-.14-1.57-.22-1.54-.21-3.39-.31,3.51,1.47,3.3.79l2.63.91c-1.19.09-2.34.39-2.47.14.36.72,2.4.31,3.8.3,2,.66,4,1.27,5.89,1.83-1.27-.26-2.6-.47-2.69-.49-4.66-.68,5.44,2.18,4.94,1.17,0,0,0,0-.08-.08,1.13.3,2.26.59,3.38.85,2.39.56,9.54,2.56,11.53,2.71,1.52.12.22-.59.12-.48a2.9,2.9,0,0,1,.94-.38c-1.32-.68-5.28-2.93-5.39-2.72.35-.69,10.44,2.77,6.67.09-5.25-3.72,2.3-2.42-4.48-5.41-.81-.36-3.5-2.25-4.16-2.52C65,75.75,63.52,77.62,53.92,74c-5.53-2.09-11.14-4.07-16.78-6h0c8.92-11.58,19.08-22.5,28.73-34.25h0A79.61,79.61,0,0,1,76,45.6a51.26,51.26,0,0,1,6.92,13.94c.17.61.38,1.22.51,1.83s.32,1.25.41,1.8A36.26,36.26,0,0,1,84.32,67c.26,2.82.51,5.67.57,8.44a53.34,53.34,0,0,1-1.62,16,52.61,52.61,0,0,1-3.92,9.91c-.31.75-.73,1.38-1,2s-.57,1.24-.83,1.74a3.62,3.62,0,0,0-.53,2.39c.74,2.28.79-.83,2.39-.58,1,.13.82,1.56.63,1.6l.1-.08.27-.23c.23-.18.54-.42.86-.65.6-.5,1.23-1,1.35-.81s0,.39-.25.7a10.59,10.59,0,0,1-.88,1c-.64.72-1.15,1.49-.47,2s1.75,0,3-1.23a25.34,25.34,0,0,0,2-2.27c.62-.92,1.24-1.94,1.85-3s1.08-2.2,1.51-3.31.82-2.2,1.1-3.21l.74-2.69c.13-.55.24-1,.34-1.39,0,0,0-.08.12-.37,0,.1-.08.23-.12.37.06-.07.49-1.11.85-2,.47-1.2.93-2.08.53.49-.73,3.4-.58,3.61-.11,2.6.23-.51.53-1.32.82-2.19s.47-1.79.62-2.5a57.55,57.55,0,0,0,1-9.18C95.3,79.17,95.25,77.67,95.26,76.16Zm-.65,10.08c-.09,1.33-.31,2.34-.76,2.66.29-.2.29-1.51.23-2.94s-.3-3-.29-3.8-.18-2.32-.36-3.79-.23-2.84.14-3.21c-.22.21-.12,1,.05,2.23.1.6.22,1.28.36,2l.34,2.3c.13.79.19,1.6.24,2.37A18.07,18.07,0,0,1,94.61,86.24Zm-.11-12c.1-.11,0-.65-.19-1.43s-.5-1.76-.8-2.78c-.59-2-1.1-4.12-.53-4.79a4.36,4.36,0,0,0,.31,1.36c.22.77.52,1.78.8,2.81C94.62,71.49,95,73.72,94.5,74.23Z"/>
                <path class="cls-2"
                      d="M86.13,108.39a12.85,12.85,0,0,0-.44,1.82c.45-.07.81-1,1.1-1.93.17-.45.28-.93.4-1.29s.25-.62.42-.66C86.85,106.51,86.46,107.49,86.13,108.39Z"/>
            </g>
        </g>
    </g>
</svg>
