<svg xmlns="http://www.w3.org/2000/svg" viewBox="0 0 128 128" width="256" height="256"><defs><style>.cls-1{fill:#131414;}.cls-2,.cls-3{fill:#d64b3d;}.cls-3{fill-rule:evenodd;}</style></defs><g id="Слой_2" data-name="Слой 2"><g id="Слой_1-2" data-name="Слой 1"><g id="decryptor_taw" data-name="decryptor taw"><polygon class="cls-1" points="64 127.02 25.09 120.9 7.25 85.77 1.04 46.85 28.92 19.02 64 1.09 99.08 19.02 126.96 46.85 120.75 85.77 102.91 120.9 64 127.02"/><path class="cls-2" d="M64,128l-39.55-6.22L6.31,86.07,0,46.52,28.35,18.23l.13-.07L64,0,99.65,18.23,128,46.52l-6.31,39.55-.07.14-18.07,35.57Zm-38.27-8L64,126l38.27-6,17.55-34.56,6.11-38.27L98.5,19.82,64,2.18,29.5,19.82,2.07,47.19,8.18,85.46Z"/><path class="cls-2" d="M93.46,26.23,64,11.17,34.54,26.23,11.11,49.61l5.22,32.68,15,29.51L64,116.94l32.69-5.14,15-29.51,5.22-32.68Zm10.72,53.19L91.55,104.29,64,108.63l-27.55-4.34L23.82,79.42,19.43,51.88l19.74-19.7L64,19.48l24.83,12.7,19.74,19.7Z"/><polygon class="cls-1" points="64 98.53 42.69 95.18 32.93 75.94 29.53 54.64 44.8 39.4 64 29.58 83.2 39.4 98.47 54.64 95.07 75.94 85.31 95.18 64 98.53"/><path class="cls-2" d="M64,100.17,41.63,96.65,31.37,76.45,27.8,54.07l16-16L64,27.76,84.17,38.07l16,16L96.63,76.45,86.37,96.65ZM43.76,93.71,64,96.89l20.24-3.18,9.28-18.27L96.75,55.2,82.24,40.72,64,31.4,45.76,40.72,31.25,55.2l3.23,20.24Z"/><line class="cls-1" x1="64" y1="16.87" x2="64" y2="29.58"/><rect class="cls-2" x="62.71" y="16.87" width="2.59" height="12.72"/><line class="cls-1" x1="111.19" y1="51.16" x2="98.47" y2="54.64"/><rect class="cls-2" x="98.24" y="51.6" width="13.18" height="2.59" transform="translate(-10.23 29.47) rotate(-15.27)"/><line class="cls-1" x1="93.16" y1="106.66" x2="85.31" y2="95.18"/><rect class="cls-2" x="87.94" y="93.96" width="2.59" height="13.91" transform="translate(-41.4 68.05) rotate(-34.39)"/><line class="cls-1" x1="64" y1="111.24" x2="64" y2="98.53"/><rect class="cls-2" x="62.71" y="98.53" width="2.59" height="12.71"/><line class="cls-1" x1="34.84" y1="106.66" x2="42.69" y2="95.18"/><rect class="cls-2" x="31.81" y="99.62" width="13.91" height="2.59" transform="translate(-66.4 75.87) rotate(-55.59)"/><line class="cls-1" x1="16.81" y1="51.16" x2="29.53" y2="54.64"/><rect class="cls-2" x="21.87" y="46.31" width="2.59" height="13.18" transform="translate(-33.97 61.31) rotate(-74.72)"/><line class="cls-1" x1="21.46" y1="80.33" x2="32.93" y2="75.94"/><rect class="cls-2" x="21.06" y="76.84" width="12.27" height="2.59" transform="translate(-26.11 14.86) rotate(-20.92)"/><line class="cls-1" x1="106.54" y1="80.33" x2="95.07" y2="75.94"/><rect class="cls-2" x="99.51" y="72" width="2.59" height="12.27" transform="translate(-8.19 144.37) rotate(-69.06)"/><line class="cls-1" x1="37.71" y1="30.3" x2="44.8" y2="39.4"/><rect class="cls-2" x="39.96" y="29.09" width="2.59" height="11.53" transform="translate(-12.71 32.71) rotate(-37.92)"/><line class="cls-1" x1="90.29" y1="30.3" x2="83.21" y2="39.4"/><rect class="cls-2" x="80.98" y="33.56" width="11.53" height="2.59" transform="translate(5.93 81.84) rotate(-52.06)"/><path class="cls-3" d="M78.56,54.51c.15.06,0-.57,0-.57C78.05,53.73,78.55,54.5,78.56,54.51Z"/><path class="cls-3" d="M79.45,50.83c-.08,0-.1,0-.09.05Z"/><path class="cls-3" d="M51.31,84.8c.36.14-.07-1,.2-.88C50.91,83.69,51.32,84.8,51.31,84.8Z"/><path class="cls-3" d="M54.32,50.25c.08-.14-.56-.11-.56-.1C53.47,50.64,54.31,50.26,54.32,50.25Z"/><path class="cls-3" d="M77,80.51l0-.06,0,.06s-.53-1.2.17-.62c1.07.89.45-.24.07-.67C74,75.55,70.09,72.37,66.69,68.6a17,17,0,0,1-1.5-1.93c1.9-1.66,4.1-3.34,5.92-5.17.42-.42,1-.83,1.42-1.27s1.33-1.86,1-1.64c-.18.11-.36.24-.53.36-.4.33-.8.66-1.19,1-1.29,1.22-2.38,2.7-3.72,3.92-1,.94-2,1.79-3,2.67l-.17-.25c1.77-1.58,3.59-3.11,5.2-4.79.52-.54,1.08-1.06,1.65-1.55A11.25,11.25,0,0,1,73,59L74.12,58l-.07.22c-.47,1,.52-.16.19-.31l.52-.43-.07.22c-.48,1,.52-.16.19-.31l.53-.45a1.64,1.64,0,0,0-.08.24c-.48,1,.53-.18.18-.31,0,0,0,0,0,0l.5-.44a3.23,3.23,0,0,0-.13.38c-.16.79.69-.46.38-.61l.43-.42c0,.35.16.74,0,.69.33.13.15-.53.16-.9a11.06,11.06,0,0,0,.86-1,4.83,4.83,0,0,0-.23.55c-.34,1,1-.76.56-.94h0c.15-.2.28-.41.41-.62a12.41,12.41,0,0,0,1.3-2.18c.06-.36-.27-.24-.22-.18a1.35,1.35,0,0,1-.17-.36c-.31.13-1.36.48-1.27.57-.31-.3,1.33-2,.09-1.79-1.72.23.89-2.2-.51-1.35-.17.11-1,.23-1.17.32-1.81,1.23-3,3.12-4.66,4.52a45.14,45.14,0,0,0-4.62,4.44,45.63,45.63,0,0,1-5,4.38c-.67-1.1-1.37-2.19-2.11-3.2-.35-.48-.68-1.11-1-1.61s-1.64-1.63-1.48-1.23c.08.2.18.39.28.59.26.45.53.89.81,1.34,1,1.46,2.32,2.78,3.32,4.3l-.21.17c-.58-.89-1.18-1.75-1.81-2.58-.47-.61-.9-1.25-1.3-1.89a10.85,10.85,0,0,1-.81-1.34l-.76-1.3.2.11c.93.63-.08-.54-.28-.24l-.34-.59c.07,0,.17.09.2.11.93.63-.08-.54-.28-.24l-.36-.6a1.28,1.28,0,0,0,.22.12c.94.64-.1-.56-.28-.23h0c-.11-.19-.23-.38-.35-.56a1.76,1.76,0,0,0,.36.18c.76.29-.36-.76-.56-.47l-.34-.5c.34,0,.75,0,.69.07.17-.31-.51-.24-.87-.31-.27-.35-.55-.7-.84-1,.23.16.49.31.51.32.95.5-.6-1.13-.84-.7a0,0,0,0,0,0,0,6.66,6.66,0,0,0-.56-.5,12.33,12.33,0,0,0-2-1.64c-.35-.12-.28.22-.21.19a2,2,0,0,1-.38.1c.08.34.27,1.44.37,1.36-.34.26-1.74-1.63-1.76-.37,0,1.74-2.05-1.24-1.41.28.07.19.07,1.08.13,1.22.95,2,2.67,3.44,3.8,5.35A45,45,0,0,0,55.69,62a32.66,32.66,0,0,1,2.51,3.75l-.39.46c-3.15,3.93-5.94,8-9.12,12-1.1,1.36-2.18,3.23-1.48,4.13s.18-.19.89.15c.44.22.63.72.56.7s.61-.35.77-.18-.75.46,0,1.06c1.37,1.08,2.43-2.18,3-2.8l.06-.06-.06.06s1.1-.71.63.07c-.7,1.18.32.41.68,0,2.71-3.27,5-7,7.61-10.48a21.54,21.54,0,0,0,1.53,1.9c3.42,3.76,7.08,7.18,10.55,11C74.6,85,76.3,86.4,77.29,85.85s-.17-.21.28-.86c.28-.4.81-.51.78-.45s-.25-.66-.07-.79.35.82,1.06.15C80.62,82.71,77.54,81.13,77,80.51ZM64.83,66.37l.18.26-.26.23a2.33,2.33,0,0,0-.17-.26ZM53.59,81c.28.11.31-1.06.48-1.35s.3-1.42.74-1.25C54.32,78.2,54.48,81.33,53.59,81Zm1.75-2.39c.24.09,0-2.1.76-1.82C56,76.73,55.92,78.82,55.34,78.6Zm2.41-3.48c-.26.39-.42.73-.7,1.17-1.27,2,0-1.3.7-1.17a18.33,18.33,0,0,1,3.16-4.89l.33.48A40.24,40.24,0,0,1,57.75,75.12Zm13.93-.9A23.73,23.73,0,0,1,64.84,67l.25-.23a32.21,32.21,0,0,0,2.16,2.69,60.55,60.55,0,0,1,4.43,4.78c.35.32.66.53,1.06.88C74.5,76.68,71.45,74.9,71.68,74.22Zm1.41,1.91c-.08.12,2,.5,1.69,1C74.9,77,72.71,76.79,73.09,76.13Zm1.4,1.54c-.26.45,2.88.79,2.4,1.62.15-.26-1-.47-1.27-.69S74.26,78.07,74.49,77.67Z"/><path class="cls-3" d="M50.84,48.87c0-.06,0-.1,0-.09S50.77,48.88,50.84,48.87Z"/><path class="cls-3" d="M79.49,81.83c-.32.56.85.33.85.34C80.53,81.83,79.35,82.08,79.49,81.83Z"/></g></g></g></svg>
