<svg xmlns="http://www.w3.org/2000/svg" viewBox="0 0 128 128" width="256" height="256">
    <defs>
        <style>.cls-1{fill:#b72fa5;}</style>
    </defs>
    <g id="Слой_2" data-name="Слой 2">
        <g id="Слой_1-2" data-name="Слой 1">
            <g id="symbol_gimmel" data-name="symbol gimmel">
                <polygon class="cls-1"
                         points="64 128 24.45 121.78 6.31 86.07 0 46.52 28.35 18.23 64 0 99.65 18.23 128 46.52 121.69 86.07 103.55 121.78 64 128"/>
                <path d="M34.56,56.88c-.29-.09-.29,1.3-.29,1.3C35.3,58.49,34.58,56.88,34.56,56.88Z"/>
                <path d="M91.53,84s0,0-.09-.18a1.5,1.5,0,0,0,.09.18c0-.09-1.09-3.14.34-1.31,2.18,2.78.92-.26.15-1.5C85.4,70.55,83.18,69.12,76.23,58.11c-3.82-6-7.12-14.43-10.89-22.28l-2.63-5.48-5.18,4.74q-2,1.84-3.9,3.7C52.55,39.86,51.15,41,50,42.1c-1.45,1.46-3.7,4.61-2.83,4,.45-.31.89-.64,1.32-1,1-.86,2-1.74,3-2.65,2.25-2.15,4.36-4.55,6.55-6.86l3.9-4.1,2.7,4.73c.73,1.28,1.44,2.58,2.08,3.9,3.53,7.21,6.31,13.46,10.61,20.26,3,4.74.69.55,3.3,5.52.73,1,1.36,1.68,2.16,2.75,3.6,4.83-2.62-1.35-2.16-2.75-10.24-10.77-9.61-16.5-16.31-29.48l-2.2-4.25-3.81,3.68c-.89.87-1.77,1.74-2.63,2.62-1.35,1.39-2.76,2.71-4.19,4a39.48,39.48,0,0,1-3,2.65l-2.9,2.47c.11-.19.21-.43.25-.5,1.47-2.44-1.18.51-.55.75L44,49c.11-.19.22-.43.26-.5,1.46-2.44-1.19.51-.55.76L42.39,50.4c.13-.2.24-.49.29-.56,1.48-2.46-1.23.55-.54.76h0l-1.25,1.13.06-.11a8.47,8.47,0,0,0,.38-.79c.7-1.85-1.68,1.25-1.09,1.51-.38.35-.74.71-1.1,1.06.07-.76,0-1.62.21-1.55-.65-.2-.58,1.26-.75,2.09-.81.82-1.58,1.64-2.3,2.48.38-.61.74-1.28.76-1.33,1.18-2.39-2.52,2-1.62,2.29h.08c-.4.5-.79,1-1.15,1.53C33.61,60,31,63.15,30.62,64.26c-.3.84.46.47.39.34a2.71,2.71,0,0,1,.19.78c.74-.4,3.13-1.49,3-1.67.52.59-3.71,4.83-1,4.1,3.78-1-2.91,5.27.47,2.92.4-.28,2.32-.81,2.64-1,4.43-3.33,7.73-8,12-11.65,3.93-3.38,7.66-7,11.23-10.79l.09,0c2.64,6,5.25,12.11,8.84,17.77,7,11,8.72,12.84,15.79,24,2.43,3.82,5.88,8.13,7.89,7.55,2.18-.63-.33-.6.58-1.79.57-.74,1.64-.64,1.59-.51a.91.91,0,0,1-.08-.26,4.91,4.91,0,0,1-.14-.6c-.08-.44-.12-.92.07-1,.64-.28.71,2.11,2.16,1.06C98.9,91.57,92.62,85.84,91.53,84Zm-8-12.77c-.15.25,4.07,2.53,3.44,3.56C87.25,74.4,82.78,72.54,83.55,71.27Zm5.16,7.43c-.48-.6-2.76-2.15-2.29-2.93-.53.87,5.85,3.79,4.88,5.39C91.6,80.65,89.25,79.37,88.71,78.7Z"/>
                <path d="M31,65.53c.16.07.21,0,.21-.15C31.05,65.46,31,65.52,31,65.53Z"/>
                <path d="M93.76,94.89c-.66,1.07,1.72,1.35,1.72,1.35C95.87,95.61,93.47,95.37,93.76,94.89Z"/>
            </g>
        </g>
    </g>
</svg>
