<svg xmlns="http://www.w3.org/2000/svg" viewBox="0 0 128 128" width="256" height="256"><defs><style>.cls-1{fill:#131414;}.cls-2,.cls-3{fill:#dc763d;}.cls-3{fill-rule:evenodd;}</style></defs><g id="Слой_2" data-name="Слой 2"><g id="Слой_1-2" data-name="Слой 1"><g id="decryptor_sim" data-name="decryptor sim"><polygon class="cls-1" points="64 127.02 25.09 120.9 7.25 85.77 1.04 46.85 28.92 19.02 64 1.09 99.08 19.02 126.96 46.85 120.75 85.77 102.91 120.9 64 127.02"/><path class="cls-2" d="M64,128l-39.55-6.22L6.31,86.07,0,46.52,28.35,18.23l.13-.07L64,0,99.65,18.23,128,46.52l-6.31,39.55-.07.14-18.07,35.57Zm-38.27-8L64,126l38.27-6,17.55-34.56,6.11-38.27L98.5,19.82,64,2.18,29.5,19.82,2.07,47.19,8.18,85.46Z"/><path class="cls-2" d="M93.46,26.23,64,11.17,34.54,26.23,11.11,49.61l5.22,32.68,15,29.51L64,116.94l32.69-5.14,15-29.51,5.22-32.68Zm10.72,53.19L91.55,104.29,64,108.63l-27.55-4.34L23.82,79.42,19.43,51.88l19.74-19.7L64,19.48l24.83,12.7,19.74,19.7Z"/><polygon class="cls-1" points="64 98.53 42.69 95.18 32.93 75.94 29.53 54.64 44.8 39.4 64 29.58 83.2 39.4 98.47 54.64 95.07 75.94 85.31 95.18 64 98.53"/><path class="cls-2" d="M64,100.17,41.63,96.65,31.37,76.45,27.8,54.07l16-16L64,27.76,84.17,38.07l16,16L96.63,76.45,86.37,96.65ZM43.76,93.71,64,96.89l20.24-3.18,9.28-18.27L96.75,55.2,82.24,40.72,64,31.4,45.76,40.72,31.25,55.2l3.23,20.24Z"/><line class="cls-1" x1="64" y1="16.87" x2="64" y2="29.58"/><rect class="cls-2" x="62.71" y="16.87" width="2.59" height="12.71"/><line class="cls-1" x1="111.19" y1="51.16" x2="98.47" y2="54.64"/><rect class="cls-2" x="98.24" y="51.6" width="13.18" height="2.59" transform="translate(-10.23 29.47) rotate(-15.27)"/><line class="cls-1" x1="93.16" y1="106.66" x2="85.31" y2="95.18"/><rect class="cls-2" x="87.94" y="93.96" width="2.59" height="13.91" transform="translate(-41.4 68.05) rotate(-34.39)"/><line class="cls-1" x1="64" y1="111.24" x2="64" y2="98.53"/><rect class="cls-2" x="62.71" y="98.53" width="2.59" height="12.72"/><line class="cls-1" x1="34.84" y1="106.66" x2="42.69" y2="95.18"/><rect class="cls-2" x="31.81" y="99.62" width="13.91" height="2.59" transform="translate(-66.4 75.87) rotate(-55.59)"/><line class="cls-1" x1="16.81" y1="51.16" x2="29.53" y2="54.64"/><rect class="cls-2" x="21.87" y="46.31" width="2.59" height="13.18" transform="translate(-33.97 61.31) rotate(-74.72)"/><line class="cls-1" x1="21.46" y1="80.33" x2="32.93" y2="75.94"/><rect class="cls-2" x="21.06" y="76.84" width="12.27" height="2.59" transform="translate(-26.11 14.86) rotate(-20.92)"/><line class="cls-1" x1="106.54" y1="80.33" x2="95.07" y2="75.94"/><rect class="cls-2" x="99.51" y="72" width="2.59" height="12.27" transform="translate(-8.19 144.37) rotate(-69.06)"/><line class="cls-1" x1="37.71" y1="30.3" x2="44.79" y2="39.4"/><rect class="cls-2" x="39.96" y="29.09" width="2.59" height="11.53" transform="translate(-12.71 32.71) rotate(-37.92)"/><line class="cls-1" x1="90.29" y1="30.3" x2="83.2" y2="39.4"/><rect class="cls-2" x="80.98" y="33.56" width="11.53" height="2.59" transform="translate(5.93 81.84) rotate(-52.06)"/><path class="cls-3" d="M84.4,61.14a1.58,1.58,0,0,0,.12.29l.08.12c.16-.07,0-1,0-1A.43.43,0,0,0,84.4,61.14Z"/><path class="cls-3" d="M44.33,50.88v0Z"/><path class="cls-3" d="M85.6,54.24c-.09,0-.1.09-.09.19C85.58,54.31,85.62,54.24,85.6,54.24Z"/><path class="cls-3" d="M85.68,54.87a1.45,1.45,0,0,1-.17-.44,19.54,19.54,0,0,0-1.36,2.38c-.33-.18,1.44-4.82.11-3.17-1.83,2.28,1-4.76-.52-1.76-.18.36-1.11,1.54-1.25,1.83-1.95,4.1-3.2,8.62-5,12.9C76.1,69.76,74.82,73,73.61,76.2h0c-2.17-4-4.24-8.12-6.51-12.2l-2.32-4.16-3.19,4c-1.5,1.86-3,3.78-4.38,5.76-.77,1.09-1.43,2.06-2.06,3h-.07c-1.85-4.94-3.58-9.51-5.52-14.92-1.26-3.52-3-7.7-4.1-7.86s.17.53-.3,1.14c-.27.35-.76.06-.82-.06v0l0,.16c0,.13,0,.31.08.48,0,.36.05.71,0,.72-.33,0-.37-1.76-1.13-1.41-1.35.62,1.92,6.67,2.48,8.32,0,0,0,0,.06.16l-.06-.16c0,.06.57,2.63-.17.86-1.13-2.68-.48-.07-.08,1.06,2.23,6.35,4.74,12.63,7.23,19.05L53.84,83l1.63-2.45c2.06-3.08,4.17-6.19,6.37-9.29.69-1,1.44-2,2.23-3h0c2.52,4.62,5.12,9.72,7.84,14.43l2.56,4.44,1.9-4.94.18-.47c.45-1.17,1.07-2.52,1.53-3.74.61-1.59,1.45-4.66,1.07-3.89-.2.39-.38.78-.57,1.18-.44,1-.88,2.06-1.31,3.1-.47,1.2-.92,2.42-1.37,3.66L74.49,86l-2.16-3.53c-1.31-2.16-2.66-4.32-3.88-6.52-1.51-2.71-2.88-5.24-4.3-7.76h0l.18-.22,0-.1-.18.23h0c0-.1-.11-.19-.17-.29l-.08.1.17.3h0c-1.16,1.5-2.32,3.06-3.5,4.73-1.77,2.5-3.43,5-5.18,7.54l-1.53,2.17-.92-2.54c-.53-1.45-1-2.92-1.5-4.42-.37-.92-.7-1.63-1.12-2.65-1.87-4.61,1.37,1.76,1.12,2.65.29.58.56,1.17.83,1.76l.23.51c.3.67.59,1.33.87,2L54,81.66,55,80.19c.28-.44.57-.88.86-1.32l1.35-2c2.1-3.06,4.36-6,6.68-8.95h0l.08-.1h0l.19-.23h0a2.69,2.69,0,0,0,.16.29h0l0,.09h0c2.53,4.6,5,9.23,7.65,13.7l.43.75,2,3.35L75.81,82c.47-1.23,1-2.43,1.46-3.63s.85-2.09,1.31-3.1l1.24-2.85c0,.18-.07.39-.09.45-.51,2.25.56-.84.22-.74.18-.44.37-.87.55-1.3,0,.18-.06.38-.08.44-.52,2.26.56-.84.21-.74q.3-.68.57-1.35c0,.19-.07.43-.09.5-.52,2.27.57-.89.2-.74a0,0,0,0,1,0,0c.18-.43.36-.86.53-1.29a.36.36,0,0,1,0,.1c-.07.36-.12.71-.11.69-.19,1.54.74-1.55.41-1.48.16-.39.31-.78.46-1.17,0,.54.17,1.08.05,1.13.35-.15.17-1.09.18-1.72.34-.89.65-1.77.94-2.64-.14.57-.26,1.17-.26,1.21-.38,2.1,1.1-2.42.61-2.22a.08.08,0,0,0,0,0c.16-.51.31-1,.44-1.52.29-1.07,1.33-4.27,1.42-5.18C86,54.25,85.63,54.82,85.68,54.87Zm-39.8,6.5c-.16.28,1.06,1.91,1.34,2.56s1.44,2.39,1.19,2.83C48.69,66.27,45.37,62.26,45.88,61.37Zm4,9.54c.08-.13-2.11-3-1.79-3.62C48,67.53,50.3,70.2,49.9,70.91Z"/><path class="cls-3" d="M42.22,52.71c-.2.36,1.05,1.23.9,1.5.17-.3-.06-.67-.32-1A4.47,4.47,0,0,0,42.22,52.71Z"/></g></g></g></svg>
