<svg xmlns="http://www.w3.org/2000/svg" viewBox="0 0 128 128" width="256" height="256"><defs><style>.cls-1{fill:#131414;}.cls-2,.cls-3{fill:#8441ed;}.cls-3{fill-rule:evenodd;}</style></defs><g id="Слой_2" data-name="Слой 2"><g id="Слой_1-2" data-name="Слой 1"><g id="decryptor_waw" data-name="decryptor waw"><polygon class="cls-1" points="64 127.02 25.09 120.9 7.25 85.77 1.04 46.85 28.92 19.02 64 1.09 99.08 19.02 126.96 46.85 120.75 85.77 102.91 120.9 64 127.02"/><path class="cls-2" d="M64,128l-39.55-6.22L6.31,86.07,0,46.52,28.35,18.23l.13-.07L64,0,99.65,18.23,128,46.52l-6.31,39.55-.07.14-18.07,35.57Zm-38.27-8L64,126l38.27-6,17.55-34.56,6.11-38.27L98.5,19.82,64,2.18,29.5,19.82,2.07,47.19,8.18,85.46Z"/><path class="cls-2" d="M93.46,26.23,64,11.17,34.54,26.23,11.11,49.61l5.22,32.68,15,29.51L64,116.94l32.69-5.14,15-29.51,5.22-32.68Zm10.72,53.19L91.55,104.29,64,108.63l-27.55-4.34L23.82,79.42,19.43,51.88l19.74-19.7L64,19.48l24.83,12.7,19.74,19.7Z"/><polygon class="cls-1" points="64 98.53 42.69 95.18 32.93 75.94 29.53 54.64 44.8 39.4 64 29.58 83.2 39.4 98.47 54.64 95.07 75.94 85.31 95.18 64 98.53"/><path class="cls-2" d="M64,100.17,41.63,96.65,31.37,76.45,27.8,54.07l16-16L64,27.76,84.17,38.07l16,16L96.63,76.45,86.37,96.65ZM43.76,93.71,64,96.89l20.24-3.18,9.28-18.27L96.75,55.2,82.24,40.72,64,31.4,45.76,40.72,31.25,55.2l3.23,20.24Z"/><line class="cls-1" x1="64" y1="16.87" x2="64" y2="29.58"/><rect class="cls-2" x="62.71" y="16.87" width="2.59" height="12.72"/><line class="cls-1" x1="111.19" y1="51.16" x2="98.47" y2="54.64"/><rect class="cls-2" x="98.24" y="51.6" width="13.18" height="2.59" transform="translate(-10.23 29.47) rotate(-15.27)"/><line class="cls-1" x1="93.16" y1="106.66" x2="85.31" y2="95.18"/><rect class="cls-2" x="87.94" y="93.96" width="2.59" height="13.91" transform="translate(-41.4 68.05) rotate(-34.39)"/><line class="cls-1" x1="64" y1="111.24" x2="64" y2="98.53"/><rect class="cls-2" x="62.71" y="98.53" width="2.59" height="12.71"/><line class="cls-1" x1="34.84" y1="106.66" x2="42.69" y2="95.18"/><rect class="cls-2" x="31.81" y="99.62" width="13.91" height="2.59" transform="translate(-66.39 75.85) rotate(-55.58)"/><line class="cls-1" x1="16.81" y1="51.16" x2="29.53" y2="54.64"/><rect class="cls-2" x="21.87" y="46.31" width="2.59" height="13.18" transform="translate(-33.97 61.31) rotate(-74.72)"/><line class="cls-1" x1="21.46" y1="80.33" x2="32.93" y2="75.94"/><rect class="cls-2" x="21.06" y="76.84" width="12.27" height="2.59" transform="translate(-26.1 14.86) rotate(-20.92)"/><line class="cls-1" x1="106.54" y1="80.33" x2="95.07" y2="75.94"/><rect class="cls-2" x="99.51" y="72" width="2.59" height="12.27" transform="translate(-8.19 144.36) rotate(-69.06)"/><line class="cls-1" x1="37.71" y1="30.3" x2="44.79" y2="39.4"/><rect class="cls-2" x="39.96" y="29.09" width="2.59" height="11.53" transform="translate(-12.71 32.71) rotate(-37.92)"/><line class="cls-1" x1="90.29" y1="30.3" x2="83.2" y2="39.4"/><rect class="cls-2" x="80.98" y="33.56" width="11.53" height="2.59" transform="translate(5.93 81.84) rotate(-52.06)"/><path class="cls-3" d="M51.72,54c.13-.06-.33-.49-.33-.49C50.92,53.78,51.71,54,51.72,54Z"/><path class="cls-3" d="M50.29,50.17c0-.07.06-.11,0-.11S50.26,50.12,50.29,50.17Z"/><path class="cls-3" d="M80.94,50.14c-.3-1.08-.76-1.87-1.27-2s-.53,0-.46.17.2.39-.12.57-.85-.07-.8-.12a1.25,1.25,0,0,1,0,.14c0,.08,0,.19-.06.3s-.13.43-.23.43c-.33,0,.1-1.09-.75-.91s-.7,1.18-.52,2.32a23.08,23.08,0,0,1,.39,2.71s0,0,0,.09,0-.06,0-.09-.43,1.48-.49.4c-.13-1.64-.42-.14-.47.52a17.93,17.93,0,0,1-2.19,8,10,10,0,0,1-2.83,3,11.3,11.3,0,0,1-4,1.71,14.94,14.94,0,0,1-6.66-.32c-.28-.06-.55-.17-.83-.26s-.56-.17-.82-.29L58,66.22a6.51,6.51,0,0,1-.74-.39A11.54,11.54,0,0,1,54.77,64a8.68,8.68,0,0,1-.61-.71c-.18-.28-.36-.54-.54-.79a5.57,5.57,0,0,0-.41-.55c-.15-.2-.3-.41-.44-.57-.28-.34-.46-.58-.42-.36a5.31,5.31,0,0,0,.2.68,6.43,6.43,0,0,0,.32.71,9.42,9.42,0,0,0,.51.87,7,7,0,0,0,1,1.09A13.18,13.18,0,0,0,58,66.47l.6.24a3.83,3.83,0,0,0,.62.22l.62.19a4.77,4.77,0,0,0,.62.17c.43.09.85.19,1.28.26l1.29.16a14.12,14.12,0,0,0,5.3-.46,10.58,10.58,0,0,0,3.34-1.72A16.75,16.75,0,0,0,74.26,63l.19-.34.15-.34c.09-.23.21-.44.31-.73s.22-.52.29-.65.1-.2.13-.2,0,.27-.06.6a4.85,4.85,0,0,1-.17.55,4.49,4.49,0,0,1-.26.54c-.18.33-.41.57-.58.57a7.7,7.7,0,0,1-1.49,2.27,6.92,6.92,0,0,1-1,.91c-.19.14-.37.28-.57.4l-.62.34a11.87,11.87,0,0,1-5.49,1.22,19.35,19.35,0,0,1-5.57-.83,13.8,13.8,0,0,1-4.58-2.36,6.81,6.81,0,0,1-1.52-1.65,6.13,6.13,0,0,1-.83-1.58,10,10,0,0,1-.5-1.52c.05.08.13.15.14.18.36.46.37.3.25.09S52.12,59.9,52,60c0-.2-.1-.41-.14-.61,0,0,0-.06,0-.09s.12.16.14.19c.32.49.35.33.24.11s-.29-.55-.41-.46c0-.25-.09-.49-.13-.74.05.09.13.19.14.22.3.52.33.36.24.13s-.26-.59-.4-.49h0c0-.24-.07-.48-.1-.71a2.21,2.21,0,0,0,.23.36c.27.33.25.11.15-.18s-.29-.62-.42-.56c0-.22-.05-.44-.07-.65l0,0c.25.21.56.36.47.42.2-.13,0-.33-.29-.54a1.93,1.93,0,0,1-.25-.24l-.15-1.46,0,0a6,6,0,0,0,.2.58c.24.52.25.17.18-.28s-.23-1-.44-.92c0,0,0,0,0,0,0-.28-.07-.56-.11-.84s-.09-.9-.13-1.5a7.12,7.12,0,0,0-.14-1.43c-.12-.39-.31-.05-.25,0a1.58,1.58,0,0,1-.3-.23c-.06.14-.2.4-.33.66s-.37.82-.3.83c-.19,0-.21-.76-.26-1.34s-.13-1-.57-.5c-.58.77-.69,0-.69-.66s.11-1.37-.29-.38c-.09.23-.71,1.06-.76,1.26a14.28,14.28,0,0,0-.43,4.34c.06,1.48.24,3,.43,4.49a15,15,0,0,0,1.26,4.43,13,13,0,0,0,2.81,3.93A18.43,18.43,0,0,0,55,70.09a21.82,21.82,0,0,0,4.47,1.78c.53.12,1.05.24,1.58.34.23,1.65.78,3.31.88,5,.08,1.36-1,3.12-1.27,4.73,0,.24-.18.52-.21.77s.16.93.28.77a1.74,1.74,0,0,0,.15-.26c.08-.2.16-.41.23-.62.16-.72,0-1.47.24-2.2A10.81,10.81,0,0,0,62,76.82a11.13,11.13,0,0,1-.22-2.63c0-.19-.14-.34-.2-.55-.28-.94.74.4.2.55,1.67,2.49-.19,5-.49,7.5a5.83,5.83,0,0,1-.21.92,2.45,2.45,0,0,1-.23.62l-.24.6-.07-.08c-.26-.44-.26.18.05.14l-.11.27-.07-.08c-.26-.44-.25.18,0,.14,0,.1-.07.19-.1.28a.38.38,0,0,0-.08-.09c-.26-.44-.25.19.06.14h0l-.09.27c0-.08-.14-.16-.13-.16-.35-.28-.2.33.1.3l-.06.24c-.21-.1-.53-.18-.42-.2-.3,0,.2.2.41.32a1.9,1.9,0,0,0,0,.53,1.72,1.72,0,0,0-.16-.23c-.35-.4-.25.5.16.43h0a2.12,2.12,0,0,0,.09.31c.08.21.16.85.37,1s.32,0,.25,0a2.12,2.12,0,0,1,.32.07c.14-.13.64-.51.52-.52.38,0,.24,1,1,.58,1-.53.66.91,1.11.28.05-.08.57-.35.6-.41.51-.87.2-1.76.54-2.64a8.94,8.94,0,0,0,.54-2.6c.12-1.68,1.48-3.4,1.36-5.18-.1-1.48-.38-2.94-.58-4.42a17.46,17.46,0,0,0,2.8-.48A16,16,0,0,0,74.6,69.4a15.41,15.41,0,0,0,4.06-4.62,19.13,19.13,0,0,0,2.06-5.44,28.81,28.81,0,0,0,.63-5.5A13.34,13.34,0,0,0,80.94,50.14ZM62,72.37l-.08,0a.07.07,0,0,0,0,0Zm0,.87c.13,0-1-.68-.53-.77C61.23,72.51,62.61,73.13,62,73.24ZM76.07,60.3c-.06.21-.16.36-.33.37a3.31,3.31,0,0,0,0-1.12c0-.13,0-.27,0-.4s0-.25,0-.36.1-.36.24-.38c-.13,0,0,.55.09,1.11A2.9,2.9,0,0,1,76.07,60.3Zm.42-2c.23,0,.07-.87-.12-1.66a6.64,6.64,0,0,1-.2-1.1c0-.32,0-.55.23-.62-.13,0-.06.35,0,.7a5.53,5.53,0,0,1,.21.94c0,.18.07.59.09,1S76.7,58.28,76.49,58.32Z"/><path class="cls-3" d="M76.15,50.65c.27-.14.15-.38,0-.57a1.89,1.89,0,0,0-.42-.33C75.4,49.92,76.39,50.51,76.15,50.65Z"/><path class="cls-3" d="M59.69,86.1c-.13,0,.32.18.32.18C60.48,86.2,59.7,86.09,59.69,86.1Z"/><path class="cls-3" d="M61.2,87.47c.09,0,.08,0,0,0S61.19,87.47,61.2,87.47Z"/></g></g></g></svg>
